<mxfile host="app.diagrams.net" agent="Mozilla/5.0 (Windows NT 10.0; Win64; x64) AppleWebKit/537.36 (KHTML, like Gecko) Chrome/128.0.0.0 Safari/537.36 Edg/128.0.0.0" version="24.7.13">
  <diagram name="Page-1" id="d9ex6iEuDmCF_7KvgH6v">
    <mxGraphModel dx="786" dy="457" grid="1" gridSize="10" guides="1" tooltips="1" connect="1" arrows="1" fold="1" page="1" pageScale="1" pageWidth="827" pageHeight="1169" math="0" shadow="0">
      <root>
        <mxCell id="0" />
        <mxCell id="1" parent="0" />
        <mxCell id="GMlkpqBU8Bx7z-MP60cb-1" value="" style="rounded=1;whiteSpace=wrap;html=1;" vertex="1" parent="1">
          <mxGeometry width="240" height="240" as="geometry" />
        </mxCell>
        <mxCell id="GMlkpqBU8Bx7z-MP60cb-3" value="" style="edgeStyle=none;orthogonalLoop=1;jettySize=auto;html=1;rounded=0;exitX=1;exitY=0.5;exitDx=0;exitDy=0;flowAnimation=1;shadow=0;dashed=1;strokeWidth=2;" edge="1" parent="1" source="GMlkpqBU8Bx7z-MP60cb-4">
          <mxGeometry width="80" relative="1" as="geometry">
            <mxPoint x="400" y="240" as="sourcePoint" />
            <mxPoint x="170" y="45" as="targetPoint" />
            <Array as="points" />
          </mxGeometry>
        </mxCell>
        <mxCell id="GMlkpqBU8Bx7z-MP60cb-4" value="&lt;font face=&quot;Lucida Console&quot;&gt;&lt;b&gt;Application&lt;/b&gt;&lt;/font&gt;" style="image;html=1;image=img/lib/clip_art/computers/Virtual_Application_128x128.png" vertex="1" parent="1">
          <mxGeometry x="30" y="20" width="50" height="50" as="geometry" />
        </mxCell>
        <mxCell id="GMlkpqBU8Bx7z-MP60cb-11" value="" style="group" vertex="1" connectable="0" parent="1">
          <mxGeometry x="150" y="160" width="53.75" height="55.1" as="geometry" />
        </mxCell>
        <mxCell id="GMlkpqBU8Bx7z-MP60cb-9" value="" style="aspect=fixed;sketch=0;html=1;dashed=0;whitespace=wrap;verticalLabelPosition=bottom;verticalAlign=top;fillColor=#2875E2;strokeColor=#ffffff;points=[[0.005,0.63,0],[0.1,0.2,0],[0.9,0.2,0],[0.5,0,0],[0.995,0.63,0],[0.72,0.99,0],[0.5,1,0],[0.28,0.99,0]];shape=mxgraph.kubernetes.icon2;prIcon=ns;movable=1;resizable=1;rotatable=1;deletable=1;editable=1;locked=0;connectable=1;" vertex="1" parent="GMlkpqBU8Bx7z-MP60cb-11">
          <mxGeometry width="47.07516339869281" height="45.1921568627451" as="geometry" />
        </mxCell>
        <mxCell id="GMlkpqBU8Bx7z-MP60cb-8" value="Promtail Agent&#xa;" style="shape=image;imageAspect=0;aspect=fixed;verticalLabelPosition=bottom;verticalAlign=top;image=data:image/png,iVBORw0KGgoAAAANSUhEUgAAAaAAAAHyCAYAAACtcBqlAABUtklEQVR42u2d25Zb1bWu9QjrCShRVSqpilz4EeoR6nK3tW/UWmxsDl4WYBsMBguDbU5GAcIZokBIIAlEHPdqK4QoAdJWCycByb0eQVS5yq477zGmVKopqfdZY4w+e9WQ/P+t/S17ZbcIVFMav+Yc3/h7oQBBEARB0HSp938qxZ/+85ZO7//eUsNfA4IgCNr/IPrPlUP4K0AQBEEQBEEQBEEQBEEQBEEQBEEQBEEQBEEQBEEQBEEQBEEQBEGQTL0jK4c2jqxU1w/f0tg4vNxeP7xSx18FgiAI0g6b6yM+snJ948hyG38pCIIgSDVsGPfw14MgCIKCgscjbEj3jlWK+EtCEARB3vINnHFv3Lq8hr8iBEEQFBJAHVEI3QoQAYIgCAoLoKYgfAAiQBAEQYEBdHi55ho2jAEiQBAEQf7qHf7ZqkfYkAaIAEEQBIXdBXkGzvrRUQNEgCAIgkIDqOMaNqSPAUSAIAiCQgLo6ErTOWwIbxwFiABBEAQF3QEt10LDZ2CACBAEQZC/esd+tioMIIAIEARBUOBdUEjwHNv1xm0AESAIgqCwAOq4hg3jOv6KEARBUEgANT3CZsIbxwAiQBAEQSEBdNtyLSR4hgaIAEEQBIUoAREkAXQMIAIEQRAUehcUEjy3WS8nBogAQRAEhQWQBREcw4b07QARIAiCoLA7oKZz2BA2d0AAESAIgqCAALIggmfojBkgAgRBEOSv3rHKqjCAACJAEARBwXdBYeFze98AESAIgqDQAOq4hg3t/ECEZFiendj685Wm/U9cHQiCoFkOIAsiOIfNpENBhNGwWekYXx/6yMr1jSMAHCAIgmY7gO4wIeATOndMeE8QYa+w4YyrA0EQNMPq3VlZ9Qgb0hSIYP87n7Ch3DuycghXCIIgaJbvgjzChvLGnTSI4Bs44944slLF1YEgCJrlALpjuSMJoPU7aRDB7uOIQujWWxq4OhAEQTMdQCtN0R3QHTQwYAPEP3R2DRABgiBo9u+Aav53PSPu0XdAK1XXsOGMqwNBEDTDSkAE97Ah3asRIMKRlUM+YTPhowARIAiCboS7IOewocyCCB5hQ3njGEAECIKg2Q6gO5c7oeHTdwaI4Bg2tAEiQBAEzfgd0EpTEkDmDogGEUyA+AXO2B3QUYAIEARBMx5AyzXv4Dk+YhpEOLZSlQSQNa4OBEHQDCsBEdzDhjQLIoQET2oya+92gAgQBEGzfRfkETaUWRDBI2woA0SAIAia/QDqhIZP4v9iQISjy23XsCENEAGCIGjGA+j4SlMSQBvHM0CEY4Hhk9wBAUSAIAia8QBaroXd+QzNgwiCALLG1YEgCJphJSCCe9iQJkGE21cOeQXObSsTU1kBIkAQBM3+XZBz2FDeqDEggkfYUN64vVLF1YEgCJrlAPqv5Y5z4JwgXGNAhGPLbdewYQwQAYIgaKYD6MRK0zlsCG+cYEAEEyCC8Lm+cRtABAiCoNkOIAsinHAPHMI0iHB7pSoJIDu1FVcHgiBohtWrVVaFAcSDCB5hQxkgAgRB0KzfBQkDiAURPMKGMkAECIKg2Q+gjnPg1CgzIMJty22fwCGG4wFEgCAImu0AWmm6h82kzR0QDyK4h82EN+4AiABBEHQgss3SG0dWquuHb2lsHDZ3E4dXrvcO/2w19wCqLddcw4YxDyI4hg1nfAogCIIOIGyGPpLyrfTjLtE/24IIsgDiQYQ7ZAEEEAGCIOggwobwT0dWWhr/TtIAYkEESQDZyavHASJAEATls9AfXqm7hg3jrlIAdbxC564x382ACHeYgHUMG2YwHkAECIKgXO5+Dv9sNTB4hu5VD/1H/gG00nQOG8IbdzEgwh3LDeewIbxxJ0AECIKgfALIhIcogG41AXRMEUS4K9g0iHC8UvUJHMr41EAQBOW12B9Z6bqGDeN67sFoQYS7RAHEgwjCAAKIAEEQlJMsSOARNhP+6VYlEEEYQCyIEBI8I5NXASJAEATls9CbOxifwFk/OmEdEOGu5Y5X6Nw9bgZEuHO57Ro2jAEiQBAE5SG7h+MRNqTVQATnsJk0CyKYAPEImwlvHAeIAEEQlE8AWRDBI2zIANIAEe5errmGzUT43GNd5kGE42Hhs2N8aiAIgvJa7I+udCUBtH5MAUQ4WVl1D5sKaRJEqK0ckgaQfY2Z/UFi0fzDJvx/bu5AD6907P8b3xAIgtT009GVVmDwJLb/e5Vg9Agb2gyI4Bs6YxNaZwVEmAwbsgWjiW8IBEF6d0DmDsY1bBjrgAj3lDt+gTPq9ZMV8s7M7uO4hg0zInzqQATHsKHcwTcEgiC9xcmCCO5hQ7pXyx9EMCHSlASQMQ8iuIbNaPD0h96dmB4QoR887v1+lPENgSBIb5GyIMKxsOAZBpAGiHByuSYKoJMZIIJj2HCenh8XlaK4bklh7AYEQdDuYn9spSsKodvzBxGunKysuocN7d59DIjgETaUpwlEMCHSC6lZ2jVABAiCFJWACK5hc5v18oh/um1ZBUTwCRvSHIhwIix4ho/hatMDImwcWW4H1iztnAcDiABBkOodUN01bBjrgAgnyx2vwBkzCyKcMIuyLISmBkRI2i4CapZS+4IAESAI0lMCIriHDWk1EEEQQMZt5g6o4RU4k0PvpgZE2Lh1eS2gYmnE+IZAEKQXQCY8JOGTBNCxymr+d0DLNVEAnWJAhFql6ho2nKfnx0WlGFKxpN12AUEQtLvY37bcDQqf23esBCI4hw1tFkQ4IRv9PVUgwtGVnqjtAiACBEGasiCBe9hM+qfblUAEj7AhfZoBEWqyAJoqEOHocju06WJggAgQBCn+SjZ3MK5hM+H+iGs9EOGUZ+ikvH6aARFqZlEODaC7kv+cHhBhr7aLvchHgAgQBGmqd2dl1SNsSKuACKcqTUkAGbeZO6CGc9hQQ+/umjIQQdB0YY1vCARB8qA5snKImuGTgAgeYUMG0J1KIIIogDJABMew4RzVdTXX1LYWkNfWgggRtl1AEDTjYbNxZKW6fviWxsbh5fZuLxi9qWwfo/mGzojvVAIRvPZ8Js2CCMLR3wcFIuyEjbmW9WSs+s9XujvX1l5v8tpaEME3eEb3AAEiQBDkGzbkCXhyU9mCBJIAUgMRPMKGNgMiCANo4259ECErbOhmg1vIvamNY+Yz4R42kwaIAEHQziMVj7Bxrtm3dzB+dzxj1gIRTpU77mGT8r19r9/HgAh3mb9dSPjszilqaFxb57AhbKt3yL9huu0i7KwXQAQIgszC+fPltdB6/aya/QREcA0bxiogwr2VpmvYMOZBBPewmZzIqgAiJD8sjuR/bTduM58Z4WFjfPMgCFKr2U9ABI+wIQNIA0Q4vVzzCBvCDIhwd6XqGjb0SPBK7ouyfZQqura3mmt7ZHJvKvnMiA4a61xbCIKmUFo1+wmIcKckhBRAhPsqq/6hM2oWRPAIG8qbp/IHEcKu565ZEOG25V7oQeMBFQkQAYIgvZr9n+5cbgUFz2Cs9U/HlUAEYQCxIIJH2JBWABHIa+vVYs2ACLeZ1/U9aDzyKBYgAgRBhcCa/aN71+wnIIJj2DDWARHuLXeCw+e+DBDhnkpbMnn1yt3lRv7X9pZGwPUc2lbvkK9r2y4CDxkPDBABgiCHmv2jYTX7CYjgHjak1UAEx7BhTC7KNkBEo7/vqeiACAHXc69rm4AIgYeMd4xvHgRBozX7R/Or2U9AhONhwTMMIC0QwT1sJp0BIgQFT6ocNfdra0EESXv10QwQQXLQ+A6ACBAE7SzKSjX79jGaKIT+SwlEuM8zdMZMgQgWIvAJG8oqIELoNR2c9dk4xoAIdyz3/BsuRs56AUSAICiwZv/o3jX7FiTwC5xRq4EIwgDaOEODCD5hw4yHqB7Itc1ssGZAhDvM6/ocLp44bAwQAYKggkPN/tGwmn17B+MaNoz1QITg8KlcX7+fARFOVtqSyatXTiqACCZAvEYmjNlW75Cvm267CEPtASJAEDRWs380v5r9BERwD5u+x0Zbq4AI91WarmHDmAYRTICIRn+fVAARjq1UpQ3W5OveaT4zd8oOG+ObB0GQWs1+AiJ4hA3lXk0BRDizXPMIG8IMiHCqUvV85Dbh3K/t7SuHgq5p6mCpfY3Ja2s+M4FnvDQhEwiCpvExXEjNfrJQrWTW7NvHaK5hQ7qmBCKc8Q2dUbMggkfYUFYBEfzGJUx443Z6b8qESi/wjNeOASJAEORQsz8aNs41+z+dWG4Fh4+x/d+rvF9hALEgwknR1FUdECF9bcMKRBvMY7h26BmvvgEiQBBUGKvZ3ytsPGr27R1M+N1PYh0Q4Uy5Exw+92eACKcqbWEA5b4o2wCRtFfb6h367jYDMnExQAQIgpKFU6lm3+7heIQNaTUQwTFsSHMgwulyQxJA66fLuS/K9hGapL3amrkDWvM/2zVqfPMgCAqv2U8tWNSmcgIieIQNHUBKIIJr2JBmQITTy2uSsd/WuV9bCyJI2qtvzwARPMKGssa1hSBoGh/D7VWzv9eCxZxut4/RfENn1AogwtnKql/gDPzArsnRDOa/k439rly3kITCtRW0V2eACMfNZ+Z4OGZvri9ABAiCxmr2fRes2/nT7T/VlluSALL/e5X36xE2pM8yIMLpci9k5Pdw9Pfp/Bfl5NqGt1db0yDCcfO6Asx+/QRABAiCCg41+3svWjyI4Bs8oyOtdUCE+8sd57AhvH42A0QIG/m9Yx0QQdBebat3yNe1IIIEsz8BEAGCoMJYzb7/L2S2Zj8BEdzDhrQKiPBApRkSPCnTi/LpSj1s5PfgDuheJRBB2GBNvm7NfGZOiAIIIAIEQXo1+wmI4BE2dAAp7Is8sFyTBVAGiCCcvJr7tbUgQmhz9cAsiBCG16tCJhAETeNjuJCa/VHTIMJdy93Q8El8txKIEBI8Z3fdO8eACJIAuk8JRAhtrh544zgDIpwwn5kAvD5lgAgQBDnU7O+1cHEgwt3LrfDwWb5u//cq79cjbGgzIMK95Z5k8qrFxHN/rzvNBaE+zoAIJ8zrnhBRjgARIAgaq9kP+JXMnW63dzCuYcNYB0R4oNxxD5tJsyDCvZW2aPLqfQogggkQQfhct8Qb+bohkMmoASJAEKRXs5+ACO5hM+GNexRBBK/QKY+bXpTvq9QlQ+9UQITjlWpIa3Xa5OtaEEFGOQJEgCAosGZ/fLOaAxE8woYaaX3lpBKI4B42lGkQ4czymnTyau7X1oIIYa3VuyMUagyIIKYcASJAEFTYo2bf7RczDSLcvdx1DRvK6yfpx10SJSCCe9iM+sG+WRAhcOLqjlVABEl56PEMEKFmPjM1CWQCEAGCoMIem9WCmn0LEriGDe2yDojgETakzy7xIELYxNX+6G8NEME2F4SEz267AQ0i3GVeV0I5AkSAIKh/B7RSF8154UAEcwcjC6CKDohwttxxDhvC6w8xIMJ9lXbYxNWBtUAEz8bqtFkQwRUy4fb/7gGIAEFQIbBm32Gz2u7hBAVParKoCojw4FLTN3TGTC/K95vAFQy9szOL8r8DqlR9G6vHq3bI17Uggj/ZOGJ88yAI2rtm3+GXM7WpbMPDJ2woq4AID5ZrwgDiQQTh5NX8r+3KIe/G6jGzIII32agPmUAQNI2P4XZq9kNnvTAggn2M5ho2lNVAhNDweahvFkQImLaatv13y/3aejdWj3qjxoAId5vPjGPY0JAJQAQIggpjm9VBs17oTeWNU+VWSPAMfUoJRPAIG9J1BkQ4U+55T1tN2WLiub/XneaCcPMgwt3Lkj0+gAgQBKVq9sNnvfAggiiAFEEE17AhzIIIZypt/2mrI3VA+YMIJkAkBaIbNQZEEEIm6/eUASJAEDTYVBY8puE2qxMQwT1sSKuACOeWml6hc27CPIggGHxnq4Lyv7aVqk9bNWX68eryWihcsmN88yAICqvZn9isZkAEj7ChrAYiuIcNZR5E8JmySjj/a7tyyLOtmhihQIMIoXCJJmQCQdA0PobLqtl3+wVNgwinKl2fwBm3HfiW93u9cs7cmbmHDWkWRJANvdMBEWTloSyIsHFPuSd5xAoQAYKg/mLislkdULOfgAiCAFIDEc7JAogFER4wi7IggFRAhJq5toLyUPPf0SDCyUpbtMcHEAGCoP6v5JV6wHCxPWv2k5HVvqFzesQ6IMK5ckcSQOvnGBDhAbMoBw68S6wBIpgAkZSHWuKNfF1fyGT87vYUQAQIggqBNfsOm9UJiOAeNqTVQATvu54R04vyWbMoBw+8szOHlEAESXnoXRkggidUMm588yAI2rtm3+GxDQsieITN0KnhbipN0efKNY+woUyDCGfNohw48G6nny7/a7tySFQeehcDItg9r5OSx6sAESAI2n1U0wvaI9ijZt8+RnMNG8p24Fve7zUBEdzDhjQJIpj/LnDY3dAqIIKkPNQeOL2bARFOlXsyyAQgAgRBBWazOoea/Y3T5ZZr2NBWAhHq4eGT+ByzKJ81i7L/sLthO7fFxHN/r9wIBccutyt3l2kQ4VSlLdjfu24/G/jmQRDkX7M/aRpEsCOr7w0Nn8QqIILdx5EE0JU6syifNa8rmju0pAMiBBaHDkzveWVBJm6PW7v45kEQlF2z7/johnzcdV9lVRhA13vn8gcRbIB4B8/DKZ/PABF8htyNzxzSABHurlRDi0N3TP4NdyCTgL294bVVgEwgCJoyDWv2A/cJrHsnGRDBJ3CIiaIaIIJ9hOYcNozpO6ClNeHIBxUQQTgg8PrmKaoRwVzbwL09TcgEgqBpfAx313IvdJ8gMXO63T5Gcw0byhogwua50iGfsKFsX2NiUbYggjCANEAEUQD1abcq+bqnmWvraI1rC0HQND6GG9TsC/YKaBDh3nLLNWxIa4EIPoFznjKzKD9Y7klmDqmACPdU2qHFof3uNmbPy15b0SNWgAgQBBUGIIJgr4Cr2U9ABEkA3acEIpwvt93DZtJXzjOL8oPmdSUzh87lDyJYki20OHTgNnttBY9Xta4tBEHTdgfkW7PvulltQYSQ4EkNdVMDEc67Bw5helF+yCzKkplD5xRAhFOVqqi77WTFHzJxvM4a1xaCoClTZs2+o6nT7XaB8QkbyiogwnmzKMsCiAYR6ktrgnlDifN+rxYiEAwHTMyCCPeK7m4BIkAQtHMXVO5Jho2xIMJ9la5r2FC2A99yX5QtiCAMoM0LDIgQPm8osW1ryP3aCoYDDlzd89oGWOPaQhA0lQGUsVktqNnfOFNuhQTPrpVABI+wufLIpFkQ4ZwJclHjtgKIMD5Cwbe77XQGiBDwWFX72kIQNGVKavbvkQwaY0AEO7JaEkD3K4IIjmFDmgMRzpnXFc0dUgARTIDI5jNlgAgBj1VTBogAQdAeNfvSzWr3sCGtAiKYAHEOG9r0onzOLMpBw+76Xq8rgQghwZM6YCq+towBIkAQtFuzLxg2xoIIHmFDWeWA5vlKVRhAPIjgN2Nownm/1wRE8C4MHTUJInDX1sMa1xaCoGm8CzpZ7kmGjbEgwv2Vrk/gTIysPqsAIlwoHZIGEAsi+M0Ymiw81QAR/AtDx9HqKvm6Z8y1FdzhAkSAIGgQQIPN6vC9AhpEuL/ccg0b0vfrbFZ7Bc6jk964wCzKdRPkgsZtFRDBjlAQzGe6ci+z58VBJs4/OAAiQBBU2KNm3+UO6FQGiOAaNrRVNqvtPo5r2DBuMAHUls0dUgIRRPOZGBBh59oG3NlqXlsIgqbtDuj08prKZvXZyqogfBKrgQiPegXOuHkQQTDyYf1hBRDhvkpVOh6Dvbahd7aK1xaCoClTAiIIN6up0+3JZnVo+AwmjKqACBcqVWEA8SCCwsgHiRIQwTd0xvDqzfsZEEH44wIgAgRB/cXzVLnnvVmdeqyzfpoBER6odF3DhrIaiCAMIBZECB35MDyPpBC4/oWh464GX9sMa1xbCIKmMoD22Kzeew+BBxEcw4a2EojgGzoXRs2CCA+bIA8a9dD3+nkFEOFec20F/W0siDB+bb1/ZABEgCCoMAARAiZcDu+A7mVAhGRktXPYTPqBsg6I8Gi57Ro2pC8yi/L4yAfvvjkFEMEEiGg8xpkKP47c8452xErXFoKgabsDsiCC1ma1a9gw7p0r5g8iPDoAES4E+GJielF+2CzKgrLT9UeUQARRd5vvtXX/gaFxbSEImjIlIEJo+GTU7Ceb1R5hs28jqy2I4B42pMnXfWRpTWPkg0QWIhB2t/Eggs/dLHGtASJAENRfPO8t9wKnXPZr9s9wIEK56xo2lO3At9wXZQsieIQNZRZE8AycyTNJCoErrM7ZuD8DRAj8YaF1bSEImsoAGmxWe064TJkGEc6WW65hw1gHRLjoHzpXLi4NvXGhRC/K502Qe4x4mKj6eVQBRDhjrm14+Fy/cobZ87LXNvCHhea1hSBoysTW7LsOGuNAhPGR1f7WAREultuuYUO7xIMI5wVdc48qgAgmQCTN5CyIEOm1hSBo2u6AziyvCWkpfrM6ZHFKTRdVAREulhvuYUP4UolclK88UqkLC0/zBxHur1SDe9sGdFuu1zZ1jQEiQBDUBxGEtBQNIhT/wydsKKs0RV8oVd3Dhjb5uo8srYkC6FElECG8ty0xDSI4XNs9rrHGtYUgaBrvgiyIIKClWBDhwXLXNWwmnIysVgIRPMKGMgciSNq2E2uACILetqS54AGHa+t7jZWuLQRBU/kYTrBZfSYDRHiw3HJdkBjrgAiX/AJn3BuXaBDBhEtP0LatAyI8YK6trL9tqq4tBEFTpqRmXxBA6/dngAjuCxJlHRDhUqktCqHHaBAhs2nBKYDyBxHY5gLHGp31s9N1bSEImro7oOU1yaRLa3JBPldZ9VyUJqwCIpgAEQYQDyLICk/zBxHOmmsrKIa1nqZrC0HQlCkBEUSTLuma/WSzWrhIqYAIl0pV97ChTb6uBRFCw2dwMFbl2gYXw/bP+Khc2zpABAiChndB5Z5k2iW7WX2u3PVdmEZHViuBCB5hQ3nzCQJEuFQphrRsj1gDRDhrrm1IKezA6w+UZdeWHUcOEAGCoMIARJBNu2wyi1TLd2Easw6I8Jhf4IybBREeLfe8W7ZT3ryoACKcNdc2oLNt10vu19ZvOixABAiCBiCCZNDYA8xmtR1Z7b8wpa0DIjxWastCiAERbNOCX8P2aNfcJSUQIaCzbdjddjbj2tbju7YQBE3bHZDLZvUeJhdku1ktW6T0QARZANEgwoVK3bdhe8wKIMLSWmBn29Aq1/ZhgAgQBBWIzeqAiZfsZrVggbJWAxF8AufxSZOve3FpTVJ2ap37tbVt3bLuNvm1ZSbFAkSAIKi/eD5Q7oWiusmZEQ5EqJe7oQuUtR34lvd7tRCBT9hQZkEEUdmpBSIUAvdBc20DO/ms1x8su1/bhx19XufaQhA0lQE0ODUfOvHyAWazul5uBS1QuwtVW+P9+oTNiJ/oe+MJBkS4WO4FlZ3uVP1ogAgPltuhnXz9Q6bMtT1vrq1j2DAGiABB0M5mdRiqm+C63Gb1+XLN51cx4Z5KAD1RaruGDenHORDBvG5g0WkSQBogws4IBY++trTXzzHX1o4jdw8bygARIAgagAg+qO5Zj81qv1/FE7b7GLkHkAkQ57AhzYEIS/XQotPBeaT8QYT60lpAX9uIyff6iLm2wnHkABEgCOpvVgtwXW6zevCoRrRI2ZaB3BflJ0pV/9AZNfm6FkQQFp6qXNuH8m+lSEAEwXXVGkcOQdBU3gXZU/PhtBS3Wb3+SLkjWajUQARhALEggjCAVECEc+baCgJo/RwDIpwvd93DhjJABAiCCntsVjuZ26xeaob9Oh5aB0QIDZ8n+2ZBhMeWep6P3Uarfh5XABHOmWsbWInUdwaI4Bw2pAEiQBCU2qwOHKW9/lAGiBD063hoPRDBMWxoMyBC1sgHl665xxRAhJ1WisD6nPU6fW2l48g3HwWIAEFQYXBqXjhKm1mkVgN/HQ+tBiI4hw0ZQDSIcGmp7ltwOmYdEEHYSsFdW8kocmuACBAETZ6af8gf3eVOt0t+JVurgQhPhgTPrsnXfXxpTVp4qnJthdU5HIggGkX+KEAECIJ2Fs+Hyj3BqGV2s9osQh3RL+VHlEAEYQCxIIIwgFRAhLq5toLqHPsolfw7Plruho4i17q2EARNYwBZECF81DJ7at6OnBb+UtYBESQB9NTS9Y3LGSCCoGtOBUSom2srqM6xMAn5Xi+UW6JpsBcAIkAQVMjYrHbHdTvMr+Sa12OZSeuACE+W2q5hQ/oyAyJwIx9cu+Y0QASqucDjkLDF6em7W8E4cjsH6QJABAiCCoPNasGo5czNasmvZLtZfUkBRHiy1HAOG9IMiPD4Uj20Z25gHRBBVp0ju7YZ85EAIkAQ1N+sFoxatmZBBGEAqYAIl0tVv8CZNPm6FkQI7ZnLaFoQX1thKwUFDCQggs/ocWpW0iWACBAEFYhT857EFAsiPFru+D6eGbUSiCAMIBZECO6Z28HCFUCE8+baBtfmJOd2aBDhQrkbMgV26AsAESAIKjCb1V7OABECHs+kFjAdEEESQJczQIQnlnqiqp8nFUCE8+baBtfm2ADKABHCpsDuFLcCRIAgaAAiCAJo/eEMEMHn8czkYqYDIjxVaruGDW0GRHBpWsgKoKeUQITw2hxrGkSw48gDJsDuePPiEkAECII8T80zJBW5SNnNasljmotKIIIJEPewIfx0Bojg2S835vxBhEeW1qSHgsn3eslc25AJsKmRFQARIAjiT817TDLlTreHP6bpL2h23EHui7IFES77hs6oyde1IIJ3v9zeTQvSaxtamZPVXJCACB5hs18t4BAETeNd0MPlnmSSKXdq3gRJR/Koxg58y/u9bjZKh3zChrJ9jYlF2YIIwqYFDRDBlrsGVeYMzIIIF5e6omF8l/K/thAETWMA2c1q0SRTBkS4tNQMflSTLGolHRDBI2wosyDCk0s9UdWPAohgx1sEVeYMA4gBER5baonmID0GEAGCoMLkZrX3EDlms3rzYrnmuzcwtkjpgAhPl9qh4ZO4wYAIrk0LzGFYDRBB1FzQNw0i7LSAh4WPbX8AiABBUH+zWnpokV6k7Ga1797AqFVABBMgogDiQIQnzaIcWvPTtw6IIDqPlXFtAwbwpd1rAESAoBtevqfmmXHLq8wvZdHIajUQIejOZ9fk6z5lFvvgmh++aUF0be3elOQ81gW6uSABEQIG8Gm3gEMQNI13QcypeY9plzSI8NhSRxhC9bzfawIieIQNZRJEaJjFXti0oAIiPFruBZzDGto+SiX/jo8tdWVjKAAiQBDUD6C2bNxyBogQsEewayUQwSNsKG80GBDhqaWeqOpHA0S4aK5twDmsYQBdygARQoJntycPIAIEQYPNatmhRR5ECNwjGFgHRGiU2iHBs2sGRHBtWmAOwm5eVgARnJsLWFKRBxEC5h/tzkECiABBUCHw1PzYngK9SKU2qwMf1aiBCLIA4kGEoIqfgTVAhIvm2vqewRqDRthrGzD/KF3aChABgqC9T827jVteZR7ViEZW25aB3BflRqkaFDy/sC4lJl/XggghFT+Xs5sWRNfWgggeYePaXGDDI2D2kXoLOARBU/kYbnBqPvTMyCN0zX4CIoQGUH8Rq+f9XhMQwSNsKLMgQkC9z+ielAKIcHGpJ8HhWRDh8aWu7+yjET8OEAGCoMKgZl9yaNH878lF6rGlpufm9NgvaCUQwSNsKLMgwmWz2HvW+4xU/VxWABEuldoSGpEFEZ5YaklawO3/Ht88CILCTs2nqCo7qIz+lVyu+WxOE9YBEX5hFmXP0BkzDSIImxY2GwoggrC5wN7Fkq/r0wJOlLRuPgUQAYKgwmCEgucp+XFTNfvJZnXABnXaKiCCCRBhALWZO6C6rGlBCUQQNheQ7/VJc23Dxk8MDRABgqD+6XbfU/Lj50mY0+1BG9Qpq4EIoeHzTN/065rFXtCywDUtiK6tBREUmgsSECFw/IRmCzgEQVMo+xhNMkTOnjlhAqgj2ivQAhE8woYyCyIIWhb6VgARHlvqSWhE+yiV/Ds+tdQVjqKo45sHQVAfRAgaIjekq2gQ4YmlpmyzWglE8AgbyhvPMiDC02axfzr8nNFmQwFEeKzUljQXWJiEfF0LIghawI0BIkAQ5Hpqnj9HYgeVkQH0ZLkm2ay2s3ZU3u+zZlH2CZ1nJ0yDCMKmBTUQQdBcYO9iydcVtoADRIAgaLBI2REKoQPkBiMUKBAhj81qLRDBPWwo0yBCwyzKkqaFX5TyBxHs2PAQEjF1jegAMtdW2AIOEAGCoD6IIDoxz9fsSzerbctA7ovys6WqR9iQJl/XgggB7Qpp535tLYggaS1gmgsSECHCFnAIgqZQ9jFa6In5rBEKJkQ6sW1WJyDCs7IAYkGEgHaFETcWc1+U7Zmq4NaCJ/i27gRECAme3QO7dXzzIAjq1+xLZvg8xoAITy01RQH0lBKIIAwgFkRomMVecM5os7GYP4jwRKktgUEsTEK+7lPmM+PR+k0YIAIEQfJT83ZQGRlAFkTwJ6TS1gMRfIPnuZQ5EEHYtLD5i1L+IEJIc8HoteFBBJ/W77Gaos2nASJAEFQYG6EQeGqe2lSe2KwO2LS2j7YUAqjhHDa0eRBBdtBVB0QQgCDWdACZayspYH0aIAIEQYUBiKBwan7wqEa0Wa0GIriHzYQ3n8sAEYQHXXO/thZEELUWZIAIggJWrRZwCIKmUPYxmmiODwciPLXUkdFSCiDC86VDPmFD+nkGRBAedL3ynAKI8ORST7IXx4IIT5vPjKQDDyACBEHJImVBBEkAPZ4BIghGVtumaZX36xM2lDkQ4ZlST3DI1byuAojwZKkd2Fiwc3CUBhEum89M0J3P0AARIAhyPDWfcaDRDiojA8iCCJKR1Zd1QAQTIu1N39D55YhpEIFrWnBFvJ9VABGymgvcfhR0mACq+5aujrU/AESAIGgAIvhXtYyYBRGEI6s1QASz0Dc8woYyDSI8YxZlCeb9nAKIYMeGPynbiyPfa8NcW+/S1VEDRIAgqL+pLJzhw51ul46stpv7CgFU9Qgb0uRi/5xZ7J/Nv2lBdm0rRY3mguQzI6kfagBEgCBoZ1F+fKkrmeHDjVBIQAQJMXVZB0QIDZ6hORAh/O5nYAUQ4amlXtAe3MDc2HD7GM2/9y7VDtEAiABBUCE5tNiSjVBgQITGUlM2MVQHRMghgKrk3/HZUs/rYOs4DPFLBRDhqVI7cA+uH0BMW7cFCUJ673a9CBABgqDAU/OjtS00iGB+PQtHVuuACL8stQODp+8XMkAEv4OtYwGkACJYYMBz781lbPhIC7hP791u+wNABAiCHEco7HGKngQRxjerA8gpFRDhl6WGc9hQfoEBEZ4zi7LsnJEOiBDQVpA2HUCLq5L6IWuACBAE9TeVBZUt3Kn5ZKESjatWAhGeL1Wdw4YxudhbEEF4zij/a7vH2PDA5oLkMxNePdS3Qgs4BEFTKPsYTWOEgn2EIySm6goBdMgrcF4gzIAIwjNGOiDCztjwwMOj3Nhw+xgttHqob4AIEAQVkiFyLVEAZYEIogBSAhF8woYOoCr5us+VeoIzRjogwtOldugj0Kyx4RYk8K4eGoEyACJAEFTY49S8w2l6O6iMDqByLWxU9XBjWwdEeKHUdg4b2g0mgNqSM0ZqIELgI9CBaRDBHr71rBwaa38AiABBUMYIBY/qFhZECBxVvbtZrQAimAARBhALIggx7/xBBJ+x4YzJ92pBBM/KoXEDRIAgqL+pHDC3Z69T8/2FKnBU9cBqIIIsgMhFeeu5pTXpOaP8ry0zNtzr4Ojk3lTymRG2P2jseUEQNIWyj9E0RiiYBawjQna1QASfwHmRMAEiXHuxUgw6W5SyCohgx4YL7kK5seH2MZpoyuxzABEgCCoktS0t0QiFywyI8ItSUxRAzyqBCD5hQ7tKvu4vSz3vs0Vpa4AIjVJbeHCUBhGeXWzJpswCRIAgqDAAEQQjFDYvcyDCYi3onMiu9UCEF70CZ9QvMSCCbVrwPVs0GoD5gwiSseF98yCCZ/PDGBkIEAGCIMEIhafTIxQoECHj1LwjvqsCIpgAEQXQiwyI8PxS3ftc0ah1QATJoVFmbLh9XBg0WTZlgAgQBPU3lQXjE7hT88lC5TumeuxRjm0ZyD2AXixVhQFEgwgvLK15nytyABxk15YYG+77Q4ADEUImyyofvoUgaAplH6MFj0/IGKFgFrBO6HmRxM8ogQj+j91G/QoDIggJuysvKoAIvyj1wg+N8mPD7WM0yZA/gAgQBPUXqctLLVFvWBaI8IwI2dUBEXzChjIHIrxQ6slCSAFE4MaGPyMbG25BAsmQvyvPA0SAIKjAnJr36g1jQATz61l4ZkQHRHhxACK8FOwGE0BtEeKtASLsNBfkPDY8h8O3ABEgCPIYoZBxpoQEEexmtXBiqBqI8JIogHgQQYJ4v6QAIiiNDbfXNni20sAAESAI6m8qy3rDeBDB+5DiqNVABFkA8SCCAuAgu7aeY8Ppczur1GcmeLaS4uFbCIKmUPYxmsYIBfsIRzIxVGOz2kIE3qHz8pg5EEEYQCogAjc23HlqawaI8Mvws0/2jhHfPAiC7KHFVnD4JKfs6U1l2/QsnBiqAyL4hM3LZABVmdftCQ65mtdWAhEk14Bp67YggeTs05UXACJAEFQYnJr3LascrW2hQQTz61k4MVQHRHip1HYOm8nwsUHRYB7vtYPQ7l3nDyIwY8M9zu/QIEL68G0Y+QcQAYIgZoSCZ38YByJIpoVa20dbuQfQy6WGc9i8skiZBhFeNItyCNq9axUQQfL359q67eNC6dkngAgQBPVBBFlvGHlqPlnsRdNCS9e3NECEV0pVj7AhTb3u1stmsVcAHCS6xo0N9zm3w4EIvqGzD3teEARNoexjNFEAMc0FZrHrSM6MqIEIHmFDmwERhAGksSgnY8NF53YYEOGFUlfSMG7vGPHNgyCoYEECUYP1szyIIDy0qAMiyAOoSr6uBRFElF3+IELS1h369+/v89AgwguLLc9xFqMB9BJABAiCChn1/Y49YpvP8CCCcPHTARFeWWyLAuhVBkTYARxCKTslECF0WN7ANIhA7Xn5GSACBEGDEQqC9mprFkSQLX5KIMJiwyNsKPMggg/SPbIPlfzzcgcRyLHhnmd36Pdqrq2w3LXXBIgAQTe8EhBB0l79LH+6PXjxGyyAtmUg/zugUtUjbEiTi70FEdzDxhlwkCjZm/IdkufQ1p2ACMJyV4AIEAT1F+VnSl1RdxgHIjxf6kgWQI1T8wmI8Kpf4EyYAxE8wobylVcVQITnSz3PIXlObd32MZqk3BUgAgRB/Ucqzy62ZOWVDIjwfKkZMCU0bR0QQR5AVTrcFnvC/aX8QQSftm6aaqNBhJcWWyLqDyACBEHJYmLr+wXllVzNfgIiyA4t6oAIry62hSHUYAJIBji8spA/iMC1dbue3XkpA0SQdesBRIAgaI8RCo59YiSIkMOpeRUQwQSIc9i8RpoGEV5erAfc9aSdP4hg27rD5hRltnUn11bYrQcQAYKgPojg2Vo9fsKeBRGEp+bVQAT3sCFNLvYvL6wFUHV7Ag4STYwNz6mt24aHN/U31jqhsecFQdAUyj5G82ysHgsgBkR4odSJ7dR8AiK85hc4E+ZAhACqLm0VEEHS1v1iBojwcqkb0Ke3G0DmjhHfPAiC7GO4lmdj9Wh1zvMMiPBiqSk5NW+bplUCVxpArzMgwquLPeH+Uv4ggmtbN49SN5lHjq2QPr1hAL0CEAGCoMLg1HxAY3LKNIhgfj2Lfn2/pAQivLbYFgUQByJIAYfXFECEvZoLAtu6g/a8RqELgAgQBI2NUAis0GFBBFkA6YEIXnc8Y/4VAyK8ahZlr8CZsA6IEDYmIrOt2z4uFEIXABEgCBqcbpeVh/IgQmBdy45ty0DuAfR6qeocNozJxf61hTVPos4JcJBIq607ARGE0AVABAiC+ovyL0tdQXko21xgH+FIBrapggivB/hXAzcZEOFV2f6SGogQfmaHbeu2j9GE0EUd3zwIggoWJJCUh7IgwkulpvAXuA6I4BM2lDkQ4bXFngxwUAARstq63RBqGkR4xXxmBHteABEgCOovJuP1/Z7NyXZQGbn4mV/PwgDSARF+tdh2DhvKTQZEkAAOyb+LEojwkndDd9o0iCDe8wKIAEFQYQAiCJqTrVkQQVbbogMimADxDp1R8yBCCNiwYw0QIautWzCOPAERhHteABEgCOqDCKLmZL5mX1rbogYiyAKIBxECwYYswEGiYVu3AJum9qYSECHCPS8IgqZQ9jGapLstE0TwHdaWOuCocWreQgSiAGoyIELTLPYhUEPKV5oKIIKkrTvjkKx9jCYMoDq+eRAEFa68sNgSVPezNfsJiODRE0ZYB0TwChvKDIjwulnsfaGGEcBBAURwbev2PCR75TXzmRGcqbryOkAECIIKHvX9/HkeHkTw6AkjrAciOIcN6Ybz63rdXSmACFRzgR+1xoMIojNVABEgCCowIxQ82wtIECHk1PyY1UCEpnfopE2DCK+bRVm2v6QAImQckhWMI0+u7WuyR44AESAI6oMIL4rKQ3kQQTYt9Lrd3M8/gEpVYQDRIELTLPaivSUlECG4o44HBhIQIeQclfKeFwRBUyj7GE0WQAyI8MpiR7IHobFZnYAIkgD6dQaIINpbUgIRXNq6Aw7J2sdokjs+e8eIbx4EQQULEkj621gQ4ZWFpnAPQgdE8AkbyhyI8Cuz2IfvLVnnDyKMt3V7U2sMiPC6+czIAgggAgRBGfX97gdJu8ziVxPuQeiACE2zKLuGDe2G8+t6WQFEcD0ky7vDBFA95DFj6r0CRIAgKLC5YMzUpnLmqXlH20dbuQeQCRDPwBk3DSI0zaIs21/KH0SgDsl6otPMe10NecyYNkAECIL6m8oK9f2Du6DgDXBrNRBBFkA8iBC6r5TxuhIle1OhFUE753Y4EOFXMpgDIAIEQf1F+aVSN7y63wTQywyI8OpiJ3gD/DVFEEESQG9kgAih+0oDq4AI6bbuEHSaAxGaC11hANXxzYMgqA8ihFb3JwHEgAivLTTDN8AT64AIPmFD+U0GRGiaxT5sX2kAOCiACOMt4L7oNLM3ZQKkFXqnl4TtrwEiQBBUGIAIL0vq++lNZfvrWbgJrgMi/Nosyq5hQ5kBEeyiKrm70liUE2AgdARFxiHZzD0vp/cLEAGCoMIARBDW97MggmxYmx6I8IZn6CR3PkPzIIJofyn/RVl0SDajBTwBEZqyvTSACBAE9TeVFer7+4/hwkord6wCIrxZqnqEDWl2UfbdTxpz3ouy8yHZDJKN2ptKPjNCmAMgAgRB/UX5lYWuKICYEQr2LIlkXo7GqfkERPAIG9IEiJC5KDveZamACOOHZP2xaRpEMHdskrC98kb+1xaCoGl8DPfKYitgZsxudc4rDIjw+kJTUlzJTSKV3wUFBs/QDIhgF+XwR3sqi/KwrTvnQ7Lsnpdr2AJEgCAoWUyo+n6fCp3XMkAEyaycXymBCG+aRVkWQjyIIHi0d+VNBRBB6ZBs8rqBQds3QAQIggqpEQqC5gIWRBBugquACCZAgoLnN0PTIMIbqUU5KNiUQAQBMs0dkk32vAKDdscAESAI6u9fCKtzWBBBGEB2Ac0/gEpVj7AhTS7KvzGLsvDxngqIIEKmM0CEN2Tv1f698O2DIMgeHO1KqnO45gJ7lkQyK0fj1HwCIniEDenfMiDCm/EtyskhWQm1xoEI5o5N+F7r+OZBENQHESTVOa8xIEJzoSmZlcNNIhUvyh5hs5V4YcRm8a2KF2Xin6WxKJOHb/3OKNEgwpvmMyN7rwARIAga1PeLqnMyQATZrBwdEOE3ZlF2DBvKLIjALcqOYaexKHsdkqX3dWgQ4Q3zuoL3uvUWQAQIggo5NBe8xoAIO6fmBdYCEVzDZsJvLVy/+tYCDyIEPNJLvbYOiCBAptnDt3bPK+Q9pgwQAYKg/v6FoDaHq+/vP4aTBZAOiLBQdQ0bzqGL8l7/TBUQIRiX5vemks9M4HvcMUAECIL6i7IFEQQzZLjmAnuWRIIBq4AIvy0d8gkbyiyIELAQp/8dVECENxZ7obj0wDSIYO7YfN7bhAEiQBCU/Hp/bbEVVJsz2N8xAcSDCAIMmJtEKn409ZZ/6IwG0EKVed2u6O5KA0QQH76lQQTzPlq+d44j/u0CQAQIgsbq+4NmyDAgQnOxJiyvVAER7D6OKIDeokEEclF+62AXZRYYcCfYOvR7XawLgxwgAgRBAxAhrDJnaBZEELYnq4AIJkCCF87fLly/+jsaRIhxUTYhuBaKS+91+FZ6JwkQAYKg/v6FsLmAa3QOHoE9sF1Acw+g3y5UXcOG87QsygmIEIpLZwAD9t/TN7jHDRABgqD+ovyrhW5wAGU0F5hA6QSNwFas709ABI+wocyBCKF3VZqLsgmTnoTQu/rWPAkiJHtensE96vyvLQRB0/gY7vXFVsjgslR1Dg0i/HqhGTQC+43sSaTiR1OegbP1u1FnggiBd1Vai/L44dsAeq3J/A1boX+/gQEiQBA0ABHCBpftzI+hQYQ3F2uScyjGOiDC7xbanovlaAD9jgER7KIceFeltSgne1OCc09bb83TIIIJy9C/38AAESAIyqe5gAURZOdQdEAEEyCei+WIWRCBW5TdF2kVEEFy7ok9fPv24mro32/HABEgCOqDCMIAYkEEYVO0GoggXDzJRdmCCOF3BCqL8rW3i0UpHMGCCMK/oQ0xfPsgCLIHR7sazQX2LImovv8N+nVlAVQ6JF08WRAhwkXZhEhPAkewIIK5Y3N+b29Tzv/aQhA0nY/hWqIBZr9mQIQ3F5qBE0gzJ5GKF+WQgEgtnptvL1TFizJlBRBhz8O3ez82bDLvteUeNoTfAYgAQVDBs76fnh/DgwiBE0gH1gMRvH+xpwLoHQZE4BZl13/WO0oggi8cMfLvyIAI5g7GOWxoA0SAICif5gISRNgZWS0YBnetWSzm/hjOggi+v9hTvvp2BoggCDaNRdn8c9cCoYjsPS8LIkgC6J2F670WQAQIuuGVgAiBjQXDg6MciOA5eZRw/iDC2wtV4a/3vemwwNdVARECoYisvalkz8sjbCgDRIAgqL8o/3qhKxlixgEDCYjgMXl0AhnWaIq2IIIwgMSLssfr5nAX1JPsTV39HQMimDs217AhDRABgqDk1/uvF1sBbQW7xNqbNIhgT9NLDkNyk0jFi/I7ZlEOeGy046vveCzKXs5/Ud5zz2vvx4RN5m/Y8gqcd8b/hjrXFoKgaQsgcwcT0FaQnh9D7l9YjFd4GFIHRHjbLMoBj41S5hflwFAbOH8Qgdubcv53pEEEG8KSANr6vc61hSBo2gJop7lAcG6HAxGkhyHtPkbui3Ka4gpaQAPoMLfX1gERtPa83MOGtMa1hSBoypSACMLmAq7RWRpAdgHNfVH+vVmUJb/e39mDDhO8bt50WAIiCIk1bm/KJ2wm/IfkP9fw7YMgyB4c7QZOz0x8hQEGbKmlZH6MxgHNZFEWBhAJIpjw0HhdceC67nmx+zXMnpe5E3QOG8q/z//aQhA0jY/h3lxshU7PHAQQDyII5sdwBaC5LMphexeJ+UV5oSvYF1FZlMk9L79/N27Pq+kcNoSv/gEgAgRBhQGI4D09czENGPAggmwOjw6I8I5ZlAP3LhK/I6TD+NfOH0Swe1OiO7MMEOEPfqEzZoAIEAQNmguEB0dZEEF4Gl8NRAjZuxg6A0QI3RfpO38QQbLnNfj3Ij8zfzTXVhJAfwSIAEFQYQAi+LUUTKDVLIggPI2vBiL83nPTfMzkomxBBOHrqoAIsrsyHkTwCBvS7wJEgCCoMBgtHTxBk28usKWWsTVFJ4uy76b5mO0dwESQWxBB4XXF13Z8z8szIK/+kdnz+oO5tq5hQzr/awtB0DQG0G8WWpIJmnY0Nf1YaqEZHD4ZBaA53AX1JI+Q2EX59ybIJY+mNECEPyy0g2m1vpvMHVDTL3BGffWPABEgCCqM1feHmQYRfjdfE1TB2F/sOiCCXZRlm+jcotwSvm7+IIIJtVBarW8GRDAhLAmgrXcBIkAQVBA2Fwz2eUgQId0UHdgYrQIi2EVZFBQMiCB53f6irAMiyEKRBxHcw4b0tRZABAi64ZU0OgcfGO2bBRGEdTBqIIJvOIyZXZQlG/N/VAIRQgNxYG5vyidsGANEgCBoACIEHBgdUm4MMJCcmo+sKTpzUXb8Vc+CCKKNeSUQ4Q977HntuV/D7Hm9a67tu96hs2uACBAEJYvJbxdaAYdF0+ZBBEFTtFZ9f7IoizbRuUXZBLlkb0RhUR7Z8wrbr2ky77UZHD7vmb/hn24GiABB0KC+P+CwaMo8iCBritYBEf5oFmXZJjoPIkheVwNEMKEmC0UGRHjPXFvHsNl6b54yQAQIghhgwNMsiCBsilYBEZQW5eDX3V2w8wcR3l1YE/z7JCY/M3bPyz1sJv2neYAIEAQNQARJAL3tWd/vVwuTP4iguSgHUmE7VgERBP8+1iyI4BE2pFsAESAIKiRDzLqiczsMMJCACII+Mo0DmlqLcgIihFNhmYu97I5vsOcVuGdjH7fRQW6urWvYUH5vvo5vHgRBNoBaonM7zGjppL5f0EemVd+vtyibII+MDrv67kJb9O/E7Xm9N9/0CpwxA0SAIKi/mGSNlnYzDSLY+n5JA7VSfb/aovyuCXLZ6+qACF6U2thdzbsZIEJoALUSA0SAICgFDAhM7V94NUUzZ1XUQARRUGSACJ5I8tiCrwMiuIYNY/Iz0zLX1j1sSANEgCCoDyIIzuxkjZaWtET3izqVQISA8yt7LsoUHeZJieUOIphF3idsqBCxYUP+HT3ChjZABAiCksdwC13BmR0eRKDq+w+4KXq4KAvCggURfJHk99wWe9G1fW++50Woje/XcHteLXNtWyHBM3Qd3zwIgtxHS/OmQQRb3y8ZgaAFIry70AsKi4HZRfm9+W4QlqxIh9kNfwkwYIEDJoCaweHzvvkbvg8QAYKgAjNa2s80iGDr+wWFmJZY03i/yaIsOcvCLcrvzbeCsOTd180fRDChJgqgFgMitMy1dQwbxgARIAgaAANBZ3V2TYIIezVFOxwEVQER7KIseCxl3FFZ7P+kACK0FtY8CbUJk58ZCyK4hw1pgAgQBPX3LwLO6qTNggiSQsw/6tT3JyCCLChkdFiGVUAET0Jt3CyI8L5/6IwYIAI047r2aXH16qfF2taf55tX/3xzZ+svRXzmycXknYWu5zkdJ2DA9qfF1hTNLsoephblJMjDzsXsudjL7oLmuxrAgAmRTnD4fJC4jm8eNKthc/XTm6+Pe+tTfObpRer3Cy3fczouo6WT+v7wu5/r9uCoyvv903xPdJq/xYAIfzKLfcC5GE06zLxmSwIMGLeYAGp6hM2Er34IEAGa3bBhjM88HUCLde9zOqPmQQTBCGdLrGm8Xy86jF6ceRDhT6K7jfxBBBNqQmCAvrYWRHAMmwl/mBggAjTLYUMZn3lKzqOlM8yCCLIRziqb1Sww4B4UHdFizzt3ECEPYIC8tvZ13cOGNEAEaIbDhvS1/8ZnfkLkaGlPbJqt75d1pOmACJYOkwWFOx3m+cgrbxAhubZCYIAFETzChvRHABGg2Q2bof+ya4AI3KL8h4WuDJterNMBNN+JrSk6ARGEAcSCCH77K86Lvejavj/fFcACLDBg/vuOd+ikDRABmuGwoQwQgQ+glgibzgIRBN1rWvX9tpVZEkAsiEBRZ154sgKI8P58KxQWSMyBCB/ON4PD5yPzN/wIm7LQ7IYNY3zmycVEOrKaGS2d1PfLijp1QITWze0AIiztZvBin20dEMEXFhgNDPrafmiurWPYMMamLDTLYUMZn3lKTqOl9yDYWBBBWNSpAiJkAQNuQdFxWuz9rQMiBIICOyav7Ufmdd3DZsRXBwaIAM1w2Ez6s5uvX2vjMz+hidHSAWOrWRAhpHNthE5TBBEEYcEu9rL9Fh0QQQILGNuwIf+OHmFDGSACNMthQxkgArco29HSgbh0FjCQgAiCos7N1nwj9w+5BREU6DAn6myPx18qIMKH810NYMAETMc1bEb8cd/mf1PHNw9hM6thQwbQZ/jMcwGkMlraNkiLmge0QIT353uSAGJBhDR19oGnlegw87otX0hgzPS1/dgsHI5hQxubsgib2Q2bq38ljc88uZhIRlZnjJbebC1UhWMBrmu8XzuXJvQx2YAO40EE2SHN/EEEE2oBkMCuP2ZAhI/na+5hQxqbsgibWQ4byvjMk/sXWaOlJ8PGebT0Zqt4SDoWwL5G/vtAGcCA2x1Lh13sZYc08wcRdoABT0ggberaXjOvGxA6I8bpcITNDIcNaYAIhIajpR3DhoIJ2FPzwrEA9i4q/wBaWAt6TJYKlMzFXmAVECEAEkj7GgMiBIfPJ31v/T+ACAib2Q0bylttgAgFZr+mGzwtNGO0tPe5m4kAUgIRhH1mFB2WLPbCAOKoM9G1/Xi+6wsJpM0BA+b/r+MaNgN3jVv28d01hfcJIWxiCpuh27veagNE4AKoJZgWyo6WtgEiax5QAhE+mO9JEGV7GJN83VDqbPfOJPcPqAmWlj8kMBIiPIiwR9hsfTJft2GT950dhLCJPWwYA0RgAkhltHQCIoTNo8k8dyNelD80d2ayu5UmE0AtQUMAS52Jrq0JNeF+DQ8iIGwQNggbHwNEIPcvpKOlWxkgQtg8mqFVQIQsOsztfEzH6XU/8jO32IsWHikw8Al9be1/h7CJU5t/Lh669udi9er/zDdM2LQRNgcSNqQBIhDyGi3t0RSdLMqB82h2A2ihmv9dwcKaKIA+ygARBMQZR51Jr60vIDB+Z4OgQdggbIT+W98AEbhFmRot7ff4jNy/8D53Mx5AHyiBCOGHMxOzIIKAOMuizkSPHC2I4Bg2eIyGsEHY5BM2lAEi8PtALeG8HBpEMAESHEAf2A1/JRDhw/leaKnm4HFZjV3sA+ppNGtqEvoMYYOwQdjsa9gwBojAPCpTGS2dgAghjQMpa7xfO5fGe48mXaj5MQ0isNTZRzLqTLoPhLBB2CBs9jtsipQBIpD7F76jpYkQYUGEsMaBoTc/UQARzJ1GaJvzwB3udQPraTKpMwhhg7CZurAhDRCBUOZoaUFTdLIoB7QNpL354UI1/wBaWAvZo0nfzXB3G9KaGtypIGwQNrMRNlf/PumtzwEicI/huqJxBRyIYM/dBA5F6weQDoggaQhI+swYEEGKPaMpAGGDsJmNsCED6O/FOr4xVAApjZZOQAQB9qwFIphw6QU3BHy8B4jgjz0PAQEEEMIGYTMbYTP05yMGiMDcAdVFowo+YECEDxeq0p40lQD62CwegrsVFkTod545hQ1oNIQNwmamw4YyQARKmaOlHfdwSBDhk+IhYUeaGogg3K+hQQQTKggbhA3CBmHDGSACByK8HzaiYK9GZ2FHmhqIIAUGyP2l/y4WETYIG4TNQQROfGFDGSACtyh/MN8NGVGQ6knjQYTQjrSPkgbq/EEEExQhs2zSdzYad2YQwgZhMzthM+Iv+t76AiACDyJ8INqvoUEEEyCSjjR7cFRnH2i+5wMI4M5mekIHYYOwiSFsGANEYO6A6kJggAcRBB1p3OMucQD9P7NIIWxmUggbhE0kYUMZIAIJIoSOlk4FCwciSM/daDzuuvbJQhVhM7MB1EHYIGwiCBvSABE4EEEIDHAggmgypz34+Un+IAI0w3fzf5lvImwQNjGEDWWACNwXNz1aOqCsk2t0lp67MW7g6swmIGAnduZ/B1SsIWwQNjGEzbUvCQNEYALoo/lWOCyQuMVs+DdkAYQq81kIG5pGU6Ac7RhqhA3CJoaw+bLY3f5HsWVDx3i118aj/qwAqgfBAns0Oif7LYH9aDvG1ZmFsCGtQzkibBA2CJvpUtLoHAgKZDU6JyBC4FhoAAIzFTaklQKog7BB2CBspkhJo3N4QedgsufCGvMYDmGDsCFtX1sFREDYIGwQNtMl50ZnNoAYEKF/7gZhc4OHDUWjXfusWM39c/xZsYawQdggbKZtH+hj88tRMNPGBg3+iggbL/RZC0RA2CBsEDZTdwdUC+hHG97ZoCMt4j2+/y4WI+1G0wEREDYIG4TNlC1S1Ghp7NnMxt3tX4prsXajqQTQX2/uIGwQNgibabsLQtjM7B1QrN1oKiDCZ/NNhA3CBprCuyCEzYz+uPj05l6M3WhqIALCBmEDQVAsATTfirMbTQFEaBdXETYIGwiC9hBFo9k9m9wfS306X4+0G00HREDYIGwgCMoOG8o2LHK/K8izJy3nczZKAdRB2CBsIAhh448+535XYL/wsXajbbYVQIT2fFMnbG5G2CBsIGhmwoayyvREEyjdGLvRrrUVQIR2sYawQdhAEMImwBrTE6/+Zb4VZzeaEoiAsEHYQBDCxh99VgERPpuvR9qNpgMiIGwQNhA0DbKHNbf+p7gWS12NGogQaTeaUgB1EDYIGwiKN3jsHY7PIc39axDQAREi7UZTARH+VmxGHzafI2wg6EYPoGi60VLWARH+enM3xm40NRABYYOwgaBYZfd5YupGSwMCKiDCZ/OtKLvR/q4EIiBsoJh+8P5vsbj1z+LatX8W69tfFRv4i0CFmLrR0lYDEeLsRtMBERA2UARhc+2rYtsETs/85/Ud2/8bf6VpuJADQGDrf/LfmB8EUDuebrRdQMCGhcpdQTTdaKOAgFIAdRA20EGHDev/zf8pB5RT2AxotBFAwJJc+QfQfCOibjTVnrQERIggbCirgAifF5sIGyiKsEk8N2L7OviLRho2tIu13P89PitWY+pGS1kHRGjf3D3osKFotGufK4AInxdrMYbN9pfFHsLmxgob0uZ18VeONmyIos6/zDfz/ndLQISIutHGamqK+QfQfCvSbrT8QQSzuMcQNuY/2zZszB3ZGh673KBhs+OvR9zGXz7SsGHcUbkriKgbLe2ttgKI0DbXJc5uNB0QAWEDxRE2E97+eg4gQsRhQ9JoKovUX82/ezTdaLu2YZH7NXPuSdv/BgGlAOogbBA2Bx02rPG5iTdsKKuACJ/NNyLqRlPtSUtAhEi70Tb/oQAifFlsImwQNlGEDeGtbwAi0BfTLPQHHTb0ozElECGibrSUdUCEvxW7MXajqYAIXxZrCBuETQxhM+JvBv4aIAL9y/Ev882IutFSTdEKIEK7eCimbrSxmpqiQgC1YuxGs3cruS9UFkRA2CBsYggb2gARyEXqU/PLMZ5utLR1QISIutHSgIAKiPD3Yj3SbjSVa4uwQdhEEjYT3v4WIAL7CC6mbrS0Nc5NJCBCLN1of0sHkBKIEGk3mtaihm80wuagw+bat4w7+Hwyd0HxdKOlrQIitOcbEXWjpQEBHRAh0m40+8gM3zyEzcyGDWGACHwAdWLpRhs5H6PTk1aNqRstZR0Q4fNiN8putC/zh0wghE0sYUMbIAK9V2BBhHi60Xb92Xwr7/eagAgRdaOlrQIifF5sRdqN1sQ3D2Ezu2FD+DuACPQi9VmxFlE3WtpdlfcbQdhQezN20zz3HxcWRIioG20HEMAjOITNTIfNbugMvf0dQAT6A2dBhIi60dJWARHaN7cPOmzIAPp7/rfoIz1pqKuBEDb7EjasASIwi3JE3WhpQMCSXLm/17/PNw46bBgaTQdEQNhACJv9DxvCWx2ACFwAdWLpRtuHnrRqBGFDWQdE+LLYRdggbBA2+xs2pAEiMHsFn803I+pGS1kJRDj4sKFrajRAhC+KLYQNwgZhs89hM/LobWiACOQiZUGEeLrR0tYBESIIG7KmRgNEMAGCsEHYIGz2PWwmvN0BiMA9llqNqRstbRUQ4W/F9kGHDUWj2bDI/dp+UVxF2CBs9j1svr6xw4Y3vm/0ohxRN1raOiBCsRFRN1raKiACwgZhg7A5iLCZNEAEPoA6sXSjqfekfV6sxtSNljJu0RE2CJsZCRvmDqiObwG1V2BBhHi60dLOH0T4R/FQTN1oI3s0bdylIGwQNjMRNt+TBohA3gG1i7WIutHS1gERYupGSwECGiAChLBB2BxI2Ex4+3uACPQXyIIIEXWjpfdkVECEz4vtiLrRdgGBf+Q/MRRC2CBs9j9sEv8w6c1O/mPpZ+QuKJ5utLRVQITPi41YutEACCBsEDazGTakf8SPTC6AOrF0o6UBAZWeNAsiIGwghA3CRjNsCG//cFMD3zYKRPjbfDOibrS0dUAEhA3CBmGDsFEMG/oOCCACDyLE042Wtg6IgLBB2CBsEDaaYTMaPEPjW8mBCBF1o6WtAiJ8UWwjbGb0s/xVsYqwQdjEEDaUN/8NEIFelCPqRhsp6vxCB0RA2MxsADURNgibGMKGNkAEelH+e7ETSzda2io9af8oVhE2M/o5/rpYQ9jcoGHzfWxhM+ntHwEiMCBCsRlRN1raLVwdyPnHxdfFVYQNwiaGsCH9L4AI3GOpWkTdaLv+UgdEgA5WvU7xP2xY6DyGQ9ggbKIIG9L49lNf2i+KqzF1o6WtASJA+x82lkbb/rrYuvZVsbvzmEzjn7f99VwHYYOwiSFstv8117N3Pdf+Vaxv/Vhcw1iG7LugKLrRJoi0L3R+KUP7GzakFe6Crn1zUxNhg7BB2EwjiHDQYUPQaLgDmpGwIWg0Cw2ogAgIG4QNwmbKQITPi839DpuB2yZ0GpZOA402u2FD+6amCoiAsEHYIGym7A7oy2JtP8PG1uLgr34jhc0kjWb3a1T2NBE2CBuEzRSCCAgbhM0+NwiogAjfzHUQNggbhM203QUhbBA2+94goAQiIGwQNqNu24Ogto0AlTjxBlAHYTOjd7jOgbO/DQIqIMK3xRrCBmGDsJm2RerLYhNhM5sa3PXE1432jRKIgLBB2EDTtw+EsJnRa5uMJYivG83u16i8X4QNwgaCoEgCiOtJi6CuRuWOz4II2mHzHcIGYQNBU65xQGD7q2JD558RaTeaBojw7U1NhA3CBoKgjLCh4AA7UE3lLuibuW6M3WgWGsj7vSYgAsIGYQNBCJsA9FmhFWL767lWnN1oCiBCx/zdETYIGwi6YcLmf/M7Z7P1z+Kawj5QPcZuNDUQAWGDsIEghE0A+vxPhWmw6Z60yOpqNK7Tdmeug7BB2EAQwsYffW6rvJdYu9E6CiBC56YmwgZhA0EIG0/0efvrOT0QIcJuNBUQoVOsIWwQNhAUteLqRktZA0T4dq4VZTeaFoiAsEHYQFDMiqkbLe2tbxRAhG+L9Ri70ba/UwIREDYIGwiKPIDa0XSjpQGBr5VAhIPuRmNoNJW72+/nOggbCILifQT3lfnCRtKNNmYdECGCsKGtACJ8f1MTYQNBkHzhtICARm3LV8VqTN1oO4DA9rdKIMJ3c90Yu9EsNJD3e736Q7GGsIEgyD9sCBrN/t95//M2vyoeiqobLe2OEogQZTeaEoiAsIEgyDdsGHdV7goi6kZLWw1EiLAbze7XqFxbhA0EQXmds7GvoxBA7Xi60dJWABH26kk7wLoajc/d9g9zHYQNBCFs8jlno7APtP21WRgi6UYbgwN0QIRYu9E0QIQfb2oibCAIYZPTOZv87wrso66YutFS52N0QITOXDfGbjQLDeT9XhMQAWEDQQibPM7Z2LECCo+lilF1o432pBVzv+PrzLWi7Eb7XgFE+Jf5vCJsIAhhk8s5m2/mVECE7W/merF0o6W91VEAETrFeozdaHa/RuWOD2EDQdOl5NR8TN1oKauACN/NtaPpRhvpSVMCESLtRlP5cWFBBIQNBE1ZCEXUjTZqhc3qkJ60/WkQ0AERYu1G+5fCtf33TU2EDQRNmba/Mr8cY+lG+0a3Jy0BESLqRtvxdkcJRPh+rhtjN5oGiGD30RA2EDR1d0Dml2M83WhDb3+jBCJE1Y020pNWzP3HxfdzrTi70fIHESAImkJd/bpYi6Ubbcw6IMJ3c71YutHSVgERfijWY+xG0wIRIAiatjsgCyLE1I2WshqIEE03WgoQ6CiBCLH0o41BAfjmQRA0CKF4utFGrAUiRNKNNmYdECGCsCFpNIVHjhAETaG2v57rxNONptuTZh91xdSNlirq1AERfpjrHnjYgEaDIIhdpL65qRlNN1oKELBjBRQeSxWj6kb7YaQnLfe7gu0f51oIGwiCotXVb4u1WLrRxqwDInTmerF0o6W99aMSiICwgSAo2jsgCyLE1I2WsgqI0JlrR9ONNmIFEMGlJw1hA0HQgYZQRN1oY0WdqwqP4eqxdKONQQE6IIJj2Gz/a66TNAogbCAI2k9tf2MWn1i60UYDKPe7ggREiKUbLQUIbP+oBCL8e67Lhc3VfxdrGtU4EARBHndA5pdvPN1o6ZoaHRDhgMOGtQqIcFMDYQNBULRKQIRIutHGrAMifD/XO/CwIawBIkAQBMV9B2RPzUfVjbZrFRDhx7l2XP1oAyuACBAEQfGHUETdaGNFnbk/NhL1pOke6mzjkwhB0A2n7e/mOtF0o6WtASL8WFyLqRstBQf08EmEIOjGuwOyIEI83WjpmhodECGCbjTQaBAEQYUBiKAZNp1g9FkHRPhxroewgSAIiuEOyIIIBx82pNVABIQNBEFQLCF08GHDFHXmvoh79aQhbCAIgnS13TGL6UGHzT71pCUgAsIGgiAoljugm5oHHzaTtmMF8n+vxSLCBoIgKBJd7ZjFNpJutDHrgAj/mushbCAIgqK4AyquRtWNlrIGiIDWZwiCoJhCKKJutNG9GdyZQBAEzbS2f5jrRNONhp40CIKgG+gO6PubmhF1o6WhgBauDgRB0Azr6g/FWizdaOOTOnF1IAiCZvkOyIII6EaDIAiCDiSEEDYQBEHQQSgBERA2EARB0P7fAdk9F4QNBEEQtM9KQASEDQRBELTvd0AmTBA2EARB0MGEEMIGgiDIWf8fRRkJUxkrOnYAAAAASUVORK5CYIKT0zmb/O8K7KOumLrRUudjdECEzlw3xm40Cw3k/V4TEAFhA0EImzzO2dixAgqPpYpRdaON9qQVc7/j68y1ouxG+14BRPiX+bwibCAIYZPLOZtv5lRAhO1v5nqxdKOlvdVRABE6xXqM3Wh2v0bljg9hA0HTpeTUfEzdaCmrgAjfzbWj6UYb6UlTAhEi7UZT+XFhQQSEDQRNWQhF1I02aoXN6pCetP1pENABEWLtRvuXwrX9901NhA0ETZm2vzK/HGPpRvtGtyctAREi6kbb8XZHCUT4fq4bYzeaBohg99EQNhA0dXdA5pdjPN1oQ29/owQiRNWNNtKTVsz9x8X3c604u9HyBxEgCJpCXf26WIulG23MOiDCd3O9WLrR0lYBEX4o1mPsRtMCESAImrY7IAsixNSNlrIaiBBNN1oKEOgogQix9KONQQH45kEQNAiheLrRRqwFIkTSjTZmHRAhgrAhaTSFR44QBE2htr+e68TTjabbk2YfdcXUjZYq6tQBEX6Y6x542IBGgyCIXaS+uakZTTdaChCwYwUUHksVo+pG+2GkJy33u4LtH+daCBsIgqLV1W+LtVi60casAyJ05nqxdKOlvfWjEoiAsIEgKNo7IAsixNSNlrIKiNCZa0fTjTZiBRDBpScNYQNB0IGGUETdaGNFnasKj+HqsXSjjUEBOiCCY9hs/2uukzQKIGwgCNpPbX9jFp9YutFGAyj3u4IERIilGy0FCGz/qAQi/Huuy4XN1X8XaxrVOBAEQR53QOaXbzzdaOmaGh0Q4YDDhrUKiHBTA2EDQVC0SkCESLrRxqwDInw/1zvwsCGsASJAEATFfQdkT81H1Y22axUQ4ce5dlz9aAMrgAgQBEHxh1BE3WhjRZ25PzYS9aTpHups45MIQdANp+3v5jrRdKOlrQEi/Fhci6kbLQUH9PBJhCDoxrsDsiBCPN1o6ZoaHRAhgm400GgQBEGFAYigGTadYPRZB0T4ca6HsIEgCIrhDsiCCAcfNqTVQASEDQRBUCwhdPBhwxR15r6Ie/WkIWwgCIJ0tQ==;fontStyle=1" vertex="1" parent="GMlkpqBU8Bx7z-MP60cb-11">
          <mxGeometry x="14.175824175824177" y="9.687912087912089" width="24.197668605903903" height="28.9693313222725" as="geometry" />
        </mxCell>
        <mxCell id="GMlkpqBU8Bx7z-MP60cb-12" value="&lt;b&gt;NODE 1&lt;/b&gt;" style="text;html=1;align=center;verticalAlign=middle;resizable=0;points=[];autosize=1;strokeColor=none;fillColor=none;" vertex="1" parent="1">
          <mxGeometry x="85" y="238" width="70" height="30" as="geometry" />
        </mxCell>
        <mxCell id="GMlkpqBU8Bx7z-MP60cb-13" value="Prometheus&#xa;exporter" style="shape=image;imageAspect=0;aspect=fixed;verticalLabelPosition=bottom;verticalAlign=top;image=data:image/png,iVBORw0KGgoAAAANSUhEUgAAAf4AAAIACAMAAABUwf7jAAAABGdBTUEAALGPC/xhBQAAAAFzUkdCAK7OHOkAAAMAUExURUdwTP8AANdLMf9/ANdOMdtNMdxLLtpOMdhOMdlNL98/P8xmM/9VVdpMLr8/P9pLMeVMM9pNMdpOLthOLtpIJNdLLtRVKtdLMddOMddMLtlOMdpINtdLMeJVONdOMddOJ9RVKtpOMddLLtpOLthNMdpLMddLMNpMMdhOMdlOMNRVKtBFLtpOMddOLt1MM9pNMNpNMd1VM9pRLddOMdpNMNxRLtlNMdhMM9lOL9hMMdpLLtlOMtpNMdtNMtpOMdxLMNpML9pNMtlMMdtNL99KNdpNMddOL9pLLtdOLdlNMd9PL9hNMNpNMdpLMdlOMdlOLtdNMdlML9hNMtpQM9lOM9pNMddML9lOMNdOMdhNMN1NLNlOMNpMMddLMdhOMddPM9pOMdlPMNlNMdtPMuFLLdlLMNpNMdpLMdlOMdlMMdpOMNlLL9lOL9pNMdlNMNlPMdhOL9pOL9pNMdtOMdZRM9lPL9pOMdlNMdlOL9pOMNpPMNhNLtlNMdhOMtpOMNlOMdpNMNlNMNhOLtlOMdpOMdpMLttMM9pOMdpML9hOLthOLtlNMttOL9pOL9hOMdpMMNlOL9pOMNhOMNpOL9hPMdlQMdpOMNdLMdpOMdpOMNlOL9pML9pNMdpNMNlOMNpOMdpNMNpOMNpMMNlNMdlNMN5KMdlNMdhOMNpMLtpOMdlPMtpNMNtOMNlMMNlOMNlOMdtPL9lNL9hNL9hMMNlOMdpOMNpPMdpOL9pOMdtPMNlOL9pNMNpOMNpNMtdPL9hNL9pNMdlOMdpOMNpOMNlOMdlOMdpNMNpOMdlNMNlOMNlOMdlLNNpOLtpOMdpIMNpNMNpOMNhOMdpNMdhML9pNMtpNMNlOMdlMMNhMMNpOMdlNMNtNMNtPNNpNLtpOMdpMMdpMMNpMMNpNMNlOMNpNMNhMM9lNMNhPMNpOL9ZQLthMM9pOMdpLMdlOMdtMMdpOMdhOMdtMMdlQL9ZQNdlMMdlNMNpNMdhNMdlNMdlNMdxQMtlOMNhOL9pOMdtNMdpOMUeprQUAAAD/dFJOUwAB/QL+JCyM1MwIBQP6BPkK7fv1B/wG6fjw7g7vCRoNDPT26y7y4rToiRIL5PEeY7UPHOquFqsUt0PlUdlWiyVGOMUrGJv37CekEJ5381jg47FCIzfP3I80shdeU866LXFKgEcRL5HfPpAqG6KhjmfH0YpOGTCmv+eTWiGBa3h8qLjGld7LMmGn4dtmQVu5P0vds5JXKW/VaFR1wVxpo8pFvciHeh9tzeagPZhVdER7QGCXSYJ+Tby2OmWErUwgO3aWw3/TqpSfX4iwIjGvFcKZcslQcIOcnTWFWU8d1tC70mp9qY08eWTXJiiG2NpdYsA5NhO+c5qlUmwzbqzESA7iNIcAACAASURBVHja7F15fE3XFr6SmEIkuQlBEpEQiUTEPNY8pTHEUHMQQw0xBU8NMcRMa4yp5qKqKCmKouanvFJq1qqf1/LrrO95bdV7bX/74UpyhzPsfc65d3/n3vP9vc6669vfPcNee+21TSYDBjwEJXqlD224PnHD9ZPTb1Qedurmxvv3N9481b3yjeknV21IXH9tZ3rtEsYouRciKo4bnTNqRLWr3cr4EFn4hHW7Wm3EqJzR4ypGGGOnYwSk95/a+M/tgUQxAovWafxV/5XhxljqCpf2pJ3bEkI0Q2xG27T6l4xxhUfwxfMP7sUSpyC2b+HeF4ONMcZE+NBpWXfNxMkwr85qt9PXGG0o1H7yYIsfcRn8MxpfM94FECiQfmTH64QDHp77dmUBY/x54vtV2YGEI9r0fKegoQKfed2xWcsIALpNWhpgqOFarLxyrzSBQevFaT8YmrjqE//OrhQChyH7xhkTAudP7K/NjySgaP/7HSMt4ESUOrgxgUCjzIilxQydnIFi+8+FER2gbNuBxqqhxvCu3yqQ6AYVHnc2MgLaYfjXKURnmJ1TztBNCxQfl12S6BAlOx0rbqinEsePNiC6RZUPthkKqvjae6+vD9E1vGakGjMBZSj3Y03iBgj5vKWhJTP6jfQnbgL/ti0MPZnQdDFxK9TbY2hK/co/P4a4HbquN5JBNEhuV4W4JTquDTXUlUHLUe2J2yK6cG1DYQnUbRxE3BqR/4gzVBbBoKPtidsjYUp1Q2kBhB4oQzwCZXPKG2rbIX5aIPEYVFgbYChuBd+0EB4ymLOPnFjCJa08cZVRF5SLAos68pAgNu3ZVo1sTk+ASl8Ywj/HfzJ4DH/Ujedv4MP8XgF/9TC0N5UbweXpW7SL5ecvc/wE8Dnn6YtBvtP51O0uL2X5/ROc80DTPPoT4L0hfApx9uYG0Ir3JGDZE48V/+I6PkNeumHewwcg1fBrRc9M85zy4jPerfMXXzsgZAFKTvLAJkJ3eK3reaXmB1ELIw1UaamHid+rDrexXmUVRggBwXyPWgpMLMttoJdbhZGJkwcOPO8x4nfZzG+Yr1oX3nYgQOib6RHiFz8ZxW+Mw45bh1IYaiEo6DcP2BZysQ/PIU61iWU+2ErgnFfdXHzvb/x4jm+WbTT30FaC/dp5u7P6Vf/Nt9Cil204fQgcfq3hvuqv4LxBP9EungV48pPANW4qfsQIziPb3D6iSgQRbcu7o/qPuLdhe2Qf0l1I+Um3V9xvujeA+yb9jxyC2oQpPzF/7WZTwMyZ/Me0iUNUEwgqTrtVY4CDAAurtxzDqgMrPynb330m+zcAmjR4JTkG9jmu/MTnjJt0h4qrhzCcnwpE1psgIybZHdQfPxtiMJsJhPYKtPykWz/9q987CmIoM4RiS8aWnwRN1rn4xWaBjGSiYHgPwfUng3XdGKrcTJBhjI4XjO8WuvzktI63AhyORRnFVsIB7oWXn7zbTLcrPDgnLhwWqTvCl59EpepT/Wk4LRmriM2h9dBGyGe3DsUv8RhoBD8Wi/Ix0QNO6W4JIGIG0vh1FgvzmC7kJzE6WwOuAdWZr43o3eOrk1ZSfXTVHn481jv1vnikn+hDflJJRxnA/WAdut4UD3WeTuQnCU31ov4RtOMXksRjTfbXi/7mefpQ/wpc5kQqWr08/Z9OAFfpQf0zcONWRyrcRkQ/eBtf/bF4o5YjFW94tBrXrV1bv/ojuPgFZgHeNEslQx6pwnNIZxdXsQ2GLgEqvgPxmSm9caa+csezMxNdzeUW8C6wYmcR1Q+UeWClKHW8rKrJ9d2J5sOeCuEbA/nBVFQm7AEK/aZUNdXgsKrVCbQXXPwhzO/lWjJxH1emYdhKk+kPHnz6BiCqH466aWKwXOSKmo34L3l6JZ8Dpzb74qlf6kPU2fJvcqFPVuL1yNMLAzjVs8TAVQAW/wg2WfKzXOzBCo4SOPfsws68KJ0FKwDwfhk3VyZfLDWM2ec/w59dd4Abpx1Y8//PgFOl+2WjT2d+8VsasXJ8381CUn8UcqZ8qHz8zRldTrNcNpEjq7E46t+AXii5LU/gPJvHLZbUW22utA6gqN8OWn1C0S0tnKnpUMnxlqt28uV1BUP9qdjqE5rjs5ezOOwOUik0GkH9NT7g8idRkCjE4C82QmW2WCt4jeOvfrPW4OqTCzQ0miu46bhPd4K4HwZ1oSa6+oSqRpq+08PqvJRLJ+7UJnJuART3E7z6hOrYdF/qFvP5T9zL/Lmt5nogcLDrR+AQ82SbrkBiMKW3OfmXdAX4b2/mmP4v8Jrr+fYw9RvLNE2LouPSgtLdwfxLIJpD7OAnP4/OWAOe/m71ygx9wWtSkqHrRLHd6oohCPKTM7zUT+TB1lK7M/4l6gt+omRDN4tvZHUFSEvgn/mo/5aZB1kfy4d8RDXaC5pT0glIoHA223qlFaQhuP/7PNRvwqlT55EXBQa0Bdo9aQnto3D2h/UFr4NMbcpecL368UU4ke2UW2JA2R++LS2jufK+Emw6RBUBkZ90DXe5/FncUl25z98SdMvtjakpbZf1NUnBx6IrMMLV6qfx45p34FnodzTm9AtjX8n6SrexrwcjP5nqWvWXmPlRrZ8XRRLN6e8dqEkNkqvcXGdrD1Tg5nfYleoP59mw70h+HDR9+YZq90LrbWv+ACiz3cCF7R9LZfBkutUqEord+QXpeTWV9hQdYGu+G2ll47LrNn+d4krUulNPS/n8bwBDvXIlpjkEVmuAYa5S/zxfnpuYSo1qsjA7KulqiZ01WD/4L1yj/njOBR4hNjes3LLbVRZqBaU8VbFfOqyLJX+QS5p/BfBe4i9rE47c9vwsJnKXJTx1d7AOxNK/iCv2/nEvcWpjYpl9b2Ui94aEp2aqtwc4Gx87X/073ElWsA3otrT1G0zsksWn/gscrXeByS/TxkYD/K0Cd44hdiFlS1p3ZuNXS9TRckfjDWjyh9R2cn3PYv4cY+1iOiFpzdgMN1XU0UJHY7yjoKq5bao/D++yvIITWKsXxRIJgQJ7qoP94fT/rzPVr4hwPkcD+6jW0CYJaNBKxNFGIeNNcPK3buE89X0hVrjH2IdVQqJ/OPNS6BKWpEp3OPnJGOd1fpoEQdCxfEeij+w3zF83wiVcXr8IGT/Bk18gPaER9qPObqt6iRqzn4RcWNBPhqBtXcD9jT5NnaN+aEcMfmsdQxOfjwxnpin8OT9F2Lgr4O2/oLwbrvPlY4VjaJMpU0RUSBFyJFI1ANjAWjBDoR4nUB50AucaxosdyXNIAVGhp39QKWHbzojyeznh5MfguyjshBI580VsHyhgKvT0nyFW+BKNqH8R7Tf+fYDCLVJoy+Yalumagqd/OzFbyCbW2vf9KeSHQm2d4K4DkRqELiZtnv6PxGwnQ8rvv1Jb9b0zYKgVFgywk2ZffkJP/yjRp2loaUj9/9K27eMqHGaNBAMcreUKiEPJ3wRx256Q8mtb+L8N6GC+TMEIv9TyHehwIs0NcdtFmPJH19BQfqD9LGKlm4LLEQoTYEsZcofxkZj699RO/VQgWmLPc6HmLGaF+a94f7s8apyEMWoz62uaLfQNAWI1QCTIcQK2W5QytqsgeEnK9i1Q+buV0kj+t5FYLRQJsrrAsk9lpYy32voZKTkpWgCq/0mNyvuQDmSOFP1PC6y+7FdK+aCtH+kSmjOg8kf30kR+qLP5shmKEUqGKqV8iTLp8xzDS4Lqf1ML9W9DrWmL34grHGybKydtM/M3hyutDuYLr7kayD8TitL3onFmOthOV076U2s/Y2SM64PKT06rVx8rqT1EIlKH7sIqGh5PsfYj2znx76j6N1KrfkBHKD67JEK1P0M0REXe26aIL03OOhFV/hS1u/4GYPFpKBGq/ZEyG1XQ/sHakexGoeCJqPpPV6f+l1FQbKLiJWK1X/NfoYJ3Ceu83y+y5tNQ5Y8crkr+VlhsJI/jbWJr21pVxaNVbVMDiirYMFT996kZhC5mLDKLJCv0bQv+Oqn631t9+vfVUy2UPfyOqxiEkVhc/KXzOH1sjHurkr9xviOafRODElD1v6V8DJLA8lkx0uH+bvO3T1Yl/5v5nr5lnikiwVxQ8RhkgVGZJx1ujrVtPXXfvFY93qg6JoYGour/stIh6Ae2hckcJx2vTdp3sjr5k/I9xVFdsBtVfq90hUOAlsuW+wbrYWWboLLJtW/eX5+yXDQ4BVX/s8pGYC4aj3/JBJyszRePBSGsifMOqPL7vKpoAGLAaJSWPbTM6jC2oWrln5PrqZXCEiEcfKKEfzM0Fn/Khjwmz3aZ6jr3vIl/O32ujFtDydpXXzQSDWVDzu/xtVv1Smfeoc6pes2SqJoF/Q+NQ5h815K8+vygQarlz0vj0785hweh6s/+9n8NjQJF6VIO8/taHHmH+jIsHaBW/bF3OKpqRqOwUD7oxFzbiurl3/PCVQhLcUQD1Mw/68LfKDQGVSiO4s3dnTNBgxq33ENdmfYK7EW9/ceyka8erUcCud8r9TWQP+6FryyWi7zHgMpfJoKJ/Fo4AjTtCrdZTGdqUeBcwN/ijK0j+EDU2z+NhUWxjmjh96EJu7zFtr8W8ufWeo9mu+oQqPwpLEf9rIcL/zpV3M/v2KKaqJ+b9mP8L/VAzf2wtLmBa1dnputU/rzkcqA28r/IeRdivOwsqPwMN8UeuOBj6AJ/+NT0Q23UN7W1/HJ1xsuSULd8vU9NoR5c7JT7FYo+fU5o1dXIsss3WunfRq93kMnUBO79FUbZpnoCIbM0Ut90/fkvf8d8XaYfpvw+tF3OKsOF/hll5D3/z96Zh9d05nH8lVwlN7nJjSWSiASJNSHWoKLUFpSxq1CUULRjeEYtaWuJrYraS2prtCaU6EwtpWOsTbVqtDWMp2YIXaz1YGifPsO0Z+69WW9yl3PPyX3f7/ve9/v/Ob/v/X1yTs67/X5KbJvywp9ftEdDWdCvQR//H1WO+mrAOb+mMvPfe9CwWd0H0CTPL/wT6OM/U93Y7zk44wvUrt6//7dyo0/iPHlk7NQN9PFXV+0nA873PrWJPzSs/PAPs4XO1nDladCP/2aq3l1+cL5Vb1WvXX70SZAtDzlaLp2Oib+6mlp/eOeVphAmsn0C7dT+fwNPKqpcBiXAuf6WDX7b6l1HTZdmYOJ/w/2i+WE406aHbPDbNjtqqw6FWu7lN7fO+8N5/oINfbLFEjtcz5sDT24HRtF4X60dGOG39unpp/Hae5j4Te5GRtvgLPcxM8JvbVi7XeO1RtATn8fc+K4M53g6I/q2U1sZel4dgBqsboMjkKaywj9Bz99eR9BtH7dcusarUhAVxgp/RUv0dM1Xb8XE/51L03fg/D7Dij4xKk6bd6peMIRTrivP4/D8dmKGn6QoymPNF9eKwOTvqtjDRTi3LYPY4R+sKHe1X30BE7+r99kSOLfH2dG3zoAd1n71Mkz8LrYvLcJzm8UQ/xpFOar9an/QA39xHO3yighkiP+s6/+U7vQCJv6LTg2Ph/M6nSF90l5R9HTDO4qJf4kzvw/wvK5liT9OUWJ0XO5fA5O/sx4fT8E5DanJEr/Z4KerRBDonj9nh1bXwznNIEzVr4muy89h4nfSm6YpntPNbPFfSdB1ee0QTP6OS31MhvNpiGaLf80dfdeDzvsnOjR7Bs5nAFv6ZKlOA9sw8Sc58hoIV8/Fw8oa5a9B9/Vd/wATf0QwH5OU7RjjN+vrCEKC+2Dy38nFlF93I2P8ZL/O60E3fDua+LsK5/IAa/pkp94/H0z8DgolvYTn8jpz/HpXHDph4jd0LeM0Ec/lN4R3NQfd8fd5Gaf/g/MY5c89fluxIUDNLe0zCG9vUiv+6ZPFmPhDS69lTMPzmC0A/t6Y+JVRpXz+F8/iIAHwjwbFnwn/ljIZBcB/CRR/6e7m9eEcDhaAPqkAOu+3AP6vtJsI+Ml20Mf/ZTuXgE3oJguBH7TMj/K2nct0PIOPhMB/CBT/RDuXI+D8hYQJgf91UPwL7bYl4dX0CBCCPhkAir9KfAmTeBXcVZfxBVdHUPx2jdEAG9D9LAZ+Iyr+OSVMjsSz114M/CQKFH/Jxq6AhYimCYL/Jij+2GKLLQDtNRcE/wzUt3/xxM9ePHOhgtAnSaj4OyEvSwaIgn8PKv7iHve/4JlLEgX/P1HxF3f1zsUz10gU/LtR8ecVOgwEbD6TKQr+paj4QwrP+iB2HxBl2E/WouIvaoq9CdBblij4P4LFX9jVtxGgt49Fwd8OFn9hk7K2gN7iRMH/NCz+wq6uiAXoTouCfxEs/vr5BnshehsmCv4usPgL+hQ9QrQWLwr+irj481fVngN0ZqggCv7TuPjPwc5L1RGFPjmCi/95m8GTgM5qCIO/KS7+F2wGmwE6aykM/ku4+FNtBtcDOhNmuZ+8iov/qs1gVfm/34vqiIu/ntVfa0RnfsLgj8PFr1ibIw+CdGaWk77e11DYFcmXRcHfCRi/9ZznbEhnT4iCPwcY/waLv12QzgaIgn8zMP75Fn8NIJ39SxT83wHjtw78/wH7XhJCx4Hxz7P4GwI8ISmA+gPjT7b4w+w1u1oU/COA8YcSEozpbL0o+KOA8fv5k2GYzsKDxKDfS0FWG/IiqLOKYuAfBI2/B5kA6kyQcx7DofEftTaqhdQnYuBvBI1/KvkrqLP+YuBvBo3/HuiUv6I8KQb+mdD4NwD2bS5QCxHoR0PTV06Rz1CtdRABf3ts/BdIK1Rr6fLLz+tKwv02yRUB/zxs/KnkCqo1Q2v+6ZtN2PgzyFew3jbJnV7e1gzyLqy3nvzj/yM4/s7AC5Kh/K/65IHjD4A841OgCbzTbwFO3/J5vQTX3ETe8Wei408G7OBWpPq8H/Jfjo6/L2kI7O4a3/THmtDx7yCRwO728I3/Hjp9JRTyfG+hIqtxjX8kPP4+pAqyPa6XfaL94PGbiAHZ3hWe8R+Dp6/4kRBkewaeqzsm4+PvTupB+6vEL/2/4NNXmpAUaH+RZm7xJ3GAvyVkQd8SmsUr/ZeqcIA/gYzHNjjEn1P873FAX1kF/4Gylk/68ZE84L9JroI7zONz4v88D/SVPBKAbpHL015h/bjA/w7prMjH3weXevN1ArfHbJF+xx/9avX5wH8Af01aWRLIHf7HfNBXDpJUfJPreKMfU4MT/GfI915/wUydPTdZ18JSyljO8JdD396Q7d02D/L6EZzF3u8w3aSW9XlY8fPiVZpvcZIv+pfq6kpY1SnzE/9u/YcX7PWqWyfJIa+/YYoW7R/u/aSZpiWG6uO4wj9d+6Ny/9m7XYr2tw/wOprXKMxPpNrlZuCb6e94vAduHk+DP21LfSkjT3WoaP8z13gdTTa56/UYpjZlxkX/OT+3r0f3mMzRjM9lTxO0o8G+c03L3qiC96eOXiGjFQp/Y47UtX2jjao3GkZEc4N/vyep6dtqzuiuTm501Ptk0sgD7wdZ6DRVwYtm9VT3RchNlc/b4eqSYkhefOyDxq7uNN/7ZB6RgRSGl11cJqz11Pfuu38NfMgH/SAVR2ar505atzPG3Z0CY70P5ghpTgH/D26zZnkNbHFdW7rJES7w91YxnK+l6k7/pgCmNqGx07tlmKof3HrqqY3Oh8wneDjwGxfifjivUhRKgYdbwtA45ZWj+kcHD81e3NfZIBVetRyflw4/UXI4r05dKTyW1uJ5NE54b/Xsp0e//UPn7mVu4rcMHv/XDt58/Y9d03JY6ToFLFctcTZSiGPo4fHPDxw66/c37ZcKGqK393rF/ldXGbFnuNbK1P4LKGD5iVDakKyxOUfNAb2TSuThV+yl37f6FFsd/+nunWYd91pJg8pcS6BKNAI1idGeicZZs5OG5L8HdiHTr1mwa3ZmgzErv9R7swwaVBpZAs2isrL8WG9uV5x/P8+kfItL33+15Vtq9ZiPymV+8jaVo5eZtF4zyqry2K8fNu3NWrD4J8xOG1ZuN6PTXPE3SyRK7TxyiJRqtalLhYn1g9xMB3+AhKpeY6ggMRitsShtTOskqapVPJ1ztztswSi18fxKYlUrSkeE5tmCzaUTTJyuzN6WcQcdIL/Yop2ihP+EBKtO2ZSAXLRFm0wpmpImyapaN6L08Cs3bOHSaOHfXkGyVaGztHh8YAt3i1Y4Hk/r0VdMS1o4BuavrVGrPboqTNJ1q9do0QgJzg+YS+3xPyvpulPrPrRg5BVEnE4Nf1QbydeN9lCDsaUgIsVGnnskX9e6Ta8g2IaCkKPp4febJgm7FMW+eoXjcJo9RzrLwZ8rUXwSlaKtczSLkN2TjJ0rjGKZvdiiqBsp4k+RX3/OdZ0iiJ+KoqZTjKpMkpSdqSnN3hrFjbKW0sRfMNcoVVZnaGJILAr7NFX8C8wStEPR7fb+TVHceLotPSZK0o5UM4EmBL8Sm2bp9nL0uyZZO9BxqhCSS0TuSTWyskS+/stqBd1XcMkv8M108fNWqY2GalHupru0ROw4yvgNWZJ3KaVTRvBiidj+EZSDJ4yVwO2URbmhXqTd5HtbyviVTyXxkhqbQDn/DezCz6GNn5dSTZREve3Xdbvwy6jj71NRQi9SIvX0T7CLb6bfdixAbvwrVI86tJMfYrR3sJA6fuUPknvBmI9+O60ppSxMpI/fcFiSt6kb/dyXbo6bQ9+CEtpUorfoLoPUl26PFs3AgzIlUMIn4+oyyHzr0i7usOD/rKTfawiDvFcuY2MiC/yy5It/MxZpr1TGRxoT/PV6+Dj+p5ikvV0ZH8a6TIxcru3T9IczSXodB1MuB5k4UZJ8mf7H4UxynurASjYb/Epv36U/MJZNyjc78NKREX4/ny360TiZUcpfdeRmCCMzkT66+GPcyCjhdxzaSWfkRlkf44v0/Vuxyrfj2ZaVrOwo/X3x3OcuZul2/N/WHM7M0I++R38fs2TXNTp2tJyZI+VzX6O/m12umzmxNIudJZOPlfxcyi7Vtir+jtTVj52nqpV9SgwzXd1pp5EZipTwGun0lZQpkyO+bjjF/2V1mR3RZXLRNvqKTI/oOujig/SGTI/ocnW8pnEVmR+xFdLL1Xi0rUyQ2Ep1OR3xoUyQ2Nrket9piMyQyOruZnF1tUyRyGrlZjI6R6ZIZJ1zgz+spcyRuJoZjLnxXIqK3O+r6CGTJKwMA90vRW+UaRJVW1XsRNgk0ySq1DTSM0bKPImplGpqNiKtkYkSU+qq6YySiRJTb6nbh/iuzJSI+lXlNtREmSoRpbaQZnwEfW8XKvmUPqOf4SgzcMkJHzvm+QT9DJ9Sba6FSeIXDb8pWr27nhK/aPg96Z83TeIXDf8oT+wdkPjFwr/cI3t7JX6x8Gd55q+yxC8S/jwP/b0u8YuEf7iH/sJ2SPzi4E/wuHb2NolfHPzHPDY4to7ELwr+es09d3hK4hcF/yENDh/Wk/jFwB+hqWfmPolfDPz7NVlsHinxi4A/paY2j3+W+EXAr7Vkeu1YiZ9//DXitZrcIPHzj/95zSbNDSV+3vE/adTucp3Ezzv+WTpcVusn8fON/w1djbIzJX6+8d/QZTP4ssTPM/7cIH0+0yR+nvG302u0gcTPL/4vdBu9Zfp/e+f+FFUZxvF3l9Vid1kWEAGRuCOgroIoF7kKiiuKJiKIGIqA4gWTEAxtHJVLiEiNomIqXsAbNVI65AW0mrymeZlGLW0SzEpnnMoxq5km+6GZZpo0Fc553uc9+3z+guf7/e455z3P8553KX5R47eVwNUCil/U+AslqDRoCMUvZvz+kvxB3gKKX8z4B0lSqn4hxS9i/NOspKl1NcUvYvz7pCq2jeIXL/5bkhW7xIviFy1+hybpqh1L8YsW/y8SVmuYRvGLFX+5XspyKxwpfpHit8+Vtt5oil+k+HdKXK/bZIpfnPjvaaUuOJziFyZ+TYv0FZ+i+EWJf6QMFQf6U/xixL94jBwlr6P4xYi/Xp6ap1D8IsR/XqaaE+hfvgTAaahcv9lWMhc/M+S7ZzWTu9g5KeMjy/gD+YubDVo5lyznbMlhzDjnyrtk/Ygsxsx0md9YVNvJY7ysUcn9xhpsRy5jxbtI/o5FPdmMlesQHaur5DNOmkEalsaF5DRGdmtB4mcpfclrfNgdgxpYvKUht7GhjoUbWGWT3djYDzivVPUjv3FxVgUYPxszmRzHRKQrA8XHgTzHg2c89H6VGjIdD1Hw+5XWkutY+JbDdjXdOxwF+1kjYwJHM7YbeGxXDIzkp3gTtr2bjfy8+HoMH8kp/LZ+LsMW/0FuVvgf46U5bhQvzUexxV/IywmHa/xEZ/Lq/q7EFv8VXr3e6zxVv8dJdRu2+Hm1Qdfzlf0xH9UjsMVfzseHPM6y9YO5yI7AFj+fLXAvW/HW7TGNi3B3XOmHcjGh3Mhf+Ut+PJSn44r/OA8PZmVgkH7Hn4P0I7ji38XBgj0pOLRncXjwXcUVvxneAe94LOLTB4KL34Ar/lXgBrhU4FG/D3z6r0nAlL4JfsJ/GJP+WGdo/VMxya+GVj9qIq6732v2wAYUY1IfAizeph1b3yNZDeuArxaPdg8vWO3qKIaOH4HHP5l4pANvfNNUMoT8brFTH+B5zxsMJdWg938bNGt/kyPonf97hpQaUB/Q7Pg5Cqna/iuGluG2gEZM0OEQrYVsejtfZ4iZCbkGHoRDcwegZIdtDDWzfeG8uKfHoNgwC07xwNsMOff7wLnxvoV1/OzSGXp8nOCe/ghaPx6LweT6ZzEBGD0AzJDv+KtdCibWL4YJgelFsLmXibfWHmCfOty8wQQh6EMoT6bwlvoNlNI1rkwYdKegXOE8/DgNpXOkgYlEJ9Ri+CWeKpuAtjlpGplgbAZqAL6i4qfR6iegVl8yE45aoAYAx9Y/ULPf7jYTkLtlMBOwWF4CW2F2OEy+w4Rk6A6Yi4PT+3AdzOGmK0KZoGjngxi0iotBGTC9/iQtE5cOGwiLRrhxaPY2QCizXcCE5ucICJeW9wa/sT0AnvO5jAAAA81JREFUGWpMYoKTAXIAWAhwV0QH8l17yVAmPIY0CKfO9oLU5HYIQtMLeqYEkj0h2j9GOEHuEO2ecVFMIfSE+ALyMtidsmg3gJzIOUwxBJ0FMKysDujHDHGeRZsrUxJbAPaAurRCKBkOMOZxqGYK4y7AGUCag7IfdaQPALj0rUczxdE7GqBFvn2uvCJMFwCGGGd0TImEA2wCtBsup4J1AG3+CS1MoQS2Adw5i2WbAGT8AVD+sBymXAYBtAC8N8tSuqoSYAPDuEqmaGIuA1xBFxZJX3j6qwCF70hhCkd/CeAYKPVFibcA3kgCWLd6fmHFlM+SNQDXkVdhoHQVh6ZBnFwV1sQsg6mJAG76Rkv0b/bB+RDH1sm0YkHJ58UQEzPnkT7dL/Vcki1EreZQZknMqALZKvVJcrcGwdrSFSBljv+TWRgea2FOAurzQVxXSzz80AWkRHVaf2Z5xFk/gqEq7fZzL6mtZudDHVTfcJ9ZJKpKsG/jE988/RyvgnMrb4EdUh4xVcUsFfedgGcBvz3vyKKnDlN6n6veCnhay6gv+zNL5jPY43BtU/c21vsEPa6SoNx3G/em2oCWM+wYs3RWL3wEjmdkSUhSQXbjpvXrNzVmFySFlER6wleRWssIpl/g/cgCcTpiRdn/fd+N9rK08L0CXCn3fyh63daSwnfOS6DM/4Xpob2lhG/THEx5//clYK+jJYTvmLSEsn4so4vVSg9fbY6hnJ9IzzaNksPXDJtDGf8vuVttFPvMn+9D+T6V4OiBSgzfJWAuZftso4BLVUoLf/x0d8r1mTGU7lZS+NbJBsr0OWcBgxWyCtT0a6E0u0BdXh/xw7fLr6Mku4i2tETsC/9BaS9KsTvEBDiJGr7/mR6UX7fRZS4XsBmoDvtNR9lJQ9NSP7HCr8o2UWoSojqet0eU7CPyD6soMamxmr1SgGWA/8l9lL1M6MMvJmLO3rt5op5SkrUfOPOqHc7sE6/EUm8P4ikQt7QB2buAekf2JNq5CUdojXkIluyd5pWGUiLgN4FrnSu43wQcRyxLp6UeLwLr0xq4bRG1uVyQmUMZcMa4elmYC3T0fQ/tbzGS91geBFkbzWBfZpZt3ZhF6zx0FB0Y++unsu4UtLlpHnugiJzGi85nc0CYDH8gNOBQQE0WDXEEWRK2bCk8US7Jp6PeDScCtrQEkqfi4dGzdVfB+dQuLQz7poYU7Grv6UEuCo9bcG54VEdnnnl5+SzfJ/YK1L5l5WHm/M6OqPDcYC25plAMxpwEU0x8RVzttvb2bbVxFfExpowcoyU27P8C6rIKu/5ZqAwAAAAASUVORK5CYII=;fontStyle=1" vertex="1" parent="1">
          <mxGeometry x="29.999999999999986" y="150" width="50" height="50.2" as="geometry" />
        </mxCell>
        <mxCell id="GMlkpqBU8Bx7z-MP60cb-22" value="" style="edgeStyle=none;orthogonalLoop=1;jettySize=auto;html=1;rounded=0;flowAnimation=1;shadow=0;dashed=1;strokeWidth=2;entryX=0.5;entryY=0;entryDx=0;entryDy=0;entryPerimeter=0;" edge="1" parent="1" target="GMlkpqBU8Bx7z-MP60cb-9">
          <mxGeometry width="80" relative="1" as="geometry">
            <mxPoint x="180.5600548451264" y="61" as="sourcePoint" />
            <mxPoint x="180" y="55" as="targetPoint" />
            <Array as="points" />
          </mxGeometry>
        </mxCell>
        <mxCell id="GMlkpqBU8Bx7z-MP60cb-25" value="&lt;div style=&quot;text-align: justify;&quot;&gt;Fetch&lt;/div&gt;&lt;div style=&quot;text-align: justify;&quot;&gt;&amp;nbsp;logs&lt;/div&gt;" style="edgeLabel;html=1;align=center;verticalAlign=middle;resizable=0;points=[];" vertex="1" connectable="0" parent="GMlkpqBU8Bx7z-MP60cb-22">
          <mxGeometry x="-0.02" y="2" relative="1" as="geometry">
            <mxPoint x="14" y="10" as="offset" />
          </mxGeometry>
        </mxCell>
        <mxCell id="GMlkpqBU8Bx7z-MP60cb-27" value="&lt;div style=&quot;text-align: justify;&quot;&gt;Write&lt;/div&gt;&lt;div style=&quot;text-align: justify;&quot;&gt;logs&lt;/div&gt;" style="edgeLabel;html=1;align=center;verticalAlign=middle;resizable=0;points=[];" vertex="1" connectable="0" parent="1">
          <mxGeometry x="119.99798412824103" y="28.99870059277883" as="geometry" />
        </mxCell>
        <mxCell id="GMlkpqBU8Bx7z-MP60cb-28" value="&lt;div&gt;&lt;b&gt;Logs&lt;/b&gt;&lt;/div&gt;" style="sketch=0;outlineConnect=0;fontColor=#232F3E;gradientColor=none;fillColor=#E7157B;strokeColor=none;dashed=0;verticalLabelPosition=bottom;verticalAlign=top;align=center;html=1;fontSize=12;fontStyle=0;aspect=fixed;pointerEvents=1;shape=mxgraph.aws4.logs;" vertex="1" parent="1">
          <mxGeometry x="171.60000000000002" y="17" width="32.15" height="44" as="geometry" />
        </mxCell>
        <mxCell id="GMlkpqBU8Bx7z-MP60cb-29" value="" style="rounded=1;whiteSpace=wrap;html=1;" vertex="1" parent="1">
          <mxGeometry x="380" width="240" height="240" as="geometry" />
        </mxCell>
        <mxCell id="GMlkpqBU8Bx7z-MP60cb-30" value="" style="edgeStyle=none;orthogonalLoop=1;jettySize=auto;html=1;rounded=0;exitX=1;exitY=0.5;exitDx=0;exitDy=0;flowAnimation=1;shadow=0;dashed=1;strokeWidth=2;" edge="1" parent="1" source="GMlkpqBU8Bx7z-MP60cb-31">
          <mxGeometry width="80" relative="1" as="geometry">
            <mxPoint x="780" y="240" as="sourcePoint" />
            <mxPoint x="550" y="45" as="targetPoint" />
            <Array as="points" />
          </mxGeometry>
        </mxCell>
        <mxCell id="GMlkpqBU8Bx7z-MP60cb-31" value="&lt;font face=&quot;Lucida Console&quot;&gt;&lt;b&gt;Application&lt;/b&gt;&lt;/font&gt;" style="image;html=1;image=img/lib/clip_art/computers/Virtual_Application_128x128.png" vertex="1" parent="1">
          <mxGeometry x="410" y="20" width="50" height="50" as="geometry" />
        </mxCell>
        <mxCell id="GMlkpqBU8Bx7z-MP60cb-32" value="" style="group" vertex="1" connectable="0" parent="1">
          <mxGeometry x="530" y="160" width="53.75" height="55.1" as="geometry" />
        </mxCell>
        <mxCell id="GMlkpqBU8Bx7z-MP60cb-33" value="" style="aspect=fixed;sketch=0;html=1;dashed=0;whitespace=wrap;verticalLabelPosition=bottom;verticalAlign=top;fillColor=#2875E2;strokeColor=#ffffff;points=[[0.005,0.63,0],[0.1,0.2,0],[0.9,0.2,0],[0.5,0,0],[0.995,0.63,0],[0.72,0.99,0],[0.5,1,0],[0.28,0.99,0]];shape=mxgraph.kubernetes.icon2;prIcon=ns;movable=1;resizable=1;rotatable=1;deletable=1;editable=1;locked=0;connectable=1;" vertex="1" parent="GMlkpqBU8Bx7z-MP60cb-32">
          <mxGeometry width="47.07516339869281" height="45.1921568627451" as="geometry" />
        </mxCell>
        <mxCell id="GMlkpqBU8Bx7z-MP60cb-34" value="Promtail Agent&#xa;" style="shape=image;imageAspect=0;aspect=fixed;verticalLabelPosition=bottom;verticalAlign=top;image=data:image/png,iVBORw0KGgoAAAANSUhEUgAAAaAAAAHyCAYAAACtcBqlAABUtklEQVR42u2d25Zb1bWu9QjrCShRVSqpilz4EeoR6nK3tW/UWmxsDl4WYBsMBguDbU5GAcIZokBIIAlEHPdqK4QoAdJWCycByb0eQVS5yq477zGmVKopqfdZY4w+e9WQ/P+t/S17ZbcIVFMav+Yc3/h7oQBBEARB0HSp938qxZ/+85ZO7//eUsNfA4IgCNr/IPrPlUP4K0AQBEEQBEEQBEEQBEEQBEEQBEEQBEEQBEEQBEEQBEEQBEEQBEGQTL0jK4c2jqxU1w/f0tg4vNxeP7xSx18FgiAI0g6b6yM+snJ948hyG38pCIIgSDVsGPfw14MgCIKCgscjbEj3jlWK+EtCEARB3vINnHFv3Lq8hr8iBEEQFBJAHVEI3QoQAYIgCAoLoKYgfAAiQBAEQYEBdHi55ho2jAEiQBAEQf7qHf7ZqkfYkAaIAEEQBIXdBXkGzvrRUQNEgCAIgkIDqOMaNqSPAUSAIAiCQgLo6ErTOWwIbxwFiABBEAQF3QEt10LDZ2CACBAEQZC/esd+tioMIIAIEARBUOBdUEjwHNv1xm0AESAIgqCwAOq4hg3jOv6KEARBUEgANT3CZsIbxwAiQBAEQSEBdNtyLSR4hgaIAEEQBIUoAREkAXQMIAIEQRAUehcUEjy3WS8nBogAQRAEhQWQBREcw4b07QARIAiCoLA7oKZz2BA2d0AAESAIgqCAALIggmfojBkgAgRBEOSv3rHKqjCAACJAEARBwXdBYeFze98AESAIgqDQAOq4hg3t/ECEZFiendj685Wm/U9cHQiCoFkOIAsiOIfNpENBhNGwWekYXx/6yMr1jSMAHCAIgmY7gO4wIeATOndMeE8QYa+w4YyrA0EQNMPq3VlZ9Qgb0hSIYP87n7Ch3DuycghXCIIgaJbvgjzChvLGnTSI4Bs44944slLF1YEgCJrlALpjuSMJoPU7aRDB7uOIQujWWxq4OhAEQTMdQCtN0R3QHTQwYAPEP3R2DRABgiBo9u+Aav53PSPu0XdAK1XXsOGMqwNBEDTDSkAE97Ah3asRIMKRlUM+YTPhowARIAiCboS7IOewocyCCB5hQ3njGEAECIKg2Q6gO5c7oeHTdwaI4Bg2tAEiQBAEzfgd0EpTEkDmDogGEUyA+AXO2B3QUYAIEARBMx5AyzXv4Dk+YhpEOLZSlQSQNa4OBEHQDCsBEdzDhjQLIoQET2oya+92gAgQBEGzfRfkETaUWRDBI2woA0SAIAia/QDqhIZP4v9iQISjy23XsCENEAGCIGjGA+j4SlMSQBvHM0CEY4Hhk9wBAUSAIAia8QBaroXd+QzNgwiCALLG1YEgCJphJSCCe9iQJkGE21cOeQXObSsTU1kBIkAQBM3+XZBz2FDeqDEggkfYUN64vVLF1YEgCJrlAPqv5Y5z4JwgXGNAhGPLbdewYQwQAYIgaKYD6MRK0zlsCG+cYEAEEyCC8Lm+cRtABAiCoNkOIAsinHAPHMI0iHB7pSoJIDu1FVcHgiBohtWrVVaFAcSDCB5hQxkgAgRB0KzfBQkDiAURPMKGMkAECIKg2Q+gjnPg1CgzIMJty22fwCGG4wFEgCAImu0AWmm6h82kzR0QDyK4h82EN+4AiABBEHQgss3SG0dWquuHb2lsHDZ3E4dXrvcO/2w19wCqLddcw4YxDyI4hg1nfAogCIIOIGyGPpLyrfTjLtE/24IIsgDiQYQ7ZAEEEAGCIOggwobwT0dWWhr/TtIAYkEESQDZyavHASJAEATls9AfXqm7hg3jrlIAdbxC564x382ACHeYgHUMG2YwHkAECIKgXO5+Dv9sNTB4hu5VD/1H/gG00nQOG8IbdzEgwh3LDeewIbxxJ0AECIKgfALIhIcogG41AXRMEUS4K9g0iHC8UvUJHMr41EAQBOW12B9Z6bqGDeN67sFoQYS7RAHEgwjCAAKIAEEQlJMsSOARNhP+6VYlEEEYQCyIEBI8I5NXASJAEATls9CbOxifwFk/OmEdEOGu5Y5X6Nw9bgZEuHO57Ro2jAEiQBAE5SG7h+MRNqTVQATnsJk0CyKYAPEImwlvHAeIAEEQlE8AWRDBI2zIANIAEe5errmGzUT43GNd5kGE42Hhs2N8aiAIgvJa7I+udCUBtH5MAUQ4WVl1D5sKaRJEqK0ckgaQfY2Z/UFi0fzDJvx/bu5AD6907P8b3xAIgtT009GVVmDwJLb/e5Vg9Agb2gyI4Bs6YxNaZwVEmAwbsgWjiW8IBEF6d0DmDsY1bBjrgAj3lDt+gTPq9ZMV8s7M7uO4hg0zInzqQATHsKHcwTcEgiC9xcmCCO5hQ7pXyx9EMCHSlASQMQ8iuIbNaPD0h96dmB4QoR887v1+lPENgSBIb5GyIMKxsOAZBpAGiHByuSYKoJMZIIJj2HCenh8XlaK4bklh7AYEQdDuYn9spSsKodvzBxGunKysuocN7d59DIjgETaUpwlEMCHSC6lZ2jVABAiCFJWACK5hc5v18oh/um1ZBUTwCRvSHIhwIix4ho/hatMDImwcWW4H1iztnAcDiABBkOodUN01bBjrgAgnyx2vwBkzCyKcMIuyLISmBkRI2i4CapZS+4IAESAI0lMCIriHDWk1EEEQQMZt5g6o4RU4k0PvpgZE2Lh1eS2gYmnE+IZAEKQXQCY8JOGTBNCxymr+d0DLNVEAnWJAhFql6ho2nKfnx0WlGFKxpN12AUEQtLvY37bcDQqf23esBCI4hw1tFkQ4IRv9PVUgwtGVnqjtAiACBEGasiCBe9hM+qfblUAEj7AhfZoBEWqyAJoqEOHocju06WJggAgQBCn+SjZ3MK5hM+H+iGs9EOGUZ+ikvH6aARFqZlEODaC7kv+cHhBhr7aLvchHgAgQBGmqd2dl1SNsSKuACKcqTUkAGbeZO6CGc9hQQ+/umjIQQdB0YY1vCARB8qA5snKImuGTgAgeYUMG0J1KIIIogDJABMew4RzVdTXX1LYWkNfWgggRtl1AEDTjYbNxZKW6fviWxsbh5fZuLxi9qWwfo/mGzojvVAIRvPZ8Js2CCMLR3wcFIuyEjbmW9WSs+s9XujvX1l5v8tpaEME3eEb3AAEiQBDkGzbkCXhyU9mCBJIAUgMRPMKGNgMiCANo4259ECErbOhmg1vIvamNY+Yz4R42kwaIAEHQziMVj7Bxrtm3dzB+dzxj1gIRTpU77mGT8r19r9/HgAh3mb9dSPjszilqaFxb57AhbKt3yL9huu0i7KwXQAQIgszC+fPltdB6/aya/QREcA0bxiogwr2VpmvYMOZBBPewmZzIqgAiJD8sjuR/bTduM58Z4WFjfPMgCFKr2U9ABI+wIQNIA0Q4vVzzCBvCDIhwd6XqGjb0SPBK7ouyfZQqura3mmt7ZHJvKvnMiA4a61xbCIKmUFo1+wmIcKckhBRAhPsqq/6hM2oWRPAIG8qbp/IHEcKu565ZEOG25V7oQeMBFQkQAYIgvZr9n+5cbgUFz2Cs9U/HlUAEYQCxIIJH2JBWABHIa+vVYs2ACLeZ1/U9aDzyKBYgAgRBhcCa/aN71+wnIIJj2DDWARHuLXeCw+e+DBDhnkpbMnn1yt3lRv7X9pZGwPUc2lbvkK9r2y4CDxkPDBABgiCHmv2jYTX7CYjgHjak1UAEx7BhTC7KNkBEo7/vqeiACAHXc69rm4AIgYeMd4xvHgRBozX7R/Or2U9AhONhwTMMIC0QwT1sJp0BIgQFT6ocNfdra0EESXv10QwQQXLQ+A6ACBAE7SzKSjX79jGaKIT+SwlEuM8zdMZMgQgWIvAJG8oqIELoNR2c9dk4xoAIdyz3/BsuRs56AUSAICiwZv/o3jX7FiTwC5xRq4EIwgDaOEODCD5hw4yHqB7Itc1ssGZAhDvM6/ocLp44bAwQAYKggkPN/tGwmn17B+MaNoz1QITg8KlcX7+fARFOVtqSyatXTiqACCZAvEYmjNlW75Cvm267CEPtASJAEDRWs380v5r9BERwD5u+x0Zbq4AI91WarmHDmAYRTICIRn+fVAARjq1UpQ3W5OveaT4zd8oOG+ObB0GQWs1+AiJ4hA3lXk0BRDizXPMIG8IMiHCqUvV85Dbh3K/t7SuHgq5p6mCpfY3Ja2s+M4FnvDQhEwiCpvExXEjNfrJQrWTW7NvHaK5hQ7qmBCKc8Q2dUbMggkfYUFYBEfzGJUx443Z6b8qESi/wjNeOASJAEORQsz8aNs41+z+dWG4Fh4+x/d+rvF9hALEgwknR1FUdECF9bcMKRBvMY7h26BmvvgEiQBBUGKvZ3ytsPGr27R1M+N1PYh0Q4Uy5Exw+92eACKcqbWEA5b4o2wCRtFfb6h367jYDMnExQAQIgpKFU6lm3+7heIQNaTUQwTFsSHMgwulyQxJA66fLuS/K9hGapL3amrkDWvM/2zVqfPMgCAqv2U8tWNSmcgIieIQNHUBKIIJr2JBmQITTy2uSsd/WuV9bCyJI2qtvzwARPMKGssa1hSBoGh/D7VWzv9eCxZxut4/RfENn1AogwtnKql/gDPzArsnRDOa/k439rly3kITCtRW0V2eACMfNZ+Z4OGZvri9ABAiCxmr2fRes2/nT7T/VlluSALL/e5X36xE2pM8yIMLpci9k5Pdw9Pfp/Bfl5NqGt1db0yDCcfO6Asx+/QRABAiCCg41+3svWjyI4Bs8oyOtdUCE+8sd57AhvH42A0QIG/m9Yx0QQdBebat3yNe1IIIEsz8BEAGCoMJYzb7/L2S2Zj8BEdzDhrQKiPBApRkSPCnTi/LpSj1s5PfgDuheJRBB2GBNvm7NfGZOiAIIIAIEQXo1+wmI4BE2dAAp7Is8sFyTBVAGiCCcvJr7tbUgQmhz9cAsiBCG16tCJhAETeNjuJCa/VHTIMJdy93Q8El8txKIEBI8Z3fdO8eACJIAuk8JRAhtrh544zgDIpwwn5kAvD5lgAgQBDnU7O+1cHEgwt3LrfDwWb5u//cq79cjbGgzIMK95Z5k8qrFxHN/rzvNBaE+zoAIJ8zrnhBRjgARIAgaq9kP+JXMnW63dzCuYcNYB0R4oNxxD5tJsyDCvZW2aPLqfQogggkQQfhct8Qb+bohkMmoASJAEKRXs5+ACO5hM+GNexRBBK/QKY+bXpTvq9QlQ+9UQITjlWpIa3Xa5OtaEEFGOQJEgCAosGZ/fLOaAxE8woYaaX3lpBKI4B42lGkQ4czymnTyau7X1oIIYa3VuyMUagyIIKYcASJAEFTYo2bf7RczDSLcvdx1DRvK6yfpx10SJSCCe9iM+sG+WRAhcOLqjlVABEl56PEMEKFmPjM1CWQCEAGCoMIem9WCmn0LEriGDe2yDojgETakzy7xIELYxNX+6G8NEME2F4SEz267AQ0i3GVeV0I5AkSAIKh/B7RSF8154UAEcwcjC6CKDohwttxxDhvC6w8xIMJ9lXbYxNWBtUAEz8bqtFkQwRUy4fb/7gGIAEFQIbBm32Gz2u7hBAVParKoCojw4FLTN3TGTC/K95vAFQy9szOL8r8DqlR9G6vHq3bI17Uggj/ZOGJ88yAI2rtm3+GXM7WpbMPDJ2woq4AID5ZrwgDiQQTh5NX8r+3KIe/G6jGzIII32agPmUAQNI2P4XZq9kNnvTAggn2M5ho2lNVAhNDweahvFkQImLaatv13y/3aejdWj3qjxoAId5vPjGPY0JAJQAQIggpjm9VBs17oTeWNU+VWSPAMfUoJRPAIG9J1BkQ4U+55T1tN2WLiub/XneaCcPMgwt3Lkj0+gAgQBKVq9sNnvfAggiiAFEEE17AhzIIIZypt/2mrI3VA+YMIJkAkBaIbNQZEEEIm6/eUASJAEDTYVBY8puE2qxMQwT1sSKuACOeWml6hc27CPIggGHxnq4Lyv7aVqk9bNWX68eryWihcsmN88yAICqvZn9isZkAEj7ChrAYiuIcNZR5E8JmySjj/a7tyyLOtmhihQIMIoXCJJmQCQdA0PobLqtl3+wVNgwinKl2fwBm3HfiW93u9cs7cmbmHDWkWRJANvdMBEWTloSyIsHFPuSd5xAoQAYKg/mLislkdULOfgAiCAFIDEc7JAogFER4wi7IggFRAhJq5toLyUPPf0SDCyUpbtMcHEAGCoP6v5JV6wHCxPWv2k5HVvqFzesQ6IMK5ckcSQOvnGBDhAbMoBw68S6wBIpgAkZSHWuKNfF1fyGT87vYUQAQIggqBNfsOm9UJiOAeNqTVQATvu54R04vyWbMoBw+8szOHlEAESXnoXRkggidUMm588yAI2rtm3+GxDQsieITN0KnhbipN0efKNY+woUyDCGfNohw48G6nny7/a7tySFQeehcDItg9r5OSx6sAESAI2n1U0wvaI9ijZt8+RnMNG8p24Fve7zUBEdzDhjQJIpj/LnDY3dAqIIKkPNQeOL2bARFOlXsyyAQgAgRBBWazOoea/Y3T5ZZr2NBWAhHq4eGT+ByzKJ81i7L/sLthO7fFxHN/r9wIBccutyt3l2kQ4VSlLdjfu24/G/jmQRDkX7M/aRpEsCOr7w0Nn8QqIILdx5EE0JU6syifNa8rmju0pAMiBBaHDkzveWVBJm6PW7v45kEQlF2z7/johnzcdV9lVRhA13vn8gcRbIB4B8/DKZ/PABF8htyNzxzSABHurlRDi0N3TP4NdyCTgL294bVVgEwgCJoyDWv2A/cJrHsnGRDBJ3CIiaIaIIJ9hOYcNozpO6ClNeHIBxUQQTgg8PrmKaoRwVzbwL09TcgEgqBpfAx313IvdJ8gMXO63T5Gcw0byhogwua50iGfsKFsX2NiUbYggjCANEAEUQD1abcq+bqnmWvraI1rC0HQND6GG9TsC/YKaBDh3nLLNWxIa4EIPoFznjKzKD9Y7klmDqmACPdU2qHFof3uNmbPy15b0SNWgAgQBBUGIIJgr4Cr2U9ABEkA3acEIpwvt93DZtJXzjOL8oPmdSUzh87lDyJYki20OHTgNnttBY9Xta4tBEHTdgfkW7PvulltQYSQ4EkNdVMDEc67Bw5helF+yCzKkplD5xRAhFOVqqi77WTFHzJxvM4a1xaCoClTZs2+o6nT7XaB8QkbyiogwnmzKMsCiAYR6ktrgnlDifN+rxYiEAwHTMyCCPeK7m4BIkAQtHMXVO5Jho2xIMJ9la5r2FC2A99yX5QtiCAMoM0LDIgQPm8osW1ryP3aCoYDDlzd89oGWOPaQhA0lQGUsVktqNnfOFNuhQTPrpVABI+wufLIpFkQ4ZwJclHjtgKIMD5Cwbe77XQGiBDwWFX72kIQNGVKavbvkQwaY0AEO7JaEkD3K4IIjmFDmgMRzpnXFc0dUgARTIDI5jNlgAgBj1VTBogAQdAeNfvSzWr3sCGtAiKYAHEOG9r0onzOLMpBw+76Xq8rgQghwZM6YCq+towBIkAQtFuzLxg2xoIIHmFDWeWA5vlKVRhAPIjgN2Nownm/1wRE8C4MHTUJInDX1sMa1xaCoGm8CzpZ7kmGjbEgwv2Vrk/gTIysPqsAIlwoHZIGEAsi+M0Ymiw81QAR/AtDx9HqKvm6Z8y1FdzhAkSAIGgQQIPN6vC9AhpEuL/ccg0b0vfrbFZ7Bc6jk964wCzKdRPkgsZtFRDBjlAQzGe6ci+z58VBJs4/OAAiQBBU2KNm3+UO6FQGiOAaNrRVNqvtPo5r2DBuMAHUls0dUgIRRPOZGBBh59oG3NlqXlsIgqbtDuj08prKZvXZyqogfBKrgQiPegXOuHkQQTDyYf1hBRDhvkpVOh6Dvbahd7aK1xaCoClTAiIIN6up0+3JZnVo+AwmjKqACBcqVWEA8SCCwsgHiRIQwTd0xvDqzfsZEEH44wIgAgRB/cXzVLnnvVmdeqyzfpoBER6odF3DhrIaiCAMIBZECB35MDyPpBC4/oWh464GX9sMa1xbCIKmMoD22Kzeew+BBxEcw4a2EojgGzoXRs2CCA+bIA8a9dD3+nkFEOFec20F/W0siDB+bb1/ZABEgCCoMAARAiZcDu+A7mVAhGRktXPYTPqBsg6I8Gi57Ro2pC8yi/L4yAfvvjkFEMEEiGg8xpkKP47c8452xErXFoKgabsDsiCC1ma1a9gw7p0r5g8iPDoAES4E+GJielF+2CzKgrLT9UeUQARRd5vvtXX/gaFxbSEImjIlIEJo+GTU7Ceb1R5hs28jqy2I4B42pMnXfWRpTWPkg0QWIhB2t/Eggs/dLHGtASJAENRfPO8t9wKnXPZr9s9wIEK56xo2lO3At9wXZQsieIQNZRZE8AycyTNJCoErrM7ZuD8DRAj8YaF1bSEImsoAGmxWe064TJkGEc6WW65hw1gHRLjoHzpXLi4NvXGhRC/K502Qe4x4mKj6eVQBRDhjrm14+Fy/cobZ87LXNvCHhea1hSBoysTW7LsOGuNAhPGR1f7WAREultuuYUO7xIMI5wVdc48qgAgmQCTN5CyIEOm1hSBo2u6AziyvCWkpfrM6ZHFKTRdVAREulhvuYUP4UolclK88UqkLC0/zBxHur1SDe9sGdFuu1zZ1jQEiQBDUBxGEtBQNIhT/wydsKKs0RV8oVd3Dhjb5uo8srYkC6FElECG8ty0xDSI4XNs9rrHGtYUgaBrvgiyIIKClWBDhwXLXNWwmnIysVgIRPMKGMgciSNq2E2uACILetqS54AGHa+t7jZWuLQRBU/kYTrBZfSYDRHiw3HJdkBjrgAiX/AJn3BuXaBDBhEtP0LatAyI8YK6trL9tqq4tBEFTpqRmXxBA6/dngAjuCxJlHRDhUqktCqHHaBAhs2nBKYDyBxHY5gLHGp31s9N1bSEImro7oOU1yaRLa3JBPldZ9VyUJqwCIpgAEQYQDyLICk/zBxHOmmsrKIa1nqZrC0HQlCkBEUSTLuma/WSzWrhIqYAIl0pV97ChTb6uBRFCw2dwMFbl2gYXw/bP+Khc2zpABAiChndB5Z5k2iW7WX2u3PVdmEZHViuBCB5hQ3nzCQJEuFQphrRsj1gDRDhrrm1IKezA6w+UZdeWHUcOEAGCoMIARJBNu2wyi1TLd2Easw6I8Jhf4IybBREeLfe8W7ZT3ryoACKcNdc2oLNt10vu19ZvOixABAiCBiCCZNDYA8xmtR1Z7b8wpa0DIjxWastCiAERbNOCX8P2aNfcJSUQIaCzbdjddjbj2tbju7YQBE3bHZDLZvUeJhdku1ktW6T0QARZANEgwoVK3bdhe8wKIMLSWmBn29Aq1/ZhgAgQBBWIzeqAiZfsZrVggbJWAxF8AufxSZOve3FpTVJ2ap37tbVt3bLuNvm1ZSbFAkSAIKi/eD5Q7oWiusmZEQ5EqJe7oQuUtR34lvd7tRCBT9hQZkEEUdmpBSIUAvdBc20DO/ms1x8su1/bhx19XufaQhA0lQE0ODUfOvHyAWazul5uBS1QuwtVW+P9+oTNiJ/oe+MJBkS4WO4FlZ3uVP1ogAgPltuhnXz9Q6bMtT1vrq1j2DAGiABB0M5mdRiqm+C63Gb1+XLN51cx4Z5KAD1RaruGDenHORDBvG5g0WkSQBogws4IBY++trTXzzHX1o4jdw8bygARIAgagAg+qO5Zj81qv1/FE7b7GLkHkAkQ57AhzYEIS/XQotPBeaT8QYT60lpAX9uIyff6iLm2wnHkABEgCOpvVgtwXW6zevCoRrRI2ZaB3BflJ0pV/9AZNfm6FkQQFp6qXNuH8m+lSEAEwXXVGkcOQdBU3gXZU/PhtBS3Wb3+SLkjWajUQARhALEggjCAVECEc+baCgJo/RwDIpwvd93DhjJABAiCCntsVjuZ26xeaob9Oh5aB0QIDZ8n+2ZBhMeWep6P3Uarfh5XABHOmWsbWInUdwaI4Bw2pAEiQBCU2qwOHKW9/lAGiBD063hoPRDBMWxoMyBC1sgHl665xxRAhJ1WisD6nPU6fW2l48g3HwWIAEFQYXBqXjhKm1mkVgN/HQ+tBiI4hw0ZQDSIcGmp7ltwOmYdEEHYSsFdW8kocmuACBAETZ6af8gf3eVOt0t+JVurgQhPhgTPrsnXfXxpTVp4qnJthdU5HIggGkX+KEAECIJ2Fs+Hyj3BqGV2s9osQh3RL+VHlEAEYQCxIIIwgFRAhLq5toLqHPsolfw7Plruho4i17q2EARNYwBZECF81DJ7at6OnBb+UtYBESQB9NTS9Y3LGSCCoGtOBUSom2srqM6xMAn5Xi+UW6JpsBcAIkAQVMjYrHbHdTvMr+Sa12OZSeuACE+W2q5hQ/oyAyJwIx9cu+Y0QASqucDjkLDF6em7W8E4cjsH6QJABAiCCoPNasGo5czNasmvZLtZfUkBRHiy1HAOG9IMiPD4Uj20Z25gHRBBVp0ju7YZ85EAIkAQ1N+sFoxatmZBBGEAqYAIl0tVv8CZNPm6FkQI7ZnLaFoQX1thKwUFDCQggs/ocWpW0iWACBAEFYhT857EFAsiPFru+D6eGbUSiCAMIBZECO6Z28HCFUCE8+baBtfmJOd2aBDhQrkbMgV26AsAESAIKjCb1V7OABECHs+kFjAdEEESQJczQIQnlnqiqp8nFUCE8+baBtfm2ADKABHCpsDuFLcCRIAgaAAiCAJo/eEMEMHn8czkYqYDIjxVaruGDW0GRHBpWsgKoKeUQITw2hxrGkSw48gDJsDuePPiEkAECII8T80zJBW5SNnNasljmotKIIIJEPewIfx0Bojg2S835vxBhEeW1qSHgsn3eslc25AJsKmRFQARIAjiT817TDLlTreHP6bpL2h23EHui7IFES77hs6oyde1IIJ3v9zeTQvSaxtamZPVXJCACB5hs18t4BAETeNd0MPlnmSSKXdq3gRJR/Koxg58y/u9bjZKh3zChrJ9jYlF2YIIwqYFDRDBlrsGVeYMzIIIF5e6omF8l/K/thAETWMA2c1q0SRTBkS4tNQMflSTLGolHRDBI2wosyDCk0s9UdWPAohgx1sEVeYMA4gBER5baonmID0GEAGCoMLkZrX3EDlms3rzYrnmuzcwtkjpgAhPl9qh4ZO4wYAIrk0LzGFYDRBB1FzQNw0i7LSAh4WPbX8AiABBUH+zWnpokV6k7Ga1797AqFVABBMgogDiQIQnzaIcWvPTtw6IIDqPlXFtAwbwpd1rAESAoBtevqfmmXHLq8wvZdHIajUQIejOZ9fk6z5lFvvgmh++aUF0be3elOQ81gW6uSABEQIG8Gm3gEMQNI13QcypeY9plzSI8NhSRxhC9bzfawIieIQNZRJEaJjFXti0oAIiPFruBZzDGto+SiX/jo8tdWVjKAAiQBDUD6C2bNxyBogQsEewayUQwSNsKG80GBDhqaWeqOpHA0S4aK5twDmsYQBdygARQoJntycPIAIEQYPNatmhRR5ECNwjGFgHRGiU2iHBs2sGRHBtWmAOwm5eVgARnJsLWFKRBxEC5h/tzkECiABBUCHw1PzYngK9SKU2qwMf1aiBCLIA4kGEoIqfgTVAhIvm2vqewRqDRthrGzD/KF3aChABgqC9T827jVteZR7ViEZW25aB3BflRqkaFDy/sC4lJl/XggghFT+Xs5sWRNfWgggeYePaXGDDI2D2kXoLOARBU/kYbnBqPvTMyCN0zX4CIoQGUH8Rq+f9XhMQwSNsKLMgQkC9z+ielAKIcHGpJ8HhWRDh8aWu7+yjET8OEAGCoMKgZl9yaNH878lF6rGlpufm9NgvaCUQwSNsKLMgwmWz2HvW+4xU/VxWABEuldoSGpEFEZ5YaklawO3/Ht88CILCTs2nqCo7qIz+lVyu+WxOE9YBEX5hFmXP0BkzDSIImxY2GwoggrC5wN7Fkq/r0wJOlLRuPgUQAYKgwmCEgucp+XFTNfvJZnXABnXaKiCCCRBhALWZO6C6rGlBCUQQNheQ7/VJc23Dxk8MDRABgqD+6XbfU/Lj50mY0+1BG9Qpq4EIoeHzTN/065rFXtCywDUtiK6tBREUmgsSECFw/IRmCzgEQVMo+xhNMkTOnjlhAqgj2ivQAhE8woYyCyIIWhb6VgARHlvqSWhE+yiV/Ds+tdQVjqKo45sHQVAfRAgaIjekq2gQ4YmlpmyzWglE8AgbyhvPMiDC02axfzr8nNFmQwFEeKzUljQXWJiEfF0LIghawI0BIkAQ5Hpqnj9HYgeVkQH0ZLkm2ay2s3ZU3u+zZlH2CZ1nJ0yDCMKmBTUQQdBcYO9iydcVtoADRIAgaLBI2REKoQPkBiMUKBAhj81qLRDBPWwo0yBCwyzKkqaFX5TyBxHs2PAQEjF1jegAMtdW2AIOEAGCoD6IIDoxz9fsSzerbctA7ovys6WqR9iQJl/XgggB7Qpp535tLYggaS1gmgsSECHCFnAIgqZQ9jFa6In5rBEKJkQ6sW1WJyDCs7IAYkGEgHaFETcWc1+U7Zmq4NaCJ/i27gRECAme3QO7dXzzIAjq1+xLZvg8xoAITy01RQH0lBKIIAwgFkRomMVecM5os7GYP4jwRKktgUEsTEK+7lPmM+PR+k0YIAIEQfJT83ZQGRlAFkTwJ6TS1gMRfIPnuZQ5EEHYtLD5i1L+IEJIc8HoteFBBJ/W77Gaos2nASJAEFQYG6EQeGqe2lSe2KwO2LS2j7YUAqjhHDa0eRBBdtBVB0QQgCDWdACZayspYH0aIAIEQYUBiKBwan7wqEa0Wa0GIriHzYQ3n8sAEYQHXXO/thZEELUWZIAIggJWrRZwCIKmUPYxmmiODwciPLXUkdFSCiDC86VDPmFD+nkGRBAedL3ynAKI8ORST7IXx4IIT5vPjKQDDyACBEHJImVBBEkAPZ4BIghGVtumaZX36xM2lDkQ4ZlST3DI1byuAojwZKkd2Fiwc3CUBhEum89M0J3P0AARIAhyPDWfcaDRDiojA8iCCJKR1Zd1QAQTIu1N39D55YhpEIFrWnBFvJ9VABGymgvcfhR0mACq+5aujrU/AESAIGgAIvhXtYyYBRGEI6s1QASz0Dc8woYyDSI8YxZlCeb9nAKIYMeGPynbiyPfa8NcW+/S1VEDRIAgqL+pLJzhw51ul46stpv7CgFU9Qgb0uRi/5xZ7J/Nv2lBdm0rRY3mguQzI6kfagBEgCBoZ1F+fKkrmeHDjVBIQAQJMXVZB0QIDZ6hORAh/O5nYAUQ4amlXtAe3MDc2HD7GM2/9y7VDtEAiABBUCE5tNiSjVBgQITGUlM2MVQHRMghgKrk3/HZUs/rYOs4DPFLBRDhqVI7cA+uH0BMW7cFCUJ673a9CBABgqDAU/OjtS00iGB+PQtHVuuACL8stQODp+8XMkAEv4OtYwGkACJYYMBz781lbPhIC7hP791u+wNABAiCHEco7HGKngQRxjerA8gpFRDhl6WGc9hQfoEBEZ4zi7LsnJEOiBDQVpA2HUCLq5L6IWuACBAE9TeVBZUt3Kn5ZKESjatWAhGeL1Wdw4YxudhbEEF4zij/a7vH2PDA5oLkMxNePdS3Qgs4BEFTKPsYTWOEgn2EIySm6goBdMgrcF4gzIAIwjNGOiDCztjwwMOj3Nhw+xgttHqob4AIEAQVkiFyLVEAZYEIogBSAhF8woYOoCr5us+VeoIzRjogwtOldugj0Kyx4RYk8K4eGoEyACJAEFTY49S8w2l6O6iMDqByLWxU9XBjWwdEeKHUdg4b2g0mgNqSM0ZqIELgI9CBaRDBHr71rBwaa38AiABBUMYIBY/qFhZECBxVvbtZrQAimAARBhALIggx7/xBBJ+x4YzJ92pBBM/KoXEDRIAgqL+pHDC3Z69T8/2FKnBU9cBqIIIsgMhFeeu5pTXpOaP8ry0zNtzr4Ojk3lTymRG2P2jseUEQNIWyj9E0RiiYBawjQna1QASfwHmRMAEiXHuxUgw6W5SyCohgx4YL7kK5seH2MZpoyuxzABEgCCoktS0t0QiFywyI8ItSUxRAzyqBCD5hQ7tKvu4vSz3vs0Vpa4AIjVJbeHCUBhGeXWzJpswCRIAgqDAAEQQjFDYvcyDCYi3onMiu9UCEF70CZ9QvMSCCbVrwPVs0GoD5gwiSseF98yCCZ/PDGBkIEAGCIMEIhafTIxQoECHj1LwjvqsCIpgAEQXQiwyI8PxS3ftc0ah1QATJoVFmbLh9XBg0WTZlgAgQBPU3lQXjE7hT88lC5TumeuxRjm0ZyD2AXixVhQFEgwgvLK15nytyABxk15YYG+77Q4ADEUImyyofvoUgaAplH6MFj0/IGKFgFrBO6HmRxM8ogQj+j91G/QoDIggJuysvKoAIvyj1wg+N8mPD7WM0yZA/gAgQBPUXqctLLVFvWBaI8IwI2dUBEXzChjIHIrxQ6slCSAFE4MaGPyMbG25BAsmQvyvPA0SAIKjAnJr36g1jQATz61l4ZkQHRHhxACK8FOwGE0BtEeKtASLsNBfkPDY8h8O3ABEgCPIYoZBxpoQEEexmtXBiqBqI8JIogHgQQYJ4v6QAIiiNDbfXNni20sAAESAI6m8qy3rDeBDB+5DiqNVABFkA8SCCAuAgu7aeY8Ppczur1GcmeLaS4uFbCIKmUPYxmsYIBfsIRzIxVGOz2kIE3qHz8pg5EEEYQCogAjc23HlqawaI8Mvws0/2jhHfPAiC7KHFVnD4JKfs6U1l2/QsnBiqAyL4hM3LZABVmdftCQ65mtdWAhEk14Bp67YggeTs05UXACJAEFQYnJr3LascrW2hQQTz61k4MVQHRHip1HYOm8nwsUHRYB7vtYPQ7l3nDyIwY8M9zu/QIEL68G0Y+QcQAYIgZoSCZ38YByJIpoVa20dbuQfQy6WGc9i8skiZBhFeNItyCNq9axUQQfL359q67eNC6dkngAgQBPVBBFlvGHlqPlnsRdNCS9e3NECEV0pVj7AhTb3u1stmsVcAHCS6xo0N9zm3w4EIvqGzD3teEARNoexjNFEAMc0FZrHrSM6MqIEIHmFDmwERhAGksSgnY8NF53YYEOGFUlfSMG7vGPHNgyCoYEECUYP1szyIIDy0qAMiyAOoSr6uBRFElF3+IELS1h369+/v89AgwguLLc9xFqMB9BJABAiCChn1/Y49YpvP8CCCcPHTARFeWWyLAuhVBkTYARxCKTslECF0WN7ANIhA7Xn5GSACBEGDEQqC9mprFkSQLX5KIMJiwyNsKPMggg/SPbIPlfzzcgcRyLHhnmd36Pdqrq2w3LXXBIgAQTe8EhBB0l79LH+6PXjxGyyAtmUg/zugUtUjbEiTi70FEdzDxhlwkCjZm/IdkufQ1p2ACMJyV4AIEAT1F+VnSl1RdxgHIjxf6kgWQI1T8wmI8Kpf4EyYAxE8wobylVcVQITnSz3PIXlObd32MZqk3BUgAgRB/Ucqzy62ZOWVDIjwfKkZMCU0bR0QQR5AVTrcFnvC/aX8QQSftm6aaqNBhJcWWyLqDyACBEHJYmLr+wXllVzNfgIiyA4t6oAIry62hSHUYAJIBji8spA/iMC1dbue3XkpA0SQdesBRIAgaI8RCo59YiSIkMOpeRUQwQSIc9i8RpoGEV5erAfc9aSdP4hg27rD5hRltnUn11bYrQcQAYKgPojg2Vo9fsKeBRGEp+bVQAT3sCFNLvYvL6wFUHV7Ag4STYwNz6mt24aHN/U31jqhsecFQdAUyj5G82ysHgsgBkR4odSJ7dR8AiK85hc4E+ZAhACqLm0VEEHS1v1iBojwcqkb0Ke3G0DmjhHfPAiC7GO4lmdj9Wh1zvMMiPBiqSk5NW+bplUCVxpArzMgwquLPeH+Uv4ggmtbN49SN5lHjq2QPr1hAL0CEAGCoMLg1HxAY3LKNIhgfj2Lfn2/pAQivLbYFgUQByJIAYfXFECEvZoLAtu6g/a8RqELgAgQBI2NUAis0GFBBFkA6YEIXnc8Y/4VAyK8ahZlr8CZsA6IEDYmIrOt2z4uFEIXABEgCBqcbpeVh/IgQmBdy45ty0DuAfR6qeocNozJxf61hTVPos4JcJBIq607ARGE0AVABAiC+ovyL0tdQXko21xgH+FIBrapggivB/hXAzcZEOFV2f6SGogQfmaHbeu2j9GE0EUd3zwIggoWJJCUh7IgwkulpvAXuA6I4BM2lDkQ4bXFngxwUAARstq63RBqGkR4xXxmBHteABEgCOovJuP1/Z7NyXZQGbn4mV/PwgDSARF+tdh2DhvKTQZEkAAOyb+LEojwkndDd9o0iCDe8wKIAEFQYQAiCJqTrVkQQVbbogMimADxDp1R8yBCCNiwYw0QIautWzCOPAERhHteABEgCOqDCKLmZL5mX1rbogYiyAKIBxECwYYswEGiYVu3AJum9qYSECHCPS8IgqZQ9jGapLstE0TwHdaWOuCocWreQgSiAGoyIELTLPYhUEPKV5oKIIKkrTvjkKx9jCYMoDq+eRAEFa68sNgSVPezNfsJiODRE0ZYB0TwChvKDIjwulnsfaGGEcBBAURwbev2PCR75TXzmRGcqbryOkAECIIKHvX9/HkeHkTw6AkjrAciOIcN6Ybz63rdXSmACFRzgR+1xoMIojNVABEgCCowIxQ82wtIECHk1PyY1UCEpnfopE2DCK+bRVm2v6QAImQckhWMI0+u7WuyR44AESAI6oMIL4rKQ3kQQTYt9Lrd3M8/gEpVYQDRIELTLPaivSUlECG4o44HBhIQIeQclfKeFwRBUyj7GE0WQAyI8MpiR7IHobFZnYAIkgD6dQaIINpbUgIRXNq6Aw7J2sdokjs+e8eIbx4EQQULEkj621gQ4ZWFpnAPQgdE8AkbyhyI8Cuz2IfvLVnnDyKMt3V7U2sMiPC6+czIAgggAgRBGfX97gdJu8ziVxPuQeiACE2zKLuGDe2G8+t6WQFEcD0ky7vDBFA95DFj6r0CRIAgKLC5YMzUpnLmqXlH20dbuQeQCRDPwBk3DSI0zaIs21/KH0SgDsl6otPMe10NecyYNkAECIL6m8oK9f2Du6DgDXBrNRBBFkA8iBC6r5TxuhIle1OhFUE753Y4EOFXMpgDIAIEQf1F+aVSN7y63wTQywyI8OpiJ3gD/DVFEEESQG9kgAih+0oDq4AI6bbuEHSaAxGaC11hANXxzYMgqA8ihFb3JwHEgAivLTTDN8AT64AIPmFD+U0GRGiaxT5sX2kAOCiACOMt4L7oNLM3ZQKkFXqnl4TtrwEiQBBUGIAIL0vq++lNZfvrWbgJrgMi/Nosyq5hQ5kBEeyiKrm70liUE2AgdARFxiHZzD0vp/cLEAGCoMIARBDW97MggmxYmx6I8IZn6CR3PkPzIIJofyn/RVl0SDajBTwBEZqyvTSACBAE9TeVFer7+4/hwkord6wCIrxZqnqEDWl2UfbdTxpz3ouy8yHZDJKN2ptKPjNCmAMgAgRB/UX5lYWuKICYEQr2LIlkXo7GqfkERPAIG9IEiJC5KDveZamACOOHZP2xaRpEMHdskrC98kb+1xaCoGl8DPfKYitgZsxudc4rDIjw+kJTUlzJTSKV3wUFBs/QDIhgF+XwR3sqi/KwrTvnQ7Lsnpdr2AJEgCAoWUyo+n6fCp3XMkAEyaycXymBCG+aRVkWQjyIIHi0d+VNBRBB6ZBs8rqBQds3QAQIggqpEQqC5gIWRBBugquACCZAgoLnN0PTIMIbqUU5KNiUQAQBMs0dkk32vAKDdscAESAI6u9fCKtzWBBBGEB2Ac0/gEpVj7AhTS7KvzGLsvDxngqIIEKmM0CEN2Tv1f698O2DIMgeHO1KqnO45gJ7lkQyK0fj1HwCIniEDenfMiDCm/EtyskhWQm1xoEI5o5N+F7r+OZBENQHESTVOa8xIEJzoSmZlcNNIhUvyh5hs5V4YcRm8a2KF2Xin6WxKJOHb/3OKNEgwpvmMyN7rwARIAga1PeLqnMyQATZrBwdEOE3ZlF2DBvKLIjALcqOYaexKHsdkqX3dWgQ4Q3zuoL3uvUWQAQIggo5NBe8xoAIO6fmBdYCEVzDZsJvLVy/+tYCDyIEPNJLvbYOiCBAptnDt3bPK+Q9pgwQAYKg/v6FoDaHq+/vP4aTBZAOiLBQdQ0bzqGL8l7/TBUQIRiX5vemks9M4HvcMUAECIL6i7IFEQQzZLjmAnuWRIIBq4AIvy0d8gkbyiyIELAQp/8dVECENxZ7obj0wDSIYO7YfN7bhAEiQBCU/Hp/bbEVVJsz2N8xAcSDCAIMmJtEKn409ZZ/6IwG0EKVed2u6O5KA0QQH76lQQTzPlq+d44j/u0CQAQIgsbq+4NmyDAgQnOxJiyvVAER7D6OKIDeokEEclF+62AXZRYYcCfYOvR7XawLgxwgAgRBAxAhrDJnaBZEELYnq4AIJkCCF87fLly/+jsaRIhxUTYhuBaKS+91+FZ6JwkQAYKg/v6FsLmAa3QOHoE9sF1Acw+g3y5UXcOG87QsygmIEIpLZwAD9t/TN7jHDRABgqD+ovyrhW5wAGU0F5hA6QSNwFas709ABI+wocyBCKF3VZqLsgmTnoTQu/rWPAkiJHtensE96vyvLQRB0/gY7vXFVsjgslR1Dg0i/HqhGTQC+43sSaTiR1OegbP1u1FnggiBd1Vai/L44dsAeq3J/A1boX+/gQEiQBA0ABHCBpftzI+hQYQ3F2uScyjGOiDC7xbanovlaAD9jgER7KIceFeltSgne1OCc09bb83TIIIJy9C/38AAESAIyqe5gAURZOdQdEAEEyCei+WIWRCBW5TdF2kVEEFy7ok9fPv24mro32/HABEgCOqDCMIAYkEEYVO0GoggXDzJRdmCCOF3BCqL8rW3i0UpHMGCCMK/oQ0xfPsgCLIHR7sazQX2LImovv8N+nVlAVQ6JF08WRAhwkXZhEhPAkewIIK5Y3N+b29Tzv/aQhA0nY/hWqIBZr9mQIQ3F5qBE0gzJ5GKF+WQgEgtnptvL1TFizJlBRBhz8O3ez82bDLvteUeNoTfAYgAQVDBs76fnh/DgwiBE0gH1gMRvH+xpwLoHQZE4BZl13/WO0oggi8cMfLvyIAI5g7GOWxoA0SAICif5gISRNgZWS0YBnetWSzm/hjOggi+v9hTvvp2BoggCDaNRdn8c9cCoYjsPS8LIkgC6J2F670WQAQIuuGVgAiBjQXDg6MciOA5eZRw/iDC2wtV4a/3vemwwNdVARECoYisvalkz8sjbCgDRIAgqL8o/3qhKxlixgEDCYjgMXl0AhnWaIq2IIIwgMSLssfr5nAX1JPsTV39HQMimDs217AhDRABgqDk1/uvF1sBbQW7xNqbNIhgT9NLDkNyk0jFi/I7ZlEOeGy046vveCzKXs5/Ud5zz2vvx4RN5m/Y8gqcd8b/hjrXFoKgaQsgcwcT0FaQnh9D7l9YjFd4GFIHRHjbLMoBj41S5hflwFAbOH8Qgdubcv53pEEEG8KSANr6vc61hSBo2gJop7lAcG6HAxGkhyHtPkbui3Ka4gpaQAPoMLfX1gERtPa83MOGtMa1hSBoypSACMLmAq7RWRpAdgHNfVH+vVmUJb/e39mDDhO8bt50WAIiCIk1bm/KJ2wm/IfkP9fw7YMgyB4c7QZOz0x8hQEGbKmlZH6MxgHNZFEWBhAJIpjw0HhdceC67nmx+zXMnpe5E3QOG8q/z//aQhA0jY/h3lxshU7PHAQQDyII5sdwBaC5LMphexeJ+UV5oSvYF1FZlMk9L79/N27Pq+kcNoSv/gEgAgRBhQGI4D09czENGPAggmwOjw6I8I5ZlAP3LhK/I6TD+NfOH0Swe1OiO7MMEOEPfqEzZoAIEAQNmguEB0dZEEF4Gl8NRAjZuxg6A0QI3RfpO38QQbLnNfj3Ij8zfzTXVhJAfwSIAEFQYQAi+LUUTKDVLIggPI2vBiL83nPTfMzkomxBBOHrqoAIsrsyHkTwCBvS7wJEgCCoMBgtHTxBk28usKWWsTVFJ4uy76b5mO0dwESQWxBB4XXF13Z8z8szIK/+kdnz+oO5tq5hQzr/awtB0DQG0G8WWpIJmnY0Nf1YaqEZHD4ZBaA53AX1JI+Q2EX59ybIJY+mNECEPyy0g2m1vpvMHVDTL3BGffWPABEgCCqM1feHmQYRfjdfE1TB2F/sOiCCXZRlm+jcotwSvm7+IIIJtVBarW8GRDAhLAmgrXcBIkAQVBA2Fwz2eUgQId0UHdgYrQIi2EVZFBQMiCB53f6irAMiyEKRBxHcw4b0tRZABAi64ZU0OgcfGO2bBRGEdTBqIIJvOIyZXZQlG/N/VAIRQgNxYG5vyidsGANEgCBoACIEHBgdUm4MMJCcmo+sKTpzUXb8Vc+CCKKNeSUQ4Q977HntuV/D7Hm9a67tu96hs2uACBAEJYvJbxdaAYdF0+ZBBEFTtFZ9f7IoizbRuUXZBLlkb0RhUR7Z8wrbr2ky77UZHD7vmb/hn24GiABB0KC+P+CwaMo8iCBritYBEf5oFmXZJjoPIkheVwNEMKEmC0UGRHjPXFvHsNl6b54yQAQIghhgwNMsiCBsilYBEZQW5eDX3V2w8wcR3l1YE/z7JCY/M3bPyz1sJv2neYAIEAQNQARJAL3tWd/vVwuTP4iguSgHUmE7VgERBP8+1iyI4BE2pFsAESAIKiRDzLqiczsMMJCACII+Mo0DmlqLcgIihFNhmYu97I5vsOcVuGdjH7fRQW6urWvYUH5vvo5vHgRBNoBaonM7zGjppL5f0EemVd+vtyibII+MDrv67kJb9O/E7Xm9N9/0CpwxA0SAIKi/mGSNlnYzDSLY+n5JA7VSfb/aovyuCXLZ6+qACF6U2thdzbsZIEJoALUSA0SAICgFDAhM7V94NUUzZ1XUQARRUGSACJ5I8tiCrwMiuIYNY/Iz0zLX1j1sSANEgCCoDyIIzuxkjZaWtET3izqVQISA8yt7LsoUHeZJieUOIphF3idsqBCxYUP+HT3ChjZABAiCksdwC13BmR0eRKDq+w+4KXq4KAvCggURfJHk99wWe9G1fW++50Woje/XcHteLXNtWyHBM3Qd3zwIgtxHS/OmQQRb3y8ZgaAFIry70AsKi4HZRfm9+W4QlqxIh9kNfwkwYIEDJoCaweHzvvkbvg8QAYKgAjNa2s80iGDr+wWFmJZY03i/yaIsOcvCLcrvzbeCsOTd180fRDChJgqgFgMitMy1dQwbxgARIAgaAANBZ3V2TYIIezVFOxwEVQER7KIseCxl3FFZ7P+kACK0FtY8CbUJk58ZCyK4hw1pgAgQBPX3LwLO6qTNggiSQsw/6tT3JyCCLChkdFiGVUAET0Jt3CyI8L5/6IwYIAI047r2aXH16qfF2taf55tX/3xzZ+svRXzmycXknYWu5zkdJ2DA9qfF1hTNLsoephblJMjDzsXsudjL7oLmuxrAgAmRTnD4fJC4jm8eNKthc/XTm6+Pe+tTfObpRer3Cy3fczouo6WT+v7wu5/r9uCoyvv903xPdJq/xYAIfzKLfcC5GE06zLxmSwIMGLeYAGp6hM2Er34IEAGa3bBhjM88HUCLde9zOqPmQQTBCGdLrGm8Xy86jF6ceRDhT6K7jfxBBBNqQmCAvrYWRHAMmwl/mBggAjTLYUMZn3lKzqOlM8yCCLIRziqb1Sww4B4UHdFizzt3ECEPYIC8tvZ13cOGNEAEaIbDhvS1/8ZnfkLkaGlPbJqt75d1pOmACJYOkwWFOx3m+cgrbxAhubZCYIAFETzChvRHABGg2Q2bof+ya4AI3KL8h4WuDJterNMBNN+JrSk6ARGEAcSCCH77K86Lvejavj/fFcACLDBg/vuOd+ikDRABmuGwoQwQgQ+glgibzgIRBN1rWvX9tpVZEkAsiEBRZ154sgKI8P58KxQWSMyBCB/ON4PD5yPzN/wIm7LQ7IYNY3zmycVEOrKaGS2d1PfLijp1QITWze0AIiztZvBin20dEMEXFhgNDPrafmiurWPYMMamLDTLYUMZn3lKTqOl9yDYWBBBWNSpAiJkAQNuQdFxWuz9rQMiBIICOyav7Ufmdd3DZsRXBwaIAM1w2Ez6s5uvX2vjMz+hidHSAWOrWRAhpHNthE5TBBEEYcEu9rL9Fh0QQQILGNuwIf+OHmFDGSACNMthQxkgArco29HSgbh0FjCQgAiCos7N1nwj9w+5BREU6DAn6myPx18qIMKH810NYMAETMc1bEb8cd/mf1PHNw9hM6thQwbQZ/jMcwGkMlraNkiLmge0QIT353uSAGJBhDR19oGnlegw87otX0hgzPS1/dgsHI5hQxubsgib2Q2bq38ljc88uZhIRlZnjJbebC1UhWMBrmu8XzuXJvQx2YAO40EE2SHN/EEEE2oBkMCuP2ZAhI/na+5hQxqbsgibWQ4byvjMk/sXWaOlJ8PGebT0Zqt4SDoWwL5G/vtAGcCA2x1Lh13sZYc08wcRdoABT0ggberaXjOvGxA6I8bpcITNDIcNaYAIhIajpR3DhoIJ2FPzwrEA9i4q/wBaWAt6TJYKlMzFXmAVECEAEkj7GgMiBIfPJ31v/T+ACAib2Q0bylttgAgFZr+mGzwtNGO0tPe5m4kAUgIRhH1mFB2WLPbCAOKoM9G1/Xi+6wsJpM0BA+b/r+MaNgN3jVv28d01hfcJIWxiCpuh27veagNE4AKoJZgWyo6WtgEiax5QAhE+mO9JEGV7GJN83VDqbPfOJPcPqAmWlj8kMBIiPIiwR9hsfTJft2GT950dhLCJPWwYA0RgAkhltHQCIoTNo8k8dyNelD80d2ayu5UmE0AtQUMAS52Jrq0JNeF+DQ8iIGwQNggbHwNEIPcvpKOlWxkgQtg8mqFVQIQsOsztfEzH6XU/8jO32IsWHikw8Al9be1/h7CJU5t/Lh669udi9er/zDdM2LQRNgcSNqQBIhDyGi3t0RSdLMqB82h2A2ihmv9dwcKaKIA+ygARBMQZR51Jr60vIDB+Z4OgQdggbIT+W98AEbhFmRot7ff4jNy/8D53Mx5AHyiBCOGHMxOzIIKAOMuizkSPHC2I4Bg2eIyGsEHY5BM2lAEi8PtALeG8HBpEMAESHEAf2A1/JRDhw/leaKnm4HFZjV3sA+ppNGtqEvoMYYOwQdjsa9gwBojAPCpTGS2dgAghjQMpa7xfO5fGe48mXaj5MQ0isNTZRzLqTLoPhLBB2CBs9jtsipQBIpD7F76jpYkQYUGEsMaBoTc/UQARzJ1GaJvzwB3udQPraTKpMwhhg7CZurAhDRCBUOZoaUFTdLIoB7QNpL354UI1/wBaWAvZo0nfzXB3G9KaGtypIGwQNrMRNlf/PumtzwEicI/huqJxBRyIYM/dBA5F6weQDoggaQhI+swYEEGKPaMpAGGDsJmNsCED6O/FOr4xVAApjZZOQAQB9qwFIphw6QU3BHy8B4jgjz0PAQEEEMIGYTMbYTP05yMGiMDcAdVFowo+YECEDxeq0p40lQD62CwegrsVFkTod545hQ1oNIQNwmamw4YyQARKmaOlHfdwSBDhk+IhYUeaGogg3K+hQQQTKggbhA3CBmHDGSACByK8HzaiYK9GZ2FHmhqIIAUGyP2l/y4WETYIG4TNQQROfGFDGSACtyh/MN8NGVGQ6knjQYTQjrSPkgbq/EEEExQhs2zSdzYad2YQwgZhMzthM+Iv+t76AiACDyJ8INqvoUEEEyCSjjR7cFRnH2i+5wMI4M5mekIHYYOwiSFsGANEYO6A6kJggAcRBB1p3OMucQD9P7NIIWxmUggbhE0kYUMZIAIJIoSOlk4FCwciSM/daDzuuvbJQhVhM7MB1EHYIGwiCBvSABE4EEEIDHAggmgypz34+Un+IAI0w3fzf5lvImwQNjGEDWWACNwXNz1aOqCsk2t0lp67MW7g6swmIGAnduZ/B1SsIWwQNjGEzbUvCQNEYALoo/lWOCyQuMVs+DdkAYQq81kIG5pGU6Ac7RhqhA3CJoaw+bLY3f5HsWVDx3i118aj/qwAqgfBAns0Oif7LYH9aDvG1ZmFsCGtQzkibBA2CJvpUtLoHAgKZDU6JyBC4FhoAAIzFTaklQKog7BB2CBspkhJo3N4QedgsufCGvMYDmGDsCFtX1sFREDYIGwQNtMl50ZnNoAYEKF/7gZhc4OHDUWjXfusWM39c/xZsYawQdggbKZtH+hj88tRMNPGBg3+iggbL/RZC0RA2CBsEDZTdwdUC+hHG97ZoCMt4j2+/y4WI+1G0wEREDYIG4TNlC1S1Ghp7NnMxt3tX4prsXajqQTQX2/uIGwQNgibabsLQtjM7B1QrN1oKiDCZ/NNhA3CBprCuyCEzYz+uPj05l6M3WhqIALCBmEDQVAsATTfirMbTQFEaBdXETYIGwiC9hBFo9k9m9wfS306X4+0G00HREDYIGwgCMoOG8o2LHK/K8izJy3nczZKAdRB2CBsIAhh448+535XYL/wsXajbbYVQIT2fFMnbG5G2CBsIGhmwoayyvREEyjdGLvRrrUVQIR2sYawQdhAEMImwBrTE6/+Zb4VZzeaEoiAsEHYQBDCxh99VgERPpuvR9qNpgMiIGwQNhA0DbKHNbf+p7gWS12NGogQaTeaUgB1EDYIGwiKN3jsHY7PIc39axDQAREi7UZTARH+VmxGHzafI2wg6EYPoGi60VLWARH+enM3xm40NRABYYOwgaBYZfd5YupGSwMCKiDCZ/OtKLvR/q4EIiBsoJh+8P5vsbj1z+LatX8W69tfFRv4i0CFmLrR0lYDEeLsRtMBERA2UARhc+2rYtsETs/85/Ud2/8bf6VpuJADQGDrf/LfmB8EUDuebrRdQMCGhcpdQTTdaKOAgFIAdRA20EGHDev/zf8pB5RT2AxotBFAwJJc+QfQfCOibjTVnrQERIggbCirgAifF5sIGyiKsEk8N2L7OviLRho2tIu13P89PitWY+pGS1kHRGjf3D3osKFotGufK4AInxdrMYbN9pfFHsLmxgob0uZ18VeONmyIos6/zDfz/ndLQISIutHGamqK+QfQfCvSbrT8QQSzuMcQNuY/2zZszB3ZGh673KBhs+OvR9zGXz7SsGHcUbkriKgbLe2ttgKI0DbXJc5uNB0QAWEDxRE2E97+eg4gQsRhQ9JoKovUX82/ezTdaLu2YZH7NXPuSdv/BgGlAOogbBA2Bx02rPG5iTdsKKuACJ/NNyLqRlPtSUtAhEi70Tb/oQAifFlsImwQNlGEDeGtbwAi0BfTLPQHHTb0ozElECGibrSUdUCEvxW7MXajqYAIXxZrCBuETQxhM+JvBv4aIAL9y/Ev882IutFSTdEKIEK7eCimbrSxmpqiQgC1YuxGs3cruS9UFkRA2CBsYggb2gARyEXqU/PLMZ5utLR1QISIutHSgIAKiPD3Yj3SbjSVa4uwQdhEEjYT3v4WIAL7CC6mbrS0Nc5NJCBCLN1of0sHkBKIEGk3mtaihm80wuagw+bat4w7+Hwyd0HxdKOlrQIitOcbEXWjpQEBHRAh0m40+8gM3zyEzcyGDWGACHwAdWLpRhs5H6PTk1aNqRstZR0Q4fNiN8putC/zh0wghE0sYUMbIAK9V2BBhHi60Xb92Xwr7/eagAgRdaOlrQIifF5sRdqN1sQ3D2Ezu2FD+DuACPQi9VmxFlE3WtpdlfcbQdhQezN20zz3HxcWRIioG20HEMAjOITNTIfNbugMvf0dQAT6A2dBhIi60dJWARHaN7cPOmzIAPp7/rfoIz1pqKuBEDb7EjasASIwi3JE3WhpQMCSXLm/17/PNw46bBgaTQdEQNhACJv9DxvCWx2ACFwAdWLpRtuHnrRqBGFDWQdE+LLYRdggbBA2+xs2pAEiMHsFn803I+pGS1kJRDj4sKFrajRAhC+KLYQNwgZhs89hM/LobWiACOQiZUGEeLrR0tYBESIIG7KmRgNEMAGCsEHYIGz2PWwmvN0BiMA9llqNqRstbRUQ4W/F9kGHDUWj2bDI/dp+UVxF2CBs9j1svr6xw4Y3vm/0ohxRN1raOiBCsRFRN1raKiACwgZhg7A5iLCZNEAEPoA6sXSjqfekfV6sxtSNljJu0RE2CJsZCRvmDqiObwG1V2BBhHi60dLOH0T4R/FQTN1oI3s0bdylIGwQNjMRNt+TBohA3gG1i7WIutHS1gERYupGSwECGiAChLBB2BxI2Ex4+3uACPQXyIIIEXWjpfdkVECEz4vtiLrRdgGBf+Q/MRRC2CBs9j9sEv8w6c1O/mPpZ+QuKJ5utLRVQITPi41YutEACCBsEDazGTakf8SPTC6AOrF0o6UBAZWeNAsiIGwghA3CRjNsCG//cFMD3zYKRPjbfDOibrS0dUAEhA3CBmGDsFEMG/oOCCACDyLE042Wtg6IgLBB2CBsEDaaYTMaPEPjW8mBCBF1o6WtAiJ8UWwjbGb0s/xVsYqwQdjEEDaUN/8NEIFelCPqRhsp6vxCB0RA2MxsADURNgibGMKGNkAEelH+e7ETSzda2io9af8oVhE2M/o5/rpYQ9jcoGHzfWxhM+ntHwEiMCBCsRlRN1raLVwdyPnHxdfFVYQNwiaGsCH9L4AI3GOpWkTdaLv+UgdEgA5WvU7xP2xY6DyGQ9ggbKIIG9L49lNf2i+KqzF1o6WtASJA+x82lkbb/rrYuvZVsbvzmEzjn7f99VwHYYOwiSFstv8117N3Pdf+Vaxv/Vhcw1iG7LugKLrRJoi0L3R+KUP7GzakFe6Crn1zUxNhg7BB2EwjiHDQYUPQaLgDmpGwIWg0Cw2ogAgIG4QNwmbKQITPi839DpuB2yZ0GpZOA402u2FD+6amCoiAsEHYIGym7A7oy2JtP8PG1uLgr34jhc0kjWb3a1T2NBE2CBuEzRSCCAgbhM0+NwiogAjfzHUQNggbhM203QUhbBA2+94goAQiIGwQNqNu24Ogto0AlTjxBlAHYTOjd7jOgbO/DQIqIMK3xRrCBmGDsJm2RerLYhNhM5sa3PXE1432jRKIgLBB2EDTtw+EsJnRa5uMJYivG83u16i8X4QNwgaCoEgCiOtJi6CuRuWOz4II2mHzHcIGYQNBU65xQGD7q2JD558RaTeaBojw7U1NhA3CBoKgjLCh4AA7UE3lLuibuW6M3WgWGsj7vSYgAsIGYQNBCJsA9FmhFWL767lWnN1oCiBCx/zdETYIGwi6YcLmf/M7Z7P1z+Kawj5QPcZuNDUQAWGDsIEghE0A+vxPhWmw6Z60yOpqNK7Tdmeug7BB2EAQwsYffW6rvJdYu9E6CiBC56YmwgZhA0EIG0/0efvrOT0QIcJuNBUQoVOsIWwQNhAUteLqRktZA0T4dq4VZTeaFoiAsEHYQFDMiqkbLe2tbxRAhG+L9Ri70ba/UwIREDYIGwiKPIDa0XSjpQGBr5VAhIPuRmNoNJW72+/nOggbCILifQT3lfnCRtKNNmYdECGCsKGtACJ8f1MTYQNBkHzhtICARm3LV8VqTN1oO4DA9rdKIMJ3c90Yu9EsNJD3e736Q7GGsIEgyD9sCBrN/t95//M2vyoeiqobLe2OEogQZTeaEoiAsIEgyDdsGHdV7goi6kZLWw1EiLAbze7XqFxbhA0EQXmds7GvoxBA7Xi60dJWABH26kk7wLoajc/d9g9zHYQNBCFs8jlno7APtP21WRgi6UYbgwN0QIRYu9E0QIQfb2oibCAIYZPTOZv87wrso66YutFS52N0QITOXDfGbjQLDeT9XhMQAWEDQQibPM7Z2LECCo+lilF1o432pBVzv+PrzLWi7Eb7XgFE+Jf5vCJsIAhhk8s5m2/mVECE7W/merF0o6W91VEAETrFeozdaHa/RuWOD2EDQdOl5NR8TN1oKauACN/NtaPpRhvpSVMCESLtRlP5cWFBBIQNBE1ZCEXUjTZqhc3qkJ60/WkQ0AERYu1G+5fCtf33TU2EDQRNmba/Mr8cY+lG+0a3Jy0BESLqRtvxdkcJRPh+rhtjN5oGiGD30RA2EDR1d0Dml2M83WhDb3+jBCJE1Y020pNWzP3HxfdzrTi70fIHESAImkJd/bpYi6Ubbcw6IMJ3c71YutHSVgERfijWY+xG0wIRIAiatjsgCyLE1I2WshqIEE03WgoQ6CiBCLH0o41BAfjmQRA0CKF4utFGrAUiRNKNNmYdECGCsCFpNIVHjhAETaG2v57rxNONptuTZh91xdSNlirq1AERfpjrHnjYgEaDIIhdpL65qRlNN1oKELBjBRQeSxWj6kb7YaQnLfe7gu0f51oIGwiCotXVb4u1WLrRxqwDInTmerF0o6W99aMSiICwgSAo2jsgCyLE1I2WsgqI0JlrR9ONNmIFEMGlJw1hA0HQgYZQRN1oY0WdqwqP4eqxdKONQQE6IIJj2Gz/a66TNAogbCAI2k9tf2MWn1i60UYDKPe7ggREiKUbLQUIbP+oBCL8e67Lhc3VfxdrGtU4EARBHndA5pdvPN1o6ZoaHRDhgMOGtQqIcFMDYQNBULRKQIRIutHGrAMifD/XO/CwIawBIkAQBMV9B2RPzUfVjbZrFRDhx7l2XP1oAyuACBAEQfGHUETdaGNFnbk/NhL1pOke6mzjkwhB0A2n7e/mOtF0o6WtASL8WFyLqRstBQf08EmEIOjGuwOyIEI83WjpmhodECGCbjTQaBAEQYUBiKAZNp1g9FkHRPhxroewgSAIiuEOyIIIBx82pNVABIQNBEFQLCF08GHDFHXmvoh79aQhbCAIgnS13TGL6UGHzT71pCUgAsIGgiAoljugm5oHHzaTtmMF8n+vxSLCBoIgKBJd7ZjFNpJutDHrgAj/mushbCAIgqK4AyquRtWNlrIGiIDWZwiCoJhCKKJutNG9GdyZQBAEzbS2f5jrRNONhp40CIKgG+gO6PubmhF1o6WhgBauDgRB0Azr6g/FWizdaOOTOnF1IAiCZvkOyIII6EaDIAiCDiSEEDYQBEHQQSgBERA2EARB0P7fAdk9F4QNBEEQtM9KQASEDQRBELTvd0AmTBA2EARB0MGEEMIGgiDIWf8fRRkJUxkrOnYAAAAASUVORK5CYIKT0zmb/O8K7KOumLrRUudjdECEzlw3xm40Cw3k/V4TEAFhA0EImzzO2dixAgqPpYpRdaON9qQVc7/j68y1ouxG+14BRPiX+bwibCAIYZPLOZtv5lRAhO1v5nqxdKOlvdVRABE6xXqM3Wh2v0bljg9hA0HTpeTUfEzdaCmrgAjfzbWj6UYb6UlTAhEi7UZT+XFhQQSEDQRNWQhF1I02aoXN6pCetP1pENABEWLtRvuXwrX9901NhA0ETZm2vzK/HGPpRvtGtyctAREi6kbb8XZHCUT4fq4bYzeaBohg99EQNhA0dXdA5pdjPN1oQ29/owQiRNWNNtKTVsz9x8X3c604u9HyBxEgCJpCXf26WIulG23MOiDCd3O9WLrR0lYBEX4o1mPsRtMCESAImrY7IAsixNSNlrIaiBBNN1oKEOgogQix9KONQQH45kEQNAiheLrRRqwFIkTSjTZmHRAhgrAhaTSFR44QBE2htr+e68TTjabbk2YfdcXUjZYq6tQBEX6Y6x542IBGgyCIXaS+uakZTTdaChCwYwUUHksVo+pG+2GkJy33u4LtH+daCBsIgqLV1W+LtVi60casAyJ05nqxdKOlvfWjEoiAsIEgKNo7IAsixNSNlrIKiNCZa0fTjTZiBRDBpScNYQNB0IGGUETdaGNFnasKj+HqsXSjjUEBOiCCY9hs/2uukzQKIGwgCNpPbX9jFp9YutFGAyj3u4IERIilGy0FCGz/qAQi/Huuy4XN1X8XaxrVOBAEQR53QOaXbzzdaOmaGh0Q4YDDhrUKiHBTA2EDQVC0SkCESLrRxqwDInw/1zvwsCGsASJAEATFfQdkT81H1Y22axUQ4ce5dlz9aAMrgAgQBEHxh1BE3WhjRZ25PzYS9aTpHups45MIQdANp+3v5jrRdKOlrQEi/Fhci6kbLQUH9PBJhCDoxrsDsiBCPN1o6ZoaHRAhgm400GgQBEGFAYigGTadYPRZB0T4ca6HsIEgCIrhDsiCCAcfNqTVQASEDQRBUCwhdPBhwxR15r6Ie/WkIWwgCIJ0tQ==;fontStyle=1" vertex="1" parent="GMlkpqBU8Bx7z-MP60cb-32">
          <mxGeometry x="14.175824175824177" y="9.687912087912089" width="24.197668605903903" height="28.9693313222725" as="geometry" />
        </mxCell>
        <mxCell id="GMlkpqBU8Bx7z-MP60cb-35" value="&lt;b&gt;NODE 2&lt;/b&gt;" style="text;html=1;align=center;verticalAlign=middle;resizable=0;points=[];autosize=1;strokeColor=none;fillColor=none;" vertex="1" parent="1">
          <mxGeometry x="465" y="238" width="70" height="30" as="geometry" />
        </mxCell>
        <mxCell id="GMlkpqBU8Bx7z-MP60cb-36" value="Prometheus&#xa;exporter" style="shape=image;imageAspect=0;aspect=fixed;verticalLabelPosition=bottom;verticalAlign=top;image=data:image/png,iVBORw0KGgoAAAANSUhEUgAAAf4AAAIACAMAAABUwf7jAAAABGdBTUEAALGPC/xhBQAAAAFzUkdCAK7OHOkAAAMAUExURUdwTP8AANdLMf9/ANdOMdtNMdxLLtpOMdhOMdlNL98/P8xmM/9VVdpMLr8/P9pLMeVMM9pNMdpOLthOLtpIJNdLLtRVKtdLMddOMddMLtlOMdpINtdLMeJVONdOMddOJ9RVKtpOMddLLtpOLthNMdpLMddLMNpMMdhOMdlOMNRVKtBFLtpOMddOLt1MM9pNMNpNMd1VM9pRLddOMdpNMNxRLtlNMdhMM9lOL9hMMdpLLtlOMtpNMdtNMtpOMdxLMNpML9pNMtlMMdtNL99KNdpNMddOL9pLLtdOLdlNMd9PL9hNMNpNMdpLMdlOMdlOLtdNMdlML9hNMtpQM9lOM9pNMddML9lOMNdOMdhNMN1NLNlOMNpMMddLMdhOMddPM9pOMdlPMNlNMdtPMuFLLdlLMNpNMdpLMdlOMdlMMdpOMNlLL9lOL9pNMdlNMNlPMdhOL9pOL9pNMdtOMdZRM9lPL9pOMdlNMdlOL9pOMNpPMNhNLtlNMdhOMtpOMNlOMdpNMNlNMNhOLtlOMdpOMdpMLttMM9pOMdpML9hOLthOLtlNMttOL9pOL9hOMdpMMNlOL9pOMNhOMNpOL9hPMdlQMdpOMNdLMdpOMdpOMNlOL9pML9pNMdpNMNlOMNpOMdpNMNpOMNpMMNlNMdlNMN5KMdlNMdhOMNpMLtpOMdlPMtpNMNtOMNlMMNlOMNlOMdtPL9lNL9hNL9hMMNlOMdpOMNpPMdpOL9pOMdtPMNlOL9pNMNpOMNpNMtdPL9hNL9pNMdlOMdpOMNpOMNlOMdlOMdpNMNpOMdlNMNlOMNlOMdlLNNpOLtpOMdpIMNpNMNpOMNhOMdpNMdhML9pNMtpNMNlOMdlMMNhMMNpOMdlNMNtNMNtPNNpNLtpOMdpMMdpMMNpMMNpNMNlOMNpNMNhMM9lNMNhPMNpOL9ZQLthMM9pOMdpLMdlOMdtMMdpOMdhOMdtMMdlQL9ZQNdlMMdlNMNpNMdhNMdlNMdlNMdxQMtlOMNhOL9pOMdtNMdpOMUeprQUAAAD/dFJOUwAB/QL+JCyM1MwIBQP6BPkK7fv1B/wG6fjw7g7vCRoNDPT26y7y4rToiRIL5PEeY7UPHOquFqsUt0PlUdlWiyVGOMUrGJv37CekEJ5381jg47FCIzfP3I80shdeU866LXFKgEcRL5HfPpAqG6KhjmfH0YpOGTCmv+eTWiGBa3h8qLjGld7LMmGn4dtmQVu5P0vds5JXKW/VaFR1wVxpo8pFvciHeh9tzeagPZhVdER7QGCXSYJ+Tby2OmWErUwgO3aWw3/TqpSfX4iwIjGvFcKZcslQcIOcnTWFWU8d1tC70mp9qY08eWTXJiiG2NpdYsA5NhO+c5qlUmwzbqzESA7iNIcAACAASURBVHja7F15fE3XFr6SmEIkuQlBEpEQiUTEPNY8pTHEUHMQQw0xBU8NMcRMa4yp5qKqKCmKouanvFJq1qqf1/LrrO95bdV7bX/74UpyhzPsfc65d3/n3vP9vc6669vfPcNee+21TSYDBjwEJXqlD224PnHD9ZPTb1Qedurmxvv3N9481b3yjeknV21IXH9tZ3rtEsYouRciKo4bnTNqRLWr3cr4EFn4hHW7Wm3EqJzR4ypGGGOnYwSk95/a+M/tgUQxAovWafxV/5XhxljqCpf2pJ3bEkI0Q2xG27T6l4xxhUfwxfMP7sUSpyC2b+HeF4ONMcZE+NBpWXfNxMkwr85qt9PXGG0o1H7yYIsfcRn8MxpfM94FECiQfmTH64QDHp77dmUBY/x54vtV2YGEI9r0fKegoQKfed2xWcsIALpNWhpgqOFarLxyrzSBQevFaT8YmrjqE//OrhQChyH7xhkTAudP7K/NjySgaP/7HSMt4ESUOrgxgUCjzIilxQydnIFi+8+FER2gbNuBxqqhxvCu3yqQ6AYVHnc2MgLaYfjXKURnmJ1TztBNCxQfl12S6BAlOx0rbqinEsePNiC6RZUPthkKqvjae6+vD9E1vGakGjMBZSj3Y03iBgj5vKWhJTP6jfQnbgL/ti0MPZnQdDFxK9TbY2hK/co/P4a4HbquN5JBNEhuV4W4JTquDTXUlUHLUe2J2yK6cG1DYQnUbRxE3BqR/4gzVBbBoKPtidsjYUp1Q2kBhB4oQzwCZXPKG2rbIX5aIPEYVFgbYChuBd+0EB4ymLOPnFjCJa08cZVRF5SLAos68pAgNu3ZVo1sTk+ASl8Ywj/HfzJ4DH/Ujedv4MP8XgF/9TC0N5UbweXpW7SL5ecvc/wE8Dnn6YtBvtP51O0uL2X5/ROc80DTPPoT4L0hfApx9uYG0Ir3JGDZE48V/+I6PkNeumHewwcg1fBrRc9M85zy4jPerfMXXzsgZAFKTvLAJkJ3eK3reaXmB1ELIw1UaamHid+rDrexXmUVRggBwXyPWgpMLMttoJdbhZGJkwcOPO8x4nfZzG+Yr1oX3nYgQOib6RHiFz8ZxW+Mw45bh1IYaiEo6DcP2BZysQ/PIU61iWU+2ErgnFfdXHzvb/x4jm+WbTT30FaC/dp5u7P6Vf/Nt9Cil204fQgcfq3hvuqv4LxBP9EungV48pPANW4qfsQIziPb3D6iSgQRbcu7o/qPuLdhe2Qf0l1I+Um3V9xvujeA+yb9jxyC2oQpPzF/7WZTwMyZ/Me0iUNUEwgqTrtVY4CDAAurtxzDqgMrPynb330m+zcAmjR4JTkG9jmu/MTnjJt0h4qrhzCcnwpE1psgIybZHdQfPxtiMJsJhPYKtPykWz/9q987CmIoM4RiS8aWnwRN1rn4xWaBjGSiYHgPwfUng3XdGKrcTJBhjI4XjO8WuvzktI63AhyORRnFVsIB7oWXn7zbTLcrPDgnLhwWqTvCl59EpepT/Wk4LRmriM2h9dBGyGe3DsUv8RhoBD8Wi/Ix0QNO6W4JIGIG0vh1FgvzmC7kJzE6WwOuAdWZr43o3eOrk1ZSfXTVHn481jv1vnikn+hDflJJRxnA/WAdut4UD3WeTuQnCU31ov4RtOMXksRjTfbXi/7mefpQ/wpc5kQqWr08/Z9OAFfpQf0zcONWRyrcRkQ/eBtf/bF4o5YjFW94tBrXrV1bv/ojuPgFZgHeNEslQx6pwnNIZxdXsQ2GLgEqvgPxmSm9caa+csezMxNdzeUW8C6wYmcR1Q+UeWClKHW8rKrJ9d2J5sOeCuEbA/nBVFQm7AEK/aZUNdXgsKrVCbQXXPwhzO/lWjJxH1emYdhKk+kPHnz6BiCqH466aWKwXOSKmo34L3l6JZ8Dpzb74qlf6kPU2fJvcqFPVuL1yNMLAzjVs8TAVQAW/wg2WfKzXOzBCo4SOPfsws68KJ0FKwDwfhk3VyZfLDWM2ec/w59dd4Abpx1Y8//PgFOl+2WjT2d+8VsasXJ8381CUn8UcqZ8qHz8zRldTrNcNpEjq7E46t+AXii5LU/gPJvHLZbUW22utA6gqN8OWn1C0S0tnKnpUMnxlqt28uV1BUP9qdjqE5rjs5ezOOwOUik0GkH9NT7g8idRkCjE4C82QmW2WCt4jeOvfrPW4OqTCzQ0miu46bhPd4K4HwZ1oSa6+oSqRpq+08PqvJRLJ+7UJnJuART3E7z6hOrYdF/qFvP5T9zL/Lmt5nogcLDrR+AQ82SbrkBiMKW3OfmXdAX4b2/mmP4v8Jrr+fYw9RvLNE2LouPSgtLdwfxLIJpD7OAnP4/OWAOe/m71ygx9wWtSkqHrRLHd6oohCPKTM7zUT+TB1lK7M/4l6gt+omRDN4tvZHUFSEvgn/mo/5aZB1kfy4d8RDXaC5pT0glIoHA223qlFaQhuP/7PNRvwqlT55EXBQa0Bdo9aQnto3D2h/UFr4NMbcpecL368UU4ke2UW2JA2R++LS2jufK+Emw6RBUBkZ90DXe5/FncUl25z98SdMvtjakpbZf1NUnBx6IrMMLV6qfx45p34FnodzTm9AtjX8n6SrexrwcjP5nqWvWXmPlRrZ8XRRLN6e8dqEkNkqvcXGdrD1Tg5nfYleoP59mw70h+HDR9+YZq90LrbWv+ACiz3cCF7R9LZfBkutUqEord+QXpeTWV9hQdYGu+G2ll47LrNn+d4krUulNPS/n8bwBDvXIlpjkEVmuAYa5S/zxfnpuYSo1qsjA7KulqiZ01WD/4L1yj/njOBR4hNjes3LLbVRZqBaU8VbFfOqyLJX+QS5p/BfBe4i9rE47c9vwsJnKXJTx1d7AOxNK/iCv2/nEvcWpjYpl9b2Ui94aEp2aqtwc4Gx87X/073ElWsA3otrT1G0zsksWn/gscrXeByS/TxkYD/K0Cd44hdiFlS1p3ZuNXS9TRckfjDWjyh9R2cn3PYv4cY+1iOiFpzdgMN1XU0UJHY7yjoKq5bao/D++yvIITWKsXxRIJgQJ7qoP94fT/rzPVr4hwPkcD+6jW0CYJaNBKxNFGIeNNcPK3buE89X0hVrjH2IdVQqJ/OPNS6BKWpEp3OPnJGOd1fpoEQdCxfEeij+w3zF83wiVcXr8IGT/Bk18gPaER9qPObqt6iRqzn4RcWNBPhqBtXcD9jT5NnaN+aEcMfmsdQxOfjwxnpin8OT9F2Lgr4O2/oLwbrvPlY4VjaJMpU0RUSBFyJFI1ANjAWjBDoR4nUB50AucaxosdyXNIAVGhp39QKWHbzojyeznh5MfguyjshBI580VsHyhgKvT0nyFW+BKNqH8R7Tf+fYDCLVJoy+Yalumagqd/OzFbyCbW2vf9KeSHQm2d4K4DkRqELiZtnv6PxGwnQ8rvv1Jb9b0zYKgVFgywk2ZffkJP/yjRp2loaUj9/9K27eMqHGaNBAMcreUKiEPJ3wRx256Q8mtb+L8N6GC+TMEIv9TyHehwIs0NcdtFmPJH19BQfqD9LGKlm4LLEQoTYEsZcofxkZj699RO/VQgWmLPc6HmLGaF+a94f7s8apyEMWoz62uaLfQNAWI1QCTIcQK2W5QytqsgeEnK9i1Q+buV0kj+t5FYLRQJsrrAsk9lpYy32voZKTkpWgCq/0mNyvuQDmSOFP1PC6y+7FdK+aCtH+kSmjOg8kf30kR+qLP5shmKEUqGKqV8iTLp8xzDS4Lqf1ML9W9DrWmL34grHGybKydtM/M3hyutDuYLr7kayD8TitL3onFmOthOV076U2s/Y2SM64PKT06rVx8rqT1EIlKH7sIqGh5PsfYj2znx76j6N1KrfkBHKD67JEK1P0M0REXe26aIL03OOhFV/hS1u/4GYPFpKBGq/ZEyG1XQ/sHakexGoeCJqPpPV6f+l1FQbKLiJWK1X/NfoYJ3Ceu83y+y5tNQ5Y8crkr+VlhsJI/jbWJr21pVxaNVbVMDiirYMFT996kZhC5mLDKLJCv0bQv+Oqn631t9+vfVUy2UPfyOqxiEkVhc/KXzOH1sjHurkr9xviOafRODElD1v6V8DJLA8lkx0uH+bvO3T1Yl/5v5nr5lnikiwVxQ8RhkgVGZJx1ujrVtPXXfvFY93qg6JoYGour/stIh6Ae2hckcJx2vTdp3sjr5k/I9xVFdsBtVfq90hUOAlsuW+wbrYWWboLLJtW/eX5+yXDQ4BVX/s8pGYC4aj3/JBJyszRePBSGsifMOqPL7vKpoAGLAaJSWPbTM6jC2oWrln5PrqZXCEiEcfKKEfzM0Fn/Khjwmz3aZ6jr3vIl/O32ujFtDydpXXzQSDWVDzu/xtVv1Smfeoc6pes2SqJoF/Q+NQ5h815K8+vygQarlz0vj0785hweh6s/+9n8NjQJF6VIO8/taHHmH+jIsHaBW/bF3OKpqRqOwUD7oxFzbiurl3/PCVQhLcUQD1Mw/68LfKDQGVSiO4s3dnTNBgxq33ENdmfYK7EW9/ceyka8erUcCud8r9TWQP+6FryyWi7zHgMpfJoKJ/Fo4AjTtCrdZTGdqUeBcwN/ijK0j+EDU2z+NhUWxjmjh96EJu7zFtr8W8ufWeo9mu+oQqPwpLEf9rIcL/zpV3M/v2KKaqJ+b9mP8L/VAzf2wtLmBa1dnputU/rzkcqA28r/IeRdivOwsqPwMN8UeuOBj6AJ/+NT0Q23UN7W1/HJ1xsuSULd8vU9NoR5c7JT7FYo+fU5o1dXIsss3WunfRq93kMnUBO79FUbZpnoCIbM0Ut90/fkvf8d8XaYfpvw+tF3OKsOF/hll5D3/z96Zh9d05nH8lVwlN7nJjSWSiASJNSHWoKLUFpSxq1CUULRjeEYtaWuJrYraS2prtCaU6EwtpWOsTbVqtDWMp2YIXaz1YGifPsO0Z+69WW9yl3PPyX3f7/ve9/v/Ob/v/X1yTs67/X5KbJvywp9ftEdDWdCvQR//H1WO+mrAOb+mMvPfe9CwWd0H0CTPL/wT6OM/U93Y7zk44wvUrt6//7dyo0/iPHlk7NQN9PFXV+0nA873PrWJPzSs/PAPs4XO1nDladCP/2aq3l1+cL5Vb1WvXX70SZAtDzlaLp2Oib+6mlp/eOeVphAmsn0C7dT+fwNPKqpcBiXAuf6WDX7b6l1HTZdmYOJ/w/2i+WE406aHbPDbNjtqqw6FWu7lN7fO+8N5/oINfbLFEjtcz5sDT24HRtF4X60dGOG39unpp/Hae5j4Te5GRtvgLPcxM8JvbVi7XeO1RtATn8fc+K4M53g6I/q2U1sZel4dgBqsboMjkKaywj9Bz99eR9BtH7dcusarUhAVxgp/RUv0dM1Xb8XE/51L03fg/D7Dij4xKk6bd6peMIRTrivP4/D8dmKGn6QoymPNF9eKwOTvqtjDRTi3LYPY4R+sKHe1X30BE7+r99kSOLfH2dG3zoAd1n71Mkz8LrYvLcJzm8UQ/xpFOar9an/QA39xHO3yighkiP+s6/+U7vQCJv6LTg2Ph/M6nSF90l5R9HTDO4qJf4kzvw/wvK5liT9OUWJ0XO5fA5O/sx4fT8E5DanJEr/Z4KerRBDonj9nh1bXwznNIEzVr4muy89h4nfSm6YpntPNbPFfSdB1ee0QTP6OS31MhvNpiGaLf80dfdeDzvsnOjR7Bs5nAFv6ZKlOA9sw8Sc58hoIV8/Fw8oa5a9B9/Vd/wATf0QwH5OU7RjjN+vrCEKC+2Dy38nFlF93I2P8ZL/O60E3fDua+LsK5/IAa/pkp94/H0z8DgolvYTn8jpz/HpXHDph4jd0LeM0Ec/lN4R3NQfd8fd5Gaf/g/MY5c89fluxIUDNLe0zCG9vUiv+6ZPFmPhDS69lTMPzmC0A/t6Y+JVRpXz+F8/iIAHwjwbFnwn/ljIZBcB/CRR/6e7m9eEcDhaAPqkAOu+3AP6vtJsI+Ml20Mf/ZTuXgE3oJguBH7TMj/K2nct0PIOPhMB/CBT/RDuXI+D8hYQJgf91UPwL7bYl4dX0CBCCPhkAir9KfAmTeBXcVZfxBVdHUPx2jdEAG9D9LAZ+Iyr+OSVMjsSz114M/CQKFH/Jxq6AhYimCYL/Jij+2GKLLQDtNRcE/wzUt3/xxM9ePHOhgtAnSaj4OyEvSwaIgn8PKv7iHve/4JlLEgX/P1HxF3f1zsUz10gU/LtR8ecVOgwEbD6TKQr+paj4QwrP+iB2HxBl2E/WouIvaoq9CdBblij4P4LFX9jVtxGgt49Fwd8OFn9hk7K2gN7iRMH/NCz+wq6uiAXoTouCfxEs/vr5BnshehsmCv4usPgL+hQ9QrQWLwr+irj481fVngN0ZqggCv7TuPjPwc5L1RGFPjmCi/95m8GTgM5qCIO/KS7+F2wGmwE6aykM/ku4+FNtBtcDOhNmuZ+8iov/qs1gVfm/34vqiIu/ntVfa0RnfsLgj8PFr1ibIw+CdGaWk77e11DYFcmXRcHfCRi/9ZznbEhnT4iCPwcY/waLv12QzgaIgn8zMP75Fn8NIJ39SxT83wHjtw78/wH7XhJCx4Hxz7P4GwI8ISmA+gPjT7b4w+w1u1oU/COA8YcSEozpbL0o+KOA8fv5k2GYzsKDxKDfS0FWG/IiqLOKYuAfBI2/B5kA6kyQcx7DofEftTaqhdQnYuBvBI1/KvkrqLP+YuBvBo3/HuiUv6I8KQb+mdD4NwD2bS5QCxHoR0PTV06Rz1CtdRABf3ts/BdIK1Rr6fLLz+tKwv02yRUB/zxs/KnkCqo1Q2v+6ZtN2PgzyFew3jbJnV7e1gzyLqy3nvzj/yM4/s7AC5Kh/K/65IHjD4A841OgCbzTbwFO3/J5vQTX3ETe8Wei408G7OBWpPq8H/Jfjo6/L2kI7O4a3/THmtDx7yCRwO728I3/Hjp9JRTyfG+hIqtxjX8kPP4+pAqyPa6XfaL94PGbiAHZ3hWe8R+Dp6/4kRBkewaeqzsm4+PvTupB+6vEL/2/4NNXmpAUaH+RZm7xJ3GAvyVkQd8SmsUr/ZeqcIA/gYzHNjjEn1P873FAX1kF/4Gylk/68ZE84L9JroI7zONz4v88D/SVPBKAbpHL015h/bjA/w7prMjH3weXevN1ArfHbJF+xx/9avX5wH8Af01aWRLIHf7HfNBXDpJUfJPreKMfU4MT/GfI915/wUydPTdZ18JSyljO8JdD396Q7d02D/L6EZzF3u8w3aSW9XlY8fPiVZpvcZIv+pfq6kpY1SnzE/9u/YcX7PWqWyfJIa+/YYoW7R/u/aSZpiWG6uO4wj9d+6Ny/9m7XYr2tw/wOprXKMxPpNrlZuCb6e94vAduHk+DP21LfSkjT3WoaP8z13gdTTa56/UYpjZlxkX/OT+3r0f3mMzRjM9lTxO0o8G+c03L3qiC96eOXiGjFQp/Y47UtX2jjao3GkZEc4N/vyep6dtqzuiuTm501Ptk0sgD7wdZ6DRVwYtm9VT3RchNlc/b4eqSYkhefOyDxq7uNN/7ZB6RgRSGl11cJqz11Pfuu38NfMgH/SAVR2ar505atzPG3Z0CY70P5ghpTgH/D26zZnkNbHFdW7rJES7w91YxnK+l6k7/pgCmNqGx07tlmKof3HrqqY3Oh8wneDjwGxfifjivUhRKgYdbwtA45ZWj+kcHD81e3NfZIBVetRyflw4/UXI4r05dKTyW1uJ5NE54b/Xsp0e//UPn7mVu4rcMHv/XDt58/Y9d03JY6ToFLFctcTZSiGPo4fHPDxw66/c37ZcKGqK393rF/ldXGbFnuNbK1P4LKGD5iVDakKyxOUfNAb2TSuThV+yl37f6FFsd/+nunWYd91pJg8pcS6BKNAI1idGeicZZs5OG5L8HdiHTr1mwa3ZmgzErv9R7swwaVBpZAs2isrL8WG9uV5x/P8+kfItL33+15Vtq9ZiPymV+8jaVo5eZtF4zyqry2K8fNu3NWrD4J8xOG1ZuN6PTXPE3SyRK7TxyiJRqtalLhYn1g9xMB3+AhKpeY6ggMRitsShtTOskqapVPJ1ztztswSi18fxKYlUrSkeE5tmCzaUTTJyuzN6WcQcdIL/Yop2ihP+EBKtO2ZSAXLRFm0wpmpImyapaN6L08Cs3bOHSaOHfXkGyVaGztHh8YAt3i1Y4Hk/r0VdMS1o4BuavrVGrPboqTNJ1q9do0QgJzg+YS+3xPyvpulPrPrRg5BVEnE4Nf1QbydeN9lCDsaUgIsVGnnskX9e6Ta8g2IaCkKPp4febJgm7FMW+eoXjcJo9RzrLwZ8rUXwSlaKtczSLkN2TjJ0rjGKZvdiiqBsp4k+RX3/OdZ0iiJ+KoqZTjKpMkpSdqSnN3hrFjbKW0sRfMNcoVVZnaGJILAr7NFX8C8wStEPR7fb+TVHceLotPSZK0o5UM4EmBL8Sm2bp9nL0uyZZO9BxqhCSS0TuSTWyskS+/stqBd1XcMkv8M108fNWqY2GalHupru0ROw4yvgNWZJ3KaVTRvBiidj+EZSDJ4yVwO2URbmhXqTd5HtbyviVTyXxkhqbQDn/DezCz6GNn5dSTZREve3Xdbvwy6jj71NRQi9SIvX0T7CLb6bfdixAbvwrVI86tJMfYrR3sJA6fuUPknvBmI9+O60ppSxMpI/fcFiSt6kb/dyXbo6bQ9+CEtpUorfoLoPUl26PFs3AgzIlUMIn4+oyyHzr0i7usOD/rKTfawiDvFcuY2MiC/yy5It/MxZpr1TGRxoT/PV6+Dj+p5ikvV0ZH8a6TIxcru3T9IczSXodB1MuB5k4UZJ8mf7H4UxynurASjYb/Epv36U/MJZNyjc78NKREX4/ny360TiZUcpfdeRmCCMzkT66+GPcyCjhdxzaSWfkRlkf44v0/Vuxyrfj2ZaVrOwo/X3x3OcuZul2/N/WHM7M0I++R38fs2TXNTp2tJyZI+VzX6O/m12umzmxNIudJZOPlfxcyi7Vtir+jtTVj52nqpV9SgwzXd1pp5EZipTwGun0lZQpkyO+bjjF/2V1mR3RZXLRNvqKTI/oOujig/SGTI/ocnW8pnEVmR+xFdLL1Xi0rUyQ2Ep1OR3xoUyQ2Nrket9piMyQyOruZnF1tUyRyGrlZjI6R6ZIZJ1zgz+spcyRuJoZjLnxXIqK3O+r6CGTJKwMA90vRW+UaRJVW1XsRNgk0ySq1DTSM0bKPImplGpqNiKtkYkSU+qq6YySiRJTb6nbh/iuzJSI+lXlNtREmSoRpbaQZnwEfW8XKvmUPqOf4SgzcMkJHzvm+QT9DJ9Sba6FSeIXDb8pWr27nhK/aPg96Z83TeIXDf8oT+wdkPjFwr/cI3t7JX6x8Gd55q+yxC8S/jwP/b0u8YuEf7iH/sJ2SPzi4E/wuHb2NolfHPzHPDY4to7ELwr+es09d3hK4hcF/yENDh/Wk/jFwB+hqWfmPolfDPz7NVlsHinxi4A/paY2j3+W+EXAr7Vkeu1YiZ9//DXitZrcIPHzj/95zSbNDSV+3vE/adTucp3Ezzv+WTpcVusn8fON/w1djbIzJX6+8d/QZTP4ssTPM/7cIH0+0yR+nvG302u0gcTPL/4vdBu9Zfp/e+f+FFUZxvF3l9Vid1kWEAGRuCOgroIoF7kKiiuKJiKIGIqA4gWTEAxtHJVLiEiNomIqXsAbNVI65AW0mrymeZlGLW0SzEpnnMoxq5km+6GZZpo0Fc553uc9+3z+guf7/e455z3P8553KX5R47eVwNUCil/U+AslqDRoCMUvZvz+kvxB3gKKX8z4B0lSqn4hxS9i/NOspKl1NcUvYvz7pCq2jeIXL/5bkhW7xIviFy1+hybpqh1L8YsW/y8SVmuYRvGLFX+5XspyKxwpfpHit8+Vtt5oil+k+HdKXK/bZIpfnPjvaaUuOJziFyZ+TYv0FZ+i+EWJf6QMFQf6U/xixL94jBwlr6P4xYi/Xp6ap1D8IsR/XqaaE+hfvgTAaahcv9lWMhc/M+S7ZzWTu9g5KeMjy/gD+YubDVo5lyznbMlhzDjnyrtk/Ygsxsx0md9YVNvJY7ysUcn9xhpsRy5jxbtI/o5FPdmMlesQHaur5DNOmkEalsaF5DRGdmtB4mcpfclrfNgdgxpYvKUht7GhjoUbWGWT3djYDzivVPUjv3FxVgUYPxszmRzHRKQrA8XHgTzHg2c89H6VGjIdD1Hw+5XWkutY+JbDdjXdOxwF+1kjYwJHM7YbeGxXDIzkp3gTtr2bjfy8+HoMH8kp/LZ+LsMW/0FuVvgf46U5bhQvzUexxV/IywmHa/xEZ/Lq/q7EFv8VXr3e6zxVv8dJdRu2+Hm1Qdfzlf0xH9UjsMVfzseHPM6y9YO5yI7AFj+fLXAvW/HW7TGNi3B3XOmHcjGh3Mhf+Ut+PJSn44r/OA8PZmVgkH7Hn4P0I7ji38XBgj0pOLRncXjwXcUVvxneAe94LOLTB4KL34Ar/lXgBrhU4FG/D3z6r0nAlL4JfsJ/GJP+WGdo/VMxya+GVj9qIq6732v2wAYUY1IfAizeph1b3yNZDeuArxaPdg8vWO3qKIaOH4HHP5l4pANvfNNUMoT8brFTH+B5zxsMJdWg938bNGt/kyPonf97hpQaUB/Q7Pg5Cqna/iuGluG2gEZM0OEQrYVsejtfZ4iZCbkGHoRDcwegZIdtDDWzfeG8uKfHoNgwC07xwNsMOff7wLnxvoV1/OzSGXp8nOCe/ghaPx6LweT6ZzEBGD0AzJDv+KtdCibWL4YJgelFsLmXibfWHmCfOty8wQQh6EMoT6bwlvoNlNI1rkwYdKegXOE8/DgNpXOkgYlEJ9Ri+CWeKpuAtjlpGplgbAZqAL6i4qfR6iegVl8yE45aoAYAx9Y/ULPf7jYTkLtlMBOwWF4CW2F2OEy+w4Rk6A6Yi4PT+3AdzOGmK0KZoGjngxi0iotBGTC9/iQtE5cOGwiLRrhxaPY2QCizXcCE5ucICJeW9wa/sT0AnvO5jAAAA81JREFUGWpMYoKTAXIAWAhwV0QH8l17yVAmPIY0CKfO9oLU5HYIQtMLeqYEkj0h2j9GOEHuEO2ecVFMIfSE+ALyMtidsmg3gJzIOUwxBJ0FMKysDujHDHGeRZsrUxJbAPaAurRCKBkOMOZxqGYK4y7AGUCag7IfdaQPALj0rUczxdE7GqBFvn2uvCJMFwCGGGd0TImEA2wCtBsup4J1AG3+CS1MoQS2Adw5i2WbAGT8AVD+sBymXAYBtAC8N8tSuqoSYAPDuEqmaGIuA1xBFxZJX3j6qwCF70hhCkd/CeAYKPVFibcA3kgCWLd6fmHFlM+SNQDXkVdhoHQVh6ZBnFwV1sQsg6mJAG76Rkv0b/bB+RDH1sm0YkHJ58UQEzPnkT7dL/Vcki1EreZQZknMqALZKvVJcrcGwdrSFSBljv+TWRgea2FOAurzQVxXSzz80AWkRHVaf2Z5xFk/gqEq7fZzL6mtZudDHVTfcJ9ZJKpKsG/jE988/RyvgnMrb4EdUh4xVcUsFfedgGcBvz3vyKKnDlN6n6veCnhay6gv+zNL5jPY43BtU/c21vsEPa6SoNx3G/em2oCWM+wYs3RWL3wEjmdkSUhSQXbjpvXrNzVmFySFlER6wleRWssIpl/g/cgCcTpiRdn/fd+N9rK08L0CXCn3fyh63daSwnfOS6DM/4Xpob2lhG/THEx5//clYK+jJYTvmLSEsn4so4vVSg9fbY6hnJ9IzzaNksPXDJtDGf8vuVttFPvMn+9D+T6V4OiBSgzfJWAuZftso4BLVUoLf/x0d8r1mTGU7lZS+NbJBsr0OWcBgxWyCtT0a6E0u0BdXh/xw7fLr6Mku4i2tETsC/9BaS9KsTvEBDiJGr7/mR6UX7fRZS4XsBmoDvtNR9lJQ9NSP7HCr8o2UWoSojqet0eU7CPyD6soMamxmr1SgGWA/8l9lL1M6MMvJmLO3rt5op5SkrUfOPOqHc7sE6/EUm8P4ikQt7QB2buAekf2JNq5CUdojXkIluyd5pWGUiLgN4FrnSu43wQcRyxLp6UeLwLr0xq4bRG1uVyQmUMZcMa4elmYC3T0fQ/tbzGS91geBFkbzWBfZpZt3ZhF6zx0FB0Y++unsu4UtLlpHnugiJzGi85nc0CYDH8gNOBQQE0WDXEEWRK2bCk8US7Jp6PeDScCtrQEkqfi4dGzdVfB+dQuLQz7poYU7Grv6UEuCo9bcG54VEdnnnl5+SzfJ/YK1L5l5WHm/M6OqPDcYC25plAMxpwEU0x8RVzttvb2bbVxFfExpowcoyU27P8C6rIKu/5ZqAwAAAAASUVORK5CYII=;fontStyle=1" vertex="1" parent="1">
          <mxGeometry x="410" y="150" width="50" height="50.2" as="geometry" />
        </mxCell>
        <mxCell id="GMlkpqBU8Bx7z-MP60cb-37" value="" style="edgeStyle=none;orthogonalLoop=1;jettySize=auto;html=1;rounded=0;flowAnimation=1;shadow=0;dashed=1;strokeWidth=2;entryX=0.5;entryY=0;entryDx=0;entryDy=0;entryPerimeter=0;" edge="1" parent="1" target="GMlkpqBU8Bx7z-MP60cb-33">
          <mxGeometry width="80" relative="1" as="geometry">
            <mxPoint x="560.5600548451264" y="61" as="sourcePoint" />
            <mxPoint x="560" y="55" as="targetPoint" />
            <Array as="points" />
          </mxGeometry>
        </mxCell>
        <mxCell id="GMlkpqBU8Bx7z-MP60cb-38" value="&lt;div style=&quot;text-align: justify;&quot;&gt;Fetch&lt;/div&gt;&lt;div style=&quot;text-align: justify;&quot;&gt;&amp;nbsp;logs&lt;/div&gt;" style="edgeLabel;html=1;align=center;verticalAlign=middle;resizable=0;points=[];" vertex="1" connectable="0" parent="GMlkpqBU8Bx7z-MP60cb-37">
          <mxGeometry x="-0.02" y="2" relative="1" as="geometry">
            <mxPoint x="14" y="10" as="offset" />
          </mxGeometry>
        </mxCell>
        <mxCell id="GMlkpqBU8Bx7z-MP60cb-39" value="&lt;div style=&quot;text-align: justify;&quot;&gt;Write&lt;/div&gt;&lt;div style=&quot;text-align: justify;&quot;&gt;logs&lt;/div&gt;" style="edgeLabel;html=1;align=center;verticalAlign=middle;resizable=0;points=[];" vertex="1" connectable="0" parent="1">
          <mxGeometry x="499.997984128241" y="28.99870059277883" as="geometry" />
        </mxCell>
        <mxCell id="GMlkpqBU8Bx7z-MP60cb-40" value="&lt;div&gt;&lt;b&gt;Logs&lt;/b&gt;&lt;/div&gt;" style="sketch=0;outlineConnect=0;fontColor=#232F3E;gradientColor=none;fillColor=#E7157B;strokeColor=none;dashed=0;verticalLabelPosition=bottom;verticalAlign=top;align=center;html=1;fontSize=12;fontStyle=0;aspect=fixed;pointerEvents=1;shape=mxgraph.aws4.logs;" vertex="1" parent="1">
          <mxGeometry x="551.6" y="17" width="32.15" height="44" as="geometry" />
        </mxCell>
      </root>
    </mxGraphModel>
  </diagram>
</mxfile>
